<svg width="838" height="551" viewBox="0 0 838 551" fill="none" xmlns="http://www.w3.org/2000/svg">
<path opacity="0.5" d="M179.795 45.6936C133.437 75.001 100.709 52.3259 72.6432 83.4257C-14.7818 180.221 95.9566 216.877 44.5776 231.665C-11.2847 247.798 23.5059 318.871 54.8893 339.484C86.3623 360.009 109.676 372.377 65.0216 393.439C20.3676 414.411 12.5666 437.713 31.3069 475.535C50.0473 513.357 85.5553 525.277 232.967 527.518C380.469 529.758 665.968 525.008 743.888 503.498C821.808 481.988 764.96 426.6 797.778 385.283C830.506 343.966 836.962 319.677 786.838 279.525C736.715 239.373 765.229 197.877 780.293 168.659C795.357 139.352 806.924 86.2937 746.488 71.1471C686.053 56.0005 615.754 116.408 585.357 85.756C554.96 55.0146 568.321 14.3249 501.967 24.6317C435.614 34.849 413.287 114.257 355.362 109.865C297.438 105.294 278.07 -16.4165 179.795 45.6936Z" fill="url(#paint0_linear_34_1952)"/>
<path opacity="0.5" d="M202.212 70.0716C160.158 96.6006 130.478 76.0764 105.103 104.219C25.8373 191.962 126.264 225.212 79.6373 238.656C28.9757 253.265 60.5383 317.705 88.9627 336.347C117.477 354.989 138.638 366.193 98.1983 385.193C57.669 404.283 50.675 425.345 67.622 459.582C84.569 493.819 116.759 504.663 250.452 506.725C384.145 508.786 643.013 504.484 713.581 484.946C784.238 465.407 732.68 415.217 762.449 377.754C792.129 340.291 797.957 318.243 752.496 281.855C707.035 245.468 732.949 207.825 746.578 181.296C760.207 154.767 770.698 106.639 715.912 92.9259C661.126 79.2133 597.373 134.064 569.845 106.28C542.317 78.4067 554.422 41.5708 494.256 50.8022C434.09 60.1232 413.825 132.002 361.37 128.059C308.825 124.115 291.251 13.7871 202.212 70.0716Z" fill="url(#paint1_linear_34_1952)"/>
<path d="M367.189 382.473L372.822 379.864C373.861 379.435 376.185 378.419 379.296 376.881C380.382 376.351 381.745 376.763 382.277 377.899C382.808 378.986 382.395 380.349 381.259 380.881C380.172 381.411 379.136 381.941 378.246 382.316C378.458 382.76 378.473 383.31 378.337 383.815C377.969 384.976 376.737 385.661 375.576 385.293C373.506 384.65 372.394 384.28 372.394 384.28L367.189 382.473ZM384.761 386.239C384.756 386.039 384.8 385.837 384.844 385.636C385.161 384.426 386.343 383.742 387.553 384.059C390.679 384.873 394.306 385.723 398.335 386.612C399.543 386.878 400.277 388.059 400.01 389.268C399.744 390.476 398.563 391.21 397.354 390.943C393.276 390.056 389.647 389.156 386.421 388.345C385.413 388.072 384.788 387.189 384.761 386.239ZM387.808 373.441C387.787 372.691 388.167 371.93 388.856 371.51C392.005 369.571 395.048 367.434 397.842 365.304C398.821 364.526 400.229 364.737 400.957 365.718C401.735 366.697 401.524 368.105 400.543 368.833C397.652 371.065 394.51 373.255 391.213 375.298C390.18 375.928 388.82 375.615 388.14 374.583C387.931 374.239 387.819 373.841 387.808 373.441ZM405.346 359.79C405.329 359.19 405.563 358.583 406.002 358.17C408.631 355.545 411.007 352.776 413.032 350.017C413.756 349.046 415.151 348.807 416.122 349.531C417.093 350.254 417.332 351.649 416.608 352.62C414.438 355.583 411.917 358.506 409.091 361.288C408.215 362.163 406.813 362.152 405.938 361.275C405.577 360.885 405.361 360.34 405.346 359.79ZM406.515 390.989C406.51 390.839 406.506 390.688 406.552 390.537C406.769 389.33 407.948 388.546 409.155 388.763C412.626 389.367 416.246 389.967 420.066 390.561C421.272 390.728 422.104 391.856 421.937 393.062C421.771 394.268 420.644 395.15 419.437 394.933C415.568 394.39 411.898 393.792 408.376 393.139C407.269 392.919 406.544 392.039 406.515 390.989ZM418.309 341.812C418.299 341.462 418.39 341.109 418.531 340.805C419.619 338.522 420.552 336.094 421.237 333.723C421.558 332.663 421.879 331.603 422.201 330.593C422.569 329.431 423.853 328.795 425.014 329.163C426.176 329.531 426.812 330.815 426.444 331.976C426.12 332.936 425.798 333.946 425.526 334.955C424.748 337.579 423.769 340.159 422.587 342.644C422.067 343.76 420.729 344.247 419.614 343.728C418.804 343.4 418.331 342.612 418.309 341.812ZM420.296 299.916L420.273 295.462C422.569 295.248 424.49 294.143 426.629 291.882C427.456 291.008 428.906 290.967 429.78 291.794C430.654 292.62 430.694 294.071 429.868 294.945C428.067 296.796 426.352 298.095 424.472 298.898C424.043 299.661 423.255 300.133 422.351 300.008L420.296 299.916ZM426.392 321.117C426.382 320.767 426.471 320.364 426.661 320.008C428.61 316.301 430.873 313.084 433.351 310.413C434.178 309.539 435.577 309.45 436.502 310.325C437.376 311.152 437.465 312.551 436.589 313.476C434.403 315.839 432.382 318.748 430.573 322.102C430.002 323.169 428.663 323.606 427.546 323.037C426.835 322.656 426.414 321.917 426.392 321.117ZM428.574 394.128C428.571 394.028 428.568 393.928 428.565 393.828C428.682 392.624 429.807 391.692 431.013 391.858C434.678 392.257 438.39 392.554 441.999 392.754C443.202 392.82 444.183 393.894 444.066 395.099C443.999 396.302 442.926 397.283 441.721 397.166C438.061 396.917 434.299 396.622 430.534 396.226C429.431 396.157 428.604 395.229 428.574 394.128ZM431.432 299.005C431.429 298.905 431.427 298.805 431.424 298.705C431.54 297.501 432.616 296.57 433.871 296.735C437.585 297.082 441.501 297.524 445.017 297.976C446.223 298.143 447.105 299.27 446.938 300.475C446.772 301.681 445.645 302.563 444.439 302.397C440.973 301.943 437.058 301.551 433.394 301.153C432.339 301.032 431.463 300.105 431.432 299.005ZM432.837 284.752C432.823 284.252 432.961 283.797 433.25 283.389C435.131 280.834 437.398 277.768 440.259 274.485C441.084 273.562 442.483 273.473 443.406 274.248C444.33 275.073 444.419 276.472 443.643 277.394C440.928 280.523 438.708 283.487 436.876 285.991C436.152 286.962 434.757 287.201 433.786 286.477C433.174 286.044 432.855 285.402 432.837 284.752ZM441.674 305.527C441.65 304.677 442.126 303.812 442.967 303.439C446.822 301.68 450.211 301.185 452.256 300.928C452.855 300.861 453.354 300.797 453.701 300.688C454.84 300.256 456.206 300.768 456.638 301.907C457.12 303.045 456.604 304.31 455.467 304.793C455.268 304.848 455.071 304.954 454.772 305.012C454.325 305.125 453.678 305.243 452.88 305.365C450.985 305.618 448.094 306.049 444.833 307.541C443.696 308.073 442.381 307.559 441.899 306.421C441.739 306.075 441.68 305.777 441.674 305.527ZM450.784 395.512C450.783 395.462 450.783 395.462 450.781 395.412C450.797 394.161 451.82 393.181 453.023 393.248C456.228 393.309 459.53 393.267 462.781 393.177L464.031 393.142C465.282 393.107 466.31 394.079 466.343 395.28C466.376 396.48 465.404 397.508 464.205 397.591L462.955 397.626C459.604 397.719 456.301 397.711 452.997 397.703C451.794 397.636 450.816 396.663 450.784 395.512ZM447.487 268.028C447.47 267.428 447.702 266.771 448.19 266.307C450.873 263.83 453.807 261.346 456.897 259.058C457.877 258.33 459.285 258.541 460.013 259.522C460.741 260.502 460.53 261.909 459.549 262.637C456.608 264.871 453.77 267.203 451.184 269.577C450.256 270.403 448.852 270.342 448.027 269.464C447.665 269.024 447.501 268.528 447.487 268.028ZM465.232 254.622C465.211 253.871 465.59 253.11 466.279 252.691C466.968 252.271 467.657 251.851 468.346 251.432C470.906 249.909 473.619 248.482 476.288 247.257C477.424 246.725 478.74 247.239 479.222 248.376C479.704 249.514 479.24 250.828 478.102 251.31C475.582 252.482 473.017 253.804 470.604 255.223C469.915 255.642 469.226 256.062 468.585 256.43C467.552 257.059 466.192 256.747 465.512 255.715C465.354 255.419 465.243 255.022 465.232 254.622ZM473.035 394.743C473.003 393.593 473.875 392.568 475.074 392.484C478.768 392.131 482.46 391.728 485.998 391.179C487.195 390.996 488.368 391.814 488.553 393.06C488.738 394.306 487.919 395.43 486.672 395.615C483.034 396.166 479.293 396.621 475.499 396.977C474.252 397.112 473.175 396.191 473.09 394.942C473.037 394.843 473.036 394.793 473.035 394.743ZM485.449 245.551C485.422 244.55 486.047 243.632 487.09 243.353C490.766 242.35 494.548 241.594 498.338 241.088C499.536 240.954 500.661 241.824 500.844 243.02C501.029 244.266 500.108 245.343 498.912 245.526C495.321 245.977 491.787 246.675 488.36 247.622C487.168 247.955 485.947 247.238 485.615 246.096C485.459 245.901 485.454 245.701 485.449 245.551ZM495.012 391.329C494.982 390.278 495.707 389.357 496.751 389.078C500.382 388.276 503.909 387.327 507.333 386.281C508.524 385.898 509.744 386.564 510.127 387.755C510.511 388.945 509.844 390.165 508.653 390.549C505.13 391.648 501.453 392.601 497.723 393.455C496.53 393.739 495.358 392.971 495.074 391.777C495.02 391.629 495.016 391.479 495.012 391.329ZM507.446 242.836C507.444 242.786 507.443 242.736 507.443 242.736C507.458 241.485 508.483 240.555 509.735 240.57C513.491 240.666 517.355 241.009 521.126 241.655C522.334 241.872 523.166 243 522.949 244.207C522.732 245.414 521.605 246.246 520.397 246.029C516.827 245.428 513.214 245.078 509.609 245.028C508.456 244.96 507.478 243.987 507.446 242.836ZM516.25 384.782C516.225 383.882 516.752 383.016 517.642 382.641C521.057 381.245 524.367 379.701 527.575 378.06C528.66 377.48 530.024 377.942 530.555 379.028C531.135 380.113 530.723 381.476 529.587 382.008C526.28 383.702 522.821 385.3 519.308 386.749C518.17 387.231 516.854 386.667 516.421 385.528C516.314 385.281 516.257 385.032 516.25 384.782ZM529.367 246.431C529.36 246.18 529.403 245.929 529.448 245.728C529.816 244.566 531.048 243.881 532.26 244.248C532.361 244.295 540.842 246.912 543.254 249.047L543.302 248.996L546.895 252.199C547.819 253.024 547.908 254.423 547.083 255.347C546.258 256.271 544.859 256.36 543.935 255.535L540.241 252.284C539.475 251.755 536.126 250.096 530.926 248.489C530.018 248.214 529.392 247.331 529.367 246.431ZM535.933 374.474C535.913 373.724 536.243 373.014 536.931 372.545C539.979 370.558 542.921 368.374 545.66 366.096C546.589 365.319 547.994 365.43 548.772 366.41C549.548 367.339 549.437 368.743 548.458 369.521C545.571 371.904 542.482 374.192 539.337 376.282C538.305 376.961 536.946 376.698 536.267 375.666C536.106 375.27 535.945 374.875 535.933 374.474ZM553.057 360.334C553.041 359.734 553.275 359.177 553.663 358.716C556.144 356.144 558.569 353.374 560.792 350.51C561.565 349.537 562.962 349.348 563.934 350.122C564.907 350.896 565.096 352.292 564.322 353.264C562.003 356.282 559.481 359.155 556.853 361.83C555.976 362.706 554.576 362.745 553.701 361.868C553.288 361.429 553.073 360.885 553.057 360.334ZM551.553 261.328C551.538 260.778 551.723 260.223 552.112 259.811C552.937 258.888 554.336 258.799 555.26 259.624L563.623 266.999C564.547 267.824 564.636 269.223 563.811 270.146C562.986 271.07 561.587 271.159 560.663 270.334L552.299 262.959C551.785 262.473 551.569 261.879 551.553 261.328ZM566.683 342.788C566.672 342.388 566.759 341.935 566.998 341.528C568.867 338.523 570.679 335.32 572.289 332.022C572.859 330.905 574.148 330.469 575.265 331.038C576.382 331.608 576.818 332.897 576.248 334.014C574.543 337.465 572.683 340.77 570.719 343.927C570.046 344.947 568.704 345.285 567.636 344.664C567.073 344.229 566.704 343.538 566.683 342.788ZM568.23 276.079C568.215 275.529 568.399 274.974 568.788 274.562C569.613 273.639 571.012 273.55 571.936 274.375L580.249 281.751C581.173 282.576 581.262 283.975 580.437 284.899C579.612 285.823 578.213 285.912 577.289 285.086L568.976 277.71C568.512 277.223 568.245 276.63 568.23 276.079ZM576.59 322.893C576.581 322.593 576.623 322.292 576.766 322.037C578.074 318.698 579.279 315.211 580.332 311.678C580.7 310.517 581.932 309.832 583.093 310.2C584.255 310.568 584.939 311.8 584.571 312.962C583.471 316.596 582.22 320.184 580.914 323.624C580.446 324.788 579.16 325.324 578.047 324.905C577.137 324.58 576.615 323.793 576.59 322.893ZM583.005 301.644C583 301.444 582.996 301.294 583.04 301.092C583.751 297.869 584.457 294.446 585.012 291.028C584.945 290.429 585.129 289.823 585.516 289.362C586.341 288.438 587.638 288.252 588.561 289.077L589.485 289.902L589.474 291.304C588.876 294.974 588.176 298.597 587.371 302.073C587.105 303.282 585.924 304.015 584.715 303.748C583.758 303.525 583.033 302.644 583.005 301.644Z" fill="white"/>
<path d="M558.423 268.995C558.423 268.995 512.758 250.296 495.433 282.359C478.106 314.373 468.565 351.024 452.137 355.986C452.137 355.986 546.757 374.924 570.093 281.883L558.423 268.995Z" fill="url(#paint2_linear_34_1952)"/>
<path d="M592.529 170.85C592.529 170.85 556.979 137.956 541.462 143.292C526.688 148.358 449.682 226.426 442.187 234.042C441.846 234.402 441.86 234.902 442.172 235.294C444.757 238.275 448.655 239.868 452.599 239.508C471.672 237.876 528.682 232.586 545.4 225.464C565.529 216.796 592.529 170.85 592.529 170.85Z" fill="url(#paint3_linear_34_1952)"/>
<path d="M474.077 210.983C474.069 210.683 474.161 210.38 474.405 210.173C474.844 209.76 517.768 167.725 536.954 150.375C540.372 147.277 545.305 146.489 549.511 148.374C557.619 151.952 569.497 157.927 580.124 165.74C580.635 166.126 580.705 166.825 580.367 167.285C579.981 167.796 579.282 167.865 578.823 167.528C567.787 159.427 555.154 153.322 548.617 150.4C545.221 148.893 541.236 149.555 538.502 152.033C519.365 169.382 476.49 211.366 476.051 211.779C475.612 212.191 474.912 212.211 474.5 211.772C474.193 211.53 474.084 211.233 474.077 210.983Z" fill="white"/>
<path d="M666.313 255.783C666.313 255.783 693.897 295.605 686.496 310.225C679.426 324.136 591.356 389.499 582.774 395.843C582.381 396.105 581.879 396.068 581.568 395.677C578.983 392.696 577.968 388.62 578.813 384.793C583.097 366.105 596.313 310.433 605.689 294.856C617.029 276.123 666.313 255.783 666.313 255.783Z" fill="url(#paint4_linear_34_1952)"/>
<path d="M609.131 366.382C609.121 366.031 609.261 365.677 609.556 365.469C610.046 365.105 657.625 328.496 677.434 311.929C680.321 309.546 681.466 305.711 680.465 302.135C678.521 295.232 674.246 281.888 667.755 269.856C667.44 269.315 667.672 268.658 668.214 268.342C668.755 268.027 669.413 268.259 669.728 268.801C676.324 281.029 680.655 294.572 682.65 301.524C683.924 305.943 682.455 310.688 678.883 313.64C659.024 330.209 611.395 366.819 610.906 367.233C610.416 367.597 609.713 367.516 609.349 367.026C609.193 366.83 609.138 366.632 609.131 366.382Z" fill="white"/>
<path d="M715.747 64.6195C694.03 73.7823 671.223 86.9293 649.376 105.805C581.538 164.399 541.871 219.156 531.002 235.024C529.029 237.881 528.832 241.591 530.42 244.699C542.862 269.128 560.191 289.366 582.359 305.416C586.548 308.452 592.064 308.849 596.654 306.519C616.593 296.405 674.126 264.975 738.672 208.574C760.218 189.707 776.362 169.138 788.467 149.081C768.688 107.39 735.477 79.3856 715.747 64.6195Z" fill="url(#paint5_linear_34_1952)"/>
<path d="M788.417 149.083C815.112 104.797 821.962 63.1654 823.574 49.1567C823.897 46.395 821.779 44.0015 819.024 43.928C804.95 43.5689 763.037 44.5851 715.647 64.6223C735.477 79.3857 768.688 107.39 788.417 149.083Z" fill="url(#paint6_linear_34_1952)"/>
<path d="M727.97 187.301C710.475 202.502 683.018 199.613 666.678 180.798C650.339 161.984 651.274 134.431 668.817 119.178C686.312 103.977 713.77 106.866 730.109 125.681C746.448 144.495 745.514 172.098 727.97 187.301Z" fill="url(#paint7_linear_34_1952)"/>
<path d="M723.678 180.564C709.702 192.714 687.865 190.369 674.837 175.416C661.807 160.414 662.598 138.47 676.524 126.321C690.5 114.17 712.336 116.516 725.365 131.468C738.395 146.471 737.655 168.463 723.678 180.564Z" fill="url(#paint8_linear_34_1952)"/>
<path d="M688.297 130.348C688.285 129.898 688.524 129.491 688.968 129.278C699.844 124.421 713.095 127.606 721.214 136.989C723.282 139.334 724.907 141.991 726.087 144.811C726.352 145.355 726.07 146.013 725.477 146.28C724.932 146.495 724.275 146.263 724.008 145.67C722.884 143.049 721.366 140.639 719.503 138.438C712.005 129.788 699.812 126.874 689.825 131.306C689.282 131.571 688.624 131.289 688.358 130.746C688.356 130.646 688.301 130.498 688.297 130.348Z" fill="white"/>
<path d="M654.216 231.144C642.633 241.176 624.512 239.278 613.707 226.866C602.901 214.455 603.545 196.219 615.127 186.187C626.71 176.155 644.83 178.053 655.636 190.465C666.392 202.878 665.747 221.064 654.216 231.144Z" fill="url(#paint9_linear_34_1952)"/>
<path d="M651.338 226.67C642.102 234.685 627.695 233.134 619.062 223.264C610.477 213.343 610.975 198.865 620.212 190.85C629.448 182.835 643.856 184.386 652.488 194.256C661.073 204.177 660.575 218.655 651.338 226.67Z" fill="url(#paint10_linear_34_1952)"/>
<path d="M627.594 193.547C627.582 193.097 627.82 192.69 628.265 192.478C635.582 189.221 644.549 191.324 650.031 197.678C651.426 199.24 652.528 201.062 653.331 202.941C653.596 203.484 653.314 204.143 652.721 204.41C652.176 204.625 651.519 204.393 651.252 203.8C650.555 202.117 649.56 200.544 648.32 199.127C643.46 193.556 635.6 191.673 629.122 194.506C628.579 194.771 627.921 194.489 627.655 193.946C627.651 193.796 627.598 193.697 627.594 193.547Z" fill="white"/>
<defs>
<linearGradient id="paint0_linear_34_1952" x1="14.9974" y1="275.385" x2="823.416" y2="275.385" gradientUnits="userSpaceOnUse">
<stop stop-color="#6AA0FF"/>
<stop offset="1" stop-color="#F895E7"/>
</linearGradient>
<linearGradient id="paint1_linear_34_1952" x1="52.8108" y1="278.272" x2="785.602" y2="278.272" gradientUnits="userSpaceOnUse">
<stop stop-color="#B37CFF"/>
<stop offset="1" stop-color="#F895E7"/>
</linearGradient>
<linearGradient id="paint2_linear_34_1952" x1="441.592" y1="360.029" x2="556.143" y2="279.23" gradientUnits="userSpaceOnUse">
<stop stop-color="#E67D59"/>
<stop offset="1" stop-color="#F8DB44"/>
</linearGradient>
<linearGradient id="paint3_linear_34_1952" x1="422.888" y1="216.523" x2="540.406" y2="185.361" gradientUnits="userSpaceOnUse">
<stop stop-color="#E0625E"/>
<stop offset="1" stop-color="#F8DB44"/>
<stop offset="1" stop-color="#EED1F9"/>
</linearGradient>
<linearGradient id="paint4_linear_34_1952" x1="602.577" y1="431.081" x2="654.302" y2="275.677" gradientUnits="userSpaceOnUse">
<stop stop-color="#E5775A"/>
<stop offset="1" stop-color="#F8DB44"/>
</linearGradient>
<linearGradient id="paint5_linear_34_1952" x1="729.891" y1="181.302" x2="100.237" y2="222.507" gradientUnits="userSpaceOnUse">
<stop stop-color="#2A3780"/>
<stop offset="1" stop-color="#201D3F"/>
</linearGradient>
<linearGradient id="paint6_linear_34_1952" x1="734" y1="125" x2="796.5" y2="58" gradientUnits="userSpaceOnUse">
<stop stop-color="#EA9155"/>
<stop offset="1" stop-color="#F8DB44"/>
</linearGradient>
<linearGradient id="paint7_linear_34_1952" x1="697.178" y1="109.397" x2="699.62" y2="197.134" gradientUnits="userSpaceOnUse">
<stop stop-color="#6CC9F0"/>
<stop offset="1" stop-color="#3C519F"/>
</linearGradient>
<linearGradient id="paint8_linear_34_1952" x1="676.544" y1="126.323" x2="723.685" y2="180.571" gradientUnits="userSpaceOnUse">
<stop stop-color="#2A3780"/>
<stop offset="1" stop-color="#201D3F"/>
</linearGradient>
<linearGradient id="paint9_linear_34_1952" x1="633.85" y1="179.672" x2="635.463" y2="237.634" gradientUnits="userSpaceOnUse">
<stop stop-color="#6CC9F0"/>
<stop offset="1" stop-color="#3C519F"/>
</linearGradient>
<linearGradient id="paint10_linear_34_1952" x1="620.218" y1="190.854" x2="651.361" y2="226.692" gradientUnits="userSpaceOnUse">
<stop stop-color="#2A3780"/>
<stop offset="1" stop-color="#201D3F"/>
</linearGradient>
</defs>
</svg>
