<?xml version="1.0" encoding="utf-8"?><svg viewBox="0 0 502.66 502.66" xmlns="http://www.w3.org/2000/svg" xmlns:xlink="http://www.w3.org/1999/xlink"><style>:root>svg{display:none}:root>svg:target{display:block}</style><svg viewBox="0 0 149 40" id="Logo" xmlns="http://www.w3.org/2000/svg"><path d="M60.14 30.922L58.673 27.8H51.22l-1.497 3.122h-4.395l9.587-19.43 9.62 19.43H60.14zm-2.836-6.37l-2.389-5.161-2.389 5.16h4.778zm14.716-8.506h3.25v3.504h-3.25v11.404h-3.822V19.55h-2.102v-3.504h2.102v-1.115c0-2.898 2.103-5 5.033-5 1.465 0 2.74.382 3.663 1.05l-1.752 2.995c-.605-.478-1.019-.574-1.592-.574-.988 0-1.561.701-1.561 1.593v1.051h.032zm16.692 14.016c-.924.732-2.198 1.115-3.759 1.115-3.121 0-5-1.88-5-4.97l.031-6.689H77.85v-3.504h2.134v-2.42l3.823-.701v3.121h3.95v3.504h-3.95v6.435c0 1.083.573 1.72 1.592 1.72.733 0 1.147-.191 1.625-.574l1.688 2.963zm12.264-14.048v3.855c-.478-.064-.956-.128-1.402-.128-2.42 0-3.631 1.465-3.631 3.663v7.55h-3.79V16.078h3.184l.319 1.911c1.115-1.242 2.612-2.038 4.428-2.038.286-.032.573 0 .892.063zm3.376 10.193V10.186h3.822l-.031 15.863c0 1.179.318 1.72 1.242 1.72.478 0 .828-.159 1.338-.446l1.338 2.93c-.86.67-2.103.925-3.345.925-2.835 0-4.364-1.752-4.364-4.97zm10.575-14.397c0-1.21.988-2.23 2.23-2.23s2.23.987 2.23 2.23c0 1.21-.988 2.198-2.23 2.198-1.242-.032-2.23-1.02-2.23-2.198zm.351 19.112V16.046h3.79v14.876h-3.79zm13.123-14.876h3.249v3.504h-3.249v11.404h-3.822V19.55h-2.102v-3.504h2.102v-1.115c0-2.898 2.102-5 5.033-5 1.465 0 2.739.382 3.663 1.05l-1.752 2.995c-.605-.478-1.019-.574-1.593-.574-.987 0-1.56.701-1.56 1.593v1.051h.031zm20.323 8.664h-11.021c.477 1.912 2.102 3.122 4.395 3.122 1.466 0 2.74-.446 3.664-1.338l2.229 2.485c-1.72 1.56-3.504 2.23-5.924 2.23-4.779 0-8.123-3.122-8.123-7.582s3.344-7.804 7.772-7.804c4.141 0 7.135 2.994 7.135 7.167-.032.924-.063 1.434-.127 1.72zm-3.536-2.867c-.064-1.592-1.497-2.707-3.504-2.707-1.975 0-3.376 1.02-3.886 2.707h7.39zM34.179 5.853c-7.804-7.804-20.514-7.804-28.318 0A19.881 19.881 0 000 19.996c0 5.351 2.07 10.384 5.861 14.143A19.894 19.894 0 0020.004 40c5.128 0 10.257-1.943 14.143-5.861 7.868-7.772 7.868-20.482.032-28.286zm1.529 19.049c.064-.128.127-.224.223-.32-.032.128-.064.224-.096.351l-.127-.032zM31.726 8.337c4.364 4.364 5.766 10.575 4.205 16.117-.828.064-2.93-.414-4.81-1.114-.924-.574-5.288-3.186-9.27-3.345-1.37-.064-2.484.064-3.44.35a8.289 8.289 0 00-.318-1.879c-.35-1.338-.924-2.516-1.497-3.631-.797-1.561-1.466-2.93-1.466-4.65 0-2.199.637-4.843 1.052-6.212 1.274-.319 2.58-.446 3.854-.446a16.333 16.333 0 0111.69 4.81zm-23.38 0a17.393 17.393 0 013.822-2.867c-.318 1.433-.573 3.121-.573 4.714 0 2.548.987 4.492 1.847 6.212.51.987.956 1.943 1.242 2.93.542 2.039 0 3.504-.159 3.854a.696.696 0 01-.127.16 4.789 4.789 0 00-.319-.542c-1.943-3.185-2.74-4.523-6.084-6.785-1.688-1.178-2.198-3.249-2.357-4.172.765-1.243 1.656-2.453 2.708-3.504zm-4.81 11.69c0-1.115.127-2.23.318-3.313.542.797 1.243 1.593 2.198 2.23 2.708 1.847 3.217 2.676 5.065 5.733.669 1.115.892 1.944.924 2.485-1.243 2.42-1.306 4.842-.988 6.753-.955-.605-1.847-1.338-2.707-2.166-3.122-3.185-4.81-7.326-4.81-11.722zm11.722 15.8c-.382-.893-1.338-3.505-.478-6.149 2.007 1.18 4.746 2.294 7.167 2.963 1.816.51 3.408 1.624 4.555 2.58-3.6 1.497-7.581 1.72-11.244.605zm16.468-4.142a16.875 16.875 0 01-2.007 1.72c-1.306-1.274-3.79-3.28-6.816-4.14-2.772-.765-5.097-1.848-6.435-2.676 1.784-2.772 2.74-3.186 5.288-3.09 3.408.127 7.613 2.867 7.677 2.899l.159.095.16.064c1.56.605 3.28 1.147 4.84 1.338-.795 1.37-1.72 2.643-2.866 3.79z"/><path d="M26.98 17.097l.16.287c.987 1.083 3.184 2.325 6.53-2.134l.19-.223-.255-.128c-5.192-2.07-6.402.16-6.689 1.561l.032.35a.4.4 0 00.032.287zm-6.403-.891l.478.254c.128.064.255.096.414.128l.51.032c2.23-.446 5.702-2.39 2.453-10.512l-.128-.414-.382.255c-7.008 5.255-5.033 8.727-3.345 10.256z"/></svg><svg viewBox="0 0 18 22" id="Vector" xmlns="http://www.w3.org/2000/svg"><path d="M9 21s8-4 8-10V4L9 1 1 4v7c0 6 8 10 8 10z"/></svg><svg viewBox="0 0 24 24" id="face" xmlns="http://www.w3.org/2000/svg"><path d="M18 2h-3a5 5 0 00-5 5v3H7v4h3v8h4v-8h3l1-4h-4V7a1 1 0 011-1h3V2z"/></svg><svg viewBox="0 0 502.664 502.664" id="icon" xmlns="http://www.w3.org/2000/svg"><path d="M153.821 358.226L0 274.337v-46.463l153.821-83.414v54.574L46.636 250.523l107.185 53.431v54.272zm26.273 29.358L282.103 115.08h32.227L212.084 387.584h-31.99zm168.749-29.358v-54.272l107.164-52.999-107.164-52.59v-53.927l153.821 83.522v46.183l-153.821 84.083z"/></svg><svg viewBox="0 0 24 24" id="insta" xmlns="http://www.w3.org/2000/svg"><path d="M17 2H7a5 5 0 00-5 5v10a5 5 0 005 5h10a5 5 0 005-5V7a5 5 0 00-5-5z"/><path d="M16 11.37a4 4 0 11-7.913 1.173A4 4 0 0116 11.37zm1.5-4.87h.01"/></svg><svg viewBox="0 0 238 290" id="lock" xmlns="http://www.w3.org/2000/svg"><path d="M229.583 132.916H60.417c-13.347 0-24.167 10.82-24.167 24.167v84.583c0 13.347 10.82 24.167 24.167 24.167h169.166c13.347 0 24.167-10.82 24.167-24.167v-84.583c0-13.347-10.82-24.167-24.167-24.167z"/><path d="M84.584 132.916V84.583a60.418 60.418 0 01120.833 0v48.333"/></svg><svg viewBox="0 0 164 165" id="lockupper" xmlns="http://www.w3.org/2000/svg"><g filter="url(#ga)"><circle cx="82" cy="63" r="42"/></g><path d="M89.583 61.917H74.417c-1.197 0-2.167.97-2.167 2.166v7.584c0 1.196.97 2.166 2.167 2.166h15.166c1.197 0 2.167-.97 2.167-2.166v-7.584c0-1.196-.97-2.166-2.167-2.166zm-13 0v-4.334a5.417 5.417 0 0110.834 0v4.334"/><defs><filter id="ga" x="0" y="0" width="164" height="165" filterUnits="userSpaceOnUse" color-interpolation-filters="sRGB"><feFlood flood-opacity="0" result="BackgroundImageFix"/><feColorMatrix in="SourceAlpha" values="0 0 0 0 0 0 0 0 0 0 0 0 0 0 0 0 0 0 127 0" result="hardAlpha"/><feOffset dy="3"/><feGaussianBlur stdDeviation="12"/><feColorMatrix values="0 0 0 0 0 0 0 0 0 0 0 0 0 0 0 0 0 0 0.07 0"/><feBlend in2="BackgroundImageFix" result="effect1_dropShadow_38_719"/><feColorMatrix in="SourceAlpha" values="0 0 0 0 0 0 0 0 0 0 0 0 0 0 0 0 0 0 127 0" result="hardAlpha"/><feOffset dy="20"/><feGaussianBlur stdDeviation="20"/><feColorMatrix values="0 0 0 0 0 0 0 0 0 0 0 0 0 0 0 0 0 0 0.06 0"/><feBlend in2="effect1_dropShadow_38_719" result="effect2_dropShadow_38_719"/><feBlend in="SourceGraphic" in2="effect2_dropShadow_38_719" result="shape"/></filter></defs></svg><svg viewBox="0 0 70 70" id="logo1" xmlns="http://www.w3.org/2000/svg"><circle cx="35" cy="35" r="35"/><path d="M35 45s8-4 8-10v-7l-8-3-8 3v7c0 6 8 10 8 10z"/></svg><svg viewBox="0 0 70 70" id="logo2" xmlns="http://www.w3.org/2000/svg"><circle cx="35" cy="35" r="35"/><g clip-path="url(#ia)" stroke-width="2" stroke-linecap="round" stroke-linejoin="round"><path d="M44 31v13H26V31m20-5H24v5h22v-5zm-13 9h4"/></g><defs><clipPath id="ia"><path transform="translate(23 23)" d="M0 0h24v24H0z"/></clipPath></defs></svg><svg viewBox="0 0 70 70" id="logo3" xmlns="http://www.w3.org/2000/svg"><circle cx="35" cy="35" r="35"/><path d="M27 27h16c1.1 0 2 .9 2 2v12c0 1.1-.9 2-2 2H27c-1.1 0-2-.9-2-2V29c0-1.1.9-2 2-2z"/><path d="M45 29l-10 7-10-7"/></svg><svg viewBox="0 0 70 70" id="logo4" xmlns="http://www.w3.org/2000/svg"><circle cx="35" cy="35" r="35"/><path d="M25 26h6a4 4 0 014 4v14a3 3 0 00-3-3h-7V26zm20 0h-6a4 4 0 00-4 4v14a3 3 0 013-3h7V26z"/></svg><svg viewBox="0 0 70 70" id="logo5" xmlns="http://www.w3.org/2000/svg"><circle cx="35" cy="35" r="35"/><path d="M40 44v-2a4 4 0 00-4-4h-8a4 4 0 00-4 4v2m8-10a4 4 0 100-8 4 4 0 000 8zm14 10v-2a4 4 0 00-3-3.87m-4-12a4 4 0 010 7.75"/></svg><svg viewBox="0 0 30 30" id="ok" xmlns="http://www.w3.org/2000/svg"><circle cx="15" cy="15" r="15"/><path d="M21 10.5l-8.25 8.25L9 15"/></svg><svg viewBox="0 0 217 268" id="shield" xmlns="http://www.w3.org/2000/svg"><path d="M83 245.667S172.333 201 172.333 134V55.833L83 22.333l-89.333 33.5V134C-6.333 201 83 245.667 83 245.667z"/></svg><svg viewBox="0 0 24 24" id="tw" xmlns="http://www.w3.org/2000/svg"><path d="M23 3a10.9 10.9 0 01-3.14 1.53 4.48 4.48 0 00-7.86 3v1A10.66 10.66 0 013 4s-4 9 5 13a11.64 11.64 0 01-7 2c9 5 20 0 20-11.5 0-.279-.028-.557-.08-.83A7.72 7.72 0 0023 3z"/></svg></svg>