<svg width="1007" height="717" viewBox="0 0 1007 717" fill="none" xmlns="http://www.w3.org/2000/svg">
<path opacity="0.5" d="M299.397 106.116C253.039 135.423 220.311 112.748 192.245 143.848C104.82 240.643 215.559 277.3 164.18 292.088C108.317 308.22 143.108 379.293 174.491 399.907C205.964 420.431 229.278 432.799 184.624 453.861C139.97 474.833 132.169 498.136 150.909 535.958C169.649 573.779 205.157 585.699 352.569 587.94C500.071 590.181 785.57 585.431 863.49 563.921C941.41 542.411 884.562 487.022 917.38 445.705C950.108 404.388 956.564 380.1 906.44 339.948C856.317 299.796 884.831 258.299 899.895 229.082C914.959 199.774 926.526 146.716 866.09 131.57C805.655 116.423 735.356 176.83 704.959 146.178C674.562 115.437 687.923 74.7472 621.569 85.0541C555.216 95.2714 532.889 174.679 474.964 170.288C417.04 165.717 397.672 44.0059 299.397 106.116Z" fill="url(#paint0_linear_29_66)"/>
<path opacity="0.5" d="M321.814 130.494C279.76 157.023 250.08 136.499 224.705 164.641C145.439 252.384 245.866 285.635 199.239 299.079C148.578 313.688 180.14 378.128 208.565 396.77C237.079 415.412 258.24 426.615 217.8 445.616C177.271 464.706 170.277 485.768 187.224 520.004C204.171 554.241 236.361 565.086 370.054 567.147C503.747 569.208 762.615 564.906 833.183 545.368C903.84 525.83 852.282 475.64 882.051 438.177C911.731 400.713 917.559 378.666 872.098 342.278C826.637 305.89 852.551 268.248 866.18 241.719C879.809 215.19 890.3 167.061 835.514 153.348C780.728 139.636 716.975 194.486 689.447 166.703C661.919 138.829 674.024 101.993 613.858 111.225C553.692 120.546 533.427 192.425 480.972 188.481C428.427 184.538 410.853 74.2095 321.814 130.494Z" fill="url(#paint1_linear_29_66)"/>
<path opacity="0.82" d="M253.129 485.767C254.653 487.112 253.219 489.532 251.425 488.815C238.424 483.975 212.869 469.276 202.198 426.615C187.672 368.269 164.897 355.991 150.281 345.236C135.666 334.481 120.064 307.324 150.281 293.343C180.499 279.361 187.224 320.23 184.803 339.231C182.292 358.231 201.122 355.184 214.752 354.377C228.381 353.571 239.141 371.316 225.332 398.025C212.151 423.837 206.592 444.719 253.129 485.767Z" fill="url(#paint2_linear_29_66)"/>
<path opacity="0.82" d="M288.816 473.758C288.816 473.758 222.822 420.969 273.394 356.976C287.83 338.693 328.18 316.287 320.289 294.508C309.26 264.214 288.009 239.299 316.434 225.676C344.858 212.053 339.747 255.879 336.967 274.073C334.098 292.267 331.049 306.159 343.603 320.947C356.246 335.825 342.706 349.179 325.4 353.66C308.095 358.052 231.071 393.274 294.555 473.758H288.816Z" fill="url(#paint3_linear_29_66)"/>
<path opacity="0.82" d="M276.801 473.758C276.801 473.758 241.831 459.059 241.921 414.247C242.01 369.434 248.556 358.679 224.077 336.452C199.598 314.136 197.715 303.649 222.911 281.333C248.108 259.106 227.933 247.275 217.98 233.652C208.027 220.029 181.127 168.495 228.022 145.73C274.918 122.966 302.804 179.877 290.072 226.841C277.339 273.894 291.865 279.809 295.99 291.102C300.114 302.305 298.052 315.39 278.774 335.466C259.495 355.542 221.746 434.681 283.347 473.668H276.801V473.758Z" fill="url(#paint4_linear_29_66)"/>
<path opacity="0.65" d="M240.307 180.325C240.486 180.684 240.845 181.222 241.203 181.759L242.19 183.283C242.817 184.269 243.535 185.255 244.073 186.33C245.328 188.392 246.404 190.543 247.39 192.694C249.453 197.085 251.156 201.567 252.591 206.137C254.026 210.708 255.102 215.369 256.088 220.119C256.985 224.869 257.702 229.619 258.24 234.369C259.226 243.87 259.585 253.549 259.406 263.139C259.226 272.729 258.509 282.319 257.433 291.819L254.295 320.23C253.219 329.73 252.322 339.141 251.336 348.641C250.439 358.142 249.542 367.552 248.825 377.052C248.466 381.803 248.108 386.553 247.839 391.303C247.57 396.053 247.39 400.803 247.032 405.553C247.032 405.553 247.032 405.643 246.942 405.643C246.942 405.643 246.852 405.643 246.852 405.553C246.763 396.053 246.763 386.463 246.942 376.963C247.211 367.463 247.749 357.873 248.466 348.372C249.094 338.872 249.991 329.372 250.798 319.872C251.694 310.371 252.681 300.871 253.667 291.461C255.729 272.639 256.536 253.639 255.012 234.817C254.205 225.407 252.77 215.996 250.349 206.944C249.184 202.373 247.749 197.892 245.956 193.5C245.059 191.349 244.073 189.198 242.997 187.047C242.459 185.972 241.921 184.986 241.293 183.91L240.396 182.387C240.127 181.849 239.769 181.401 239.5 180.684C239.41 180.505 239.5 180.325 239.679 180.236C239.858 180.146 240.038 180.236 240.127 180.415L240.307 180.325Z" fill="white"/>
<path opacity="0.65" d="M318.406 243.78C320.379 247.455 321.993 251.309 323.517 255.162C325.042 259.016 326.297 262.96 327.463 266.993C329.704 275.059 331.229 283.305 331.318 291.729C331.408 295.942 331.139 300.154 330.511 304.367C329.794 308.579 328.628 312.702 326.925 316.645C325.311 320.589 322.979 324.263 320.289 327.579C318.944 329.282 317.42 330.716 315.896 332.329C314.282 333.674 312.578 335.198 310.964 336.363C304.329 341.382 297.693 346.311 291.237 351.33C284.781 356.349 278.505 361.637 273.214 367.731C270.614 370.779 268.283 374.095 266.489 377.68C264.606 381.265 263.351 385.029 262.365 388.973C260.482 396.86 260.392 405.105 260.84 413.351C260.84 413.709 260.571 413.978 260.302 413.978C259.944 413.978 259.675 413.799 259.675 413.44C259.226 409.317 258.868 405.195 258.957 400.982C258.957 396.77 259.316 392.647 260.033 388.435C260.84 384.312 262.096 380.189 263.979 376.335C265.772 372.482 268.193 368.897 270.883 365.67C276.263 359.127 282.719 353.66 289.175 348.462C295.631 343.264 302.356 338.334 308.902 333.405C310.605 332.15 312.04 330.896 313.564 329.641C314.909 328.207 316.434 326.862 317.599 325.339C320.11 322.292 322.262 318.886 323.876 315.301C325.49 311.626 326.656 307.862 327.373 303.918C328.09 299.975 328.359 295.942 328.449 291.909C328.539 287.876 328.18 283.753 327.642 279.72C327.104 275.687 326.387 271.653 325.4 267.62C323.607 259.644 321.007 251.757 317.779 244.228C317.689 244.049 317.779 243.78 318.048 243.69C318.048 243.511 318.317 243.601 318.406 243.78Z" fill="white"/>
<path opacity="0.65" d="M152.971 316.645C153.868 319.961 155.213 323.188 156.558 326.325C157.993 329.462 159.517 332.598 161.31 335.556C164.807 341.561 168.932 347.118 173.595 352.226L177.181 355.991L180.947 359.486C183.637 361.906 186.148 364.774 188.121 367.821C192.156 373.915 194.666 380.817 196.639 387.628C198.612 394.44 200.136 401.341 201.66 408.242C203.185 415.053 204.888 421.865 206.951 428.587C208.027 431.903 209.103 435.219 210.358 438.446C210.986 440.059 211.703 441.672 212.331 443.285C213.048 444.898 213.765 446.512 214.483 448.035C217.531 454.309 221.208 460.314 225.332 465.96V466.05H225.243C216.097 455.295 209.372 442.568 204.709 429.214C202.378 422.492 200.495 415.681 198.701 408.869C196.908 402.058 195.294 395.246 193.232 388.614C192.156 385.298 191.08 382.071 189.735 378.845C188.39 375.708 186.776 372.661 184.893 369.882C183.01 367.104 180.768 364.594 178.257 362.354L174.312 358.679L170.636 354.736C169.47 353.391 168.304 351.957 167.139 350.613C166.063 349.179 164.987 347.745 163.911 346.311C161.938 343.353 159.965 340.306 158.351 337.08C156.737 333.943 155.213 330.627 154.047 327.221C153.42 325.518 152.882 323.815 152.433 322.112C151.985 320.409 151.626 318.617 151.357 316.824C151.268 316.466 151.537 316.107 151.985 316.018C152.523 316.018 152.882 316.287 152.971 316.645Z" fill="white"/>
<path d="M763.781 330.537L791.846 311.268C794.536 309.385 797.764 308.4 801.082 308.489L807.269 308.579C807.269 308.579 837.487 500.645 833.81 582.114C833.452 589.284 831.748 611.063 831.748 611.063C831.748 611.063 828.072 611.511 824.037 611.87C819.912 612.228 815.787 611.332 812.111 609.271L771.94 586.685L763.781 330.537Z" fill="url(#paint5_linear_29_66)"/>
<path d="M907.247 310.82L802.875 308.579C799.199 308.489 796.24 311.537 796.509 315.211L816.684 603.266C816.953 607.389 819.912 610.884 823.947 611.78L918.456 607.747C921.146 607.657 923.298 605.506 923.477 602.818C925.091 572.973 932.713 409.049 913.972 316.466C913.345 313.239 910.565 310.909 907.247 310.82Z" fill="url(#paint6_linear_29_66)"/>
<path opacity="0.37" d="M815.429 337.169L815.518 339.589C815.608 341.382 817.043 342.726 818.836 342.816L899.805 344.16C901.688 344.16 903.212 342.636 903.212 340.844V336.363C903.212 334.48 901.688 332.957 899.805 333.046L818.746 333.763C816.863 333.584 815.339 335.197 815.429 337.169Z" fill="white"/>
<path opacity="0.37" d="M818.657 373.288L819.195 378.486C819.374 380.189 820.809 381.534 822.602 381.444L901.06 380.189C902.854 380.189 904.378 378.666 904.378 376.873V371.944C904.378 370.062 902.854 368.538 900.971 368.628L821.885 369.613C819.912 369.613 818.388 371.316 818.657 373.288Z" fill="white"/>
<path opacity="0.37" d="M820.002 410.572L820.181 411.558C820.45 413.261 821.885 414.516 823.588 414.426L901.15 412.544C903.212 412.454 904.737 410.662 904.378 408.6L903.84 405.105C903.571 403.402 902.047 402.237 900.343 402.327L823.23 406.629C821.167 406.897 819.733 408.69 820.002 410.572Z" fill="white"/>
<path opacity="0.37" d="M823.319 444.54C823.499 446.243 824.933 447.498 826.637 447.498H903.84C905.723 447.498 907.158 445.974 907.158 444.182V442.568C907.158 440.686 905.633 439.162 903.75 439.252L826.547 440.865C824.575 440.776 823.05 442.568 823.319 444.54Z" fill="white"/>
<path opacity="0.37" d="M829.058 480.121L837.397 592.78C837.576 594.662 839.101 596.006 840.984 595.917L905.633 591.346C907.427 591.256 908.772 589.733 908.772 587.94L907.247 479.852C907.247 478.06 905.723 476.536 903.93 476.536H832.465C830.493 476.536 828.968 478.149 829.058 480.121Z" fill="white"/>
<path opacity="0.82" d="M898.46 572.525C897.743 572.525 897.115 571.897 897.115 571.18V494.103C897.115 492.4 896.487 490.786 895.232 489.621C894.066 488.456 892.452 487.739 890.749 487.739C844.66 487.918 843.763 487.739 843.405 487.65C842.687 487.47 842.239 486.753 842.418 486.036C842.598 485.319 843.225 484.871 843.943 485.05C845.288 485.23 862.773 485.23 890.749 485.05C893.17 485.05 895.411 485.947 897.115 487.65C898.819 489.352 899.805 491.593 899.805 494.013V571.091C899.805 571.987 899.267 572.525 898.46 572.525Z" fill="white"/>
<path opacity="0.82" d="M904.916 467.842H829.865C826.637 467.842 823.857 465.423 823.409 462.196C816.056 406.897 811.842 364.415 809.959 328.476C809.869 326.683 810.497 324.891 811.842 323.636C813.097 322.381 814.891 321.664 816.684 321.664L902.226 323.815C905.723 323.905 908.503 326.683 908.592 330.178L911.372 461.21C911.372 463.003 910.744 464.616 909.489 465.871C908.413 467.125 906.709 467.842 904.916 467.842ZM816.594 324.263C815.518 324.263 814.622 324.711 813.815 325.428C813.097 326.235 812.649 327.221 812.739 328.296C814.532 364.146 818.836 406.629 826.099 461.748C826.368 463.63 827.982 465.064 829.865 465.064H904.916C905.992 465.064 906.889 464.616 907.696 463.899C908.413 463.182 908.772 462.196 908.772 461.121L905.992 330.089C905.992 328.027 904.288 326.414 902.226 326.325L816.684 324.174C816.594 324.263 816.594 324.263 816.594 324.263Z" fill="white"/>
<path opacity="0.82" d="M903.302 357.156C903.212 357.156 903.302 357.156 903.302 357.156L815.967 355.811C815.249 355.811 814.622 355.184 814.622 354.467C814.622 353.75 815.249 353.122 815.967 353.122L903.302 354.467C904.019 354.467 904.647 355.094 904.647 355.811C904.647 356.618 904.019 357.156 903.302 357.156Z" fill="white"/>
<path opacity="0.82" d="M903.302 395.694H823.319C822.602 395.694 821.974 395.067 821.974 394.35C821.974 393.633 822.602 393.006 823.319 393.006H903.302C904.019 393.006 904.647 393.633 904.647 394.35C904.647 395.157 904.019 395.694 903.302 395.694Z" fill="white"/>
<path opacity="0.82" d="M849.143 430.29C835.604 430.29 825.561 430.2 825.023 430.021C824.306 429.842 823.947 429.035 824.126 428.318C824.306 427.691 825.023 427.242 825.651 427.422C828.072 427.691 873.981 427.511 904.378 427.422C905.095 427.422 905.723 428.049 905.723 428.766C905.723 429.483 905.095 430.11 904.378 430.11C888.238 430.2 865.911 430.29 849.143 430.29Z" fill="white"/>
<path d="M354.632 336.811L326.566 317.541C323.876 315.659 320.648 314.673 317.33 314.763L311.143 314.853C311.143 314.853 280.926 506.919 284.602 588.388C284.961 595.558 286.664 617.337 286.664 617.337C286.664 617.337 290.341 617.785 294.376 618.144C298.5 618.502 302.625 617.606 306.301 615.544L346.472 592.959L354.632 336.811Z" fill="url(#paint7_linear_29_66)"/>
<path d="M211.165 317.093L315.537 314.853C319.213 314.763 322.172 317.81 321.903 321.485L301.728 609.54C301.459 613.662 298.5 617.158 294.465 618.054L199.957 614.021C197.267 613.931 195.115 611.78 194.935 609.092C193.321 579.246 185.7 415.322 204.44 322.74C205.068 319.513 207.847 317.183 211.165 317.093Z" fill="url(#paint8_linear_29_66)"/>
<path opacity="0.37" d="M302.984 343.443L302.894 345.863C302.804 347.655 301.37 349 299.576 349.089L218.607 350.434C216.724 350.434 215.2 348.91 215.2 347.118V342.636C215.2 340.754 216.724 339.231 218.607 339.32L299.666 340.037C301.549 339.858 303.073 341.471 302.984 343.443Z" fill="white"/>
<path opacity="0.37" d="M299.756 379.562L299.218 384.76C299.038 386.463 297.604 387.807 295.81 387.718L217.352 386.463C215.559 386.463 214.034 384.939 214.034 383.147V378.217C214.034 376.335 215.559 374.812 217.442 374.901L296.528 375.887C298.5 375.887 300.025 377.59 299.756 379.562Z" fill="white"/>
<path opacity="0.37" d="M298.411 416.846L298.231 417.832C297.962 419.535 296.528 420.789 294.824 420.7L217.262 418.818C215.2 418.728 213.676 416.935 214.034 414.874L214.572 411.379C214.841 409.676 216.366 408.511 218.069 408.6L295.183 412.902C297.245 413.171 298.68 414.964 298.411 416.846Z" fill="white"/>
<path opacity="0.37" d="M295.093 450.814C294.914 452.517 293.479 453.771 291.775 453.771H214.572C212.689 453.771 211.255 452.248 211.255 450.455V448.842C211.255 446.96 212.779 445.436 214.662 445.526L291.865 447.139C293.838 447.049 295.362 448.842 295.093 450.814Z" fill="white"/>
<path opacity="0.37" d="M289.354 486.395L281.015 599.053C280.836 600.936 279.312 602.28 277.429 602.19L212.779 597.619C210.986 597.53 209.641 596.006 209.641 594.214L211.165 486.126C211.165 484.334 212.689 482.81 214.483 482.81H285.947C287.92 482.81 289.444 484.423 289.354 486.395Z" fill="white"/>
<path opacity="0.82" d="M219.952 578.798C219.235 578.798 218.607 578.171 218.607 577.454V500.376C218.607 497.956 219.594 495.716 221.297 494.013C223.001 492.31 225.243 491.414 227.664 491.414C255.819 491.503 273.304 491.503 274.47 491.414C275.187 491.235 275.904 491.683 275.994 492.4C276.173 493.117 275.635 493.834 274.918 494.013C274.559 494.103 273.663 494.282 227.574 494.103C225.87 494.103 224.346 494.73 223.091 495.985C221.925 497.15 221.208 498.763 221.208 500.466V577.543C221.297 578.26 220.67 578.798 219.952 578.798Z" fill="white"/>
<path opacity="0.82" d="M288.458 474.116H213.407C211.613 474.116 209.999 473.399 208.744 472.144C207.489 470.89 206.861 469.187 206.861 467.484L209.641 336.452C209.73 332.957 212.51 330.178 216.007 330.089L301.549 327.938C303.342 327.848 305.136 328.655 306.391 329.91C307.646 331.164 308.364 332.957 308.274 334.749C306.481 370.689 302.177 413.171 294.824 468.47C294.555 471.607 291.775 474.116 288.458 474.116ZM301.728 330.537L216.186 332.688C214.124 332.778 212.51 334.391 212.42 336.452L209.641 467.484C209.641 468.559 209.999 469.545 210.717 470.262C211.434 470.979 212.42 471.427 213.496 471.427H288.547C290.43 471.427 292.134 469.993 292.313 468.111C299.576 412.902 303.88 370.51 305.674 334.66C305.763 333.584 305.315 332.598 304.598 331.792C303.88 330.896 302.894 330.537 301.728 330.537Z" fill="white"/>
<path opacity="0.82" d="M215.11 363.429C214.393 363.429 213.765 362.802 213.765 362.085C213.765 361.368 214.303 360.741 215.11 360.741L302.446 359.396C303.163 359.396 303.791 359.934 303.791 360.741C303.791 361.458 303.253 362.085 302.446 362.085L215.11 363.429C215.2 363.429 215.11 363.429 215.11 363.429Z" fill="white"/>
<path opacity="0.82" d="M295.183 401.968H215.2C214.483 401.968 213.855 401.341 213.855 400.624C213.855 399.907 214.483 399.279 215.2 399.279H295.183C295.9 399.279 296.528 399.907 296.528 400.624C296.528 401.43 295.9 401.968 295.183 401.968Z" fill="white"/>
<path opacity="0.82" d="M269.359 436.474C252.501 436.474 230.264 436.384 214.034 436.294C213.317 436.294 212.689 435.667 212.689 434.95C212.689 434.233 213.317 433.606 214.034 433.606C244.431 433.785 290.341 433.875 292.762 433.606C293.479 433.426 294.107 433.875 294.286 434.502C294.465 435.219 294.107 435.936 293.389 436.205C292.851 436.474 282.809 436.474 269.359 436.474Z" fill="white"/>
<path d="M753.2 251.846H362.253V579.874H753.2V251.846Z" fill="url(#paint9_linear_29_66)"/>
<path d="M767.547 208.378L347.458 210.977C341.72 210.977 337.147 215.19 337.147 220.298V282.946C337.147 287.876 341.63 291.909 347.1 291.909L767.547 294.597C773.823 294.597 778.845 290.385 778.845 285.187V217.789C778.934 212.59 773.823 208.288 767.547 208.378Z" fill="url(#paint10_linear_29_66)"/>
<path opacity="0.5" d="M767.547 208.378L347.1 211.067C341.63 211.067 337.147 215.1 337.147 220.029L778.845 217.878C778.934 212.59 773.823 208.288 767.547 208.378Z" fill="url(#paint11_linear_29_66)"/>
<path opacity="0.5" d="M347.1 291.909L767.547 294.597C773.823 294.597 778.845 290.385 778.845 285.187L337.147 283.036C337.236 287.875 341.63 291.909 347.1 291.909Z" fill="url(#paint12_linear_29_66)"/>
<path d="M767.905 312.881L347.548 311.985C341.63 311.985 336.878 316.197 336.788 321.485L335.981 386.194C335.891 391.303 340.464 395.425 346.113 395.515L767.816 399.19C773.913 399.279 778.845 394.977 778.845 389.779V322.471C778.934 317.093 774.003 312.881 767.905 312.881Z" fill="url(#paint13_linear_29_66)"/>
<path opacity="0.5" d="M767.905 312.881L347.1 311.985C341.451 311.985 336.788 316.107 336.698 321.126L778.755 322.381C778.934 317.093 774.003 312.881 767.905 312.881Z" fill="url(#paint14_linear_29_66)"/>
<path opacity="0.5" d="M346.203 395.425L767.905 399.1C774.003 399.19 778.934 394.888 778.934 389.689L336.071 386.104C335.981 391.213 340.464 395.425 346.203 395.425Z" fill="url(#paint15_linear_29_66)"/>
<path d="M768.264 417.652H348.176C342.078 417.652 337.147 422.044 337.147 427.511V494.461C337.147 499.749 341.899 503.961 347.727 503.961H768.174C774.003 503.961 778.755 499.659 778.755 494.461V427.153C778.934 421.865 774.182 417.652 768.264 417.652Z" fill="url(#paint16_linear_29_66)"/>
<path opacity="0.5" d="M768.265 417.652H347.818C341.989 417.652 337.237 421.954 337.237 427.153H778.935C778.935 421.865 774.183 417.652 768.265 417.652Z" fill="url(#paint17_linear_29_66)"/>
<path opacity="0.5" d="M347.817 503.961H768.264C774.092 503.961 778.845 499.659 778.845 494.461H337.236C337.236 499.749 341.989 503.961 347.817 503.961Z" fill="url(#paint18_linear_29_66)"/>
<path d="M768.712 523.948L348.355 522.335C342.168 522.335 337.147 526.726 337.147 532.193V599.143C337.147 604.431 341.989 608.643 347.907 608.643L768.443 608.823C774.182 608.823 778.845 604.61 778.845 599.502L779.024 533.358C779.114 528.16 774.541 523.948 768.712 523.948Z" fill="url(#paint19_linear_29_66)"/>
<path opacity="0.5" d="M768.713 523.948L347.997 522.335C342.079 522.335 337.237 526.547 337.237 531.835L779.114 533.358C779.114 528.16 774.541 523.948 768.713 523.948Z" fill="url(#paint20_linear_29_66)"/>
<path opacity="0.5" d="M347.996 608.643L768.533 608.823C774.272 608.823 778.934 604.61 778.934 599.502L337.236 599.143C337.236 604.341 342.078 608.643 347.996 608.643Z" fill="url(#paint21_linear_29_66)"/>
<path d="M237.886 478.956L235.554 477.522C234.478 476.895 234.12 475.461 234.837 474.295C235.465 473.22 236.899 472.861 238.065 473.578L240.307 475.012C241.383 475.729 241.741 477.074 241.024 478.239C240.396 479.225 238.962 479.583 237.886 478.956Z" fill="#E992EC"/>
<path d="M230.264 474.027L228.022 472.503C226.946 471.786 226.677 470.352 227.484 469.276C228.202 468.201 229.636 467.932 230.712 468.739L232.864 470.262C233.94 470.979 234.209 472.413 233.402 473.489C232.775 474.475 231.34 474.744 230.264 474.027Z" fill="#E992EC"/>
<path d="M222.911 468.649L220.759 466.946C219.773 466.14 219.594 464.706 220.401 463.63C221.208 462.644 222.642 462.465 223.718 463.272L225.781 464.885C226.767 465.691 226.946 467.125 226.139 468.201C225.422 469.276 223.898 469.456 222.911 468.649Z" fill="#E992EC"/>
<path d="M215.828 462.913L213.765 461.121C212.779 460.224 212.689 458.79 213.586 457.804C214.483 456.819 215.917 456.729 216.904 457.625L218.876 459.418C219.863 460.314 219.952 461.748 219.056 462.734C218.338 463.63 216.814 463.809 215.828 462.913Z" fill="#E992EC"/>
<path d="M209.103 456.819L207.13 454.937C206.233 454.04 206.144 452.517 207.13 451.531C208.027 450.635 209.551 450.545 210.537 451.531L212.42 453.413C213.317 454.309 213.407 455.833 212.42 456.819C211.524 457.715 210.089 457.715 209.103 456.819Z" fill="#E992EC"/>
<path d="M202.736 450.276L200.853 448.304C199.957 447.318 200.046 445.795 201.033 444.898C202.019 444.002 203.543 444.092 204.44 445.078L206.233 447.049C207.13 448.035 207.04 449.559 206.054 450.455C205.157 451.352 203.633 451.262 202.736 450.276Z" fill="#E992EC"/>
<path d="M196.729 443.464L195.025 441.314C194.218 440.328 194.308 438.804 195.384 437.908C196.37 437.101 197.894 437.191 198.791 438.266L200.495 440.328C201.302 441.314 201.212 442.837 200.136 443.733C199.06 444.63 197.536 444.54 196.729 443.464Z" fill="#E992EC"/>
<path d="M191.08 436.384L189.466 434.143C188.659 433.068 188.928 431.544 190.004 430.738C191.08 429.931 192.604 430.2 193.411 431.275L194.935 433.426C195.742 434.502 195.473 436.026 194.397 436.832C193.411 437.639 191.887 437.46 191.08 436.384Z" fill="#E992EC"/>
<path d="M185.879 428.945L184.355 426.615C183.637 425.45 183.906 423.926 185.072 423.209C186.238 422.492 187.762 422.761 188.479 423.926L189.914 426.167C190.631 427.332 190.273 428.766 189.197 429.573C188.121 430.379 186.596 430.021 185.879 428.945Z" fill="#E992EC"/>
<path d="M181.037 421.148L179.692 418.728C179.064 417.563 179.423 416.039 180.589 415.412C181.754 414.785 183.279 415.143 183.906 416.308L185.162 418.638C185.789 419.804 185.431 421.327 184.265 421.955C183.189 422.761 181.754 422.313 181.037 421.148Z" fill="#E992EC"/>
<path d="M176.733 413.171L175.567 410.751C174.94 409.497 175.478 408.063 176.733 407.435C177.988 406.808 179.423 407.346 180.051 408.6L181.216 411.02C181.844 412.275 181.306 413.709 180.051 414.336C178.795 414.874 177.361 414.336 176.733 413.171Z" fill="#E992EC"/>
<path d="M172.967 404.836L171.891 402.327C171.353 401.072 171.981 399.638 173.236 399.1C174.491 398.562 175.926 399.19 176.464 400.444L177.45 402.864C177.988 404.119 177.361 405.553 176.105 406.091C174.85 406.718 173.415 406.091 172.967 404.836Z" fill="#E992EC"/>
<path d="M169.649 396.322L168.753 393.723C168.304 392.468 169.022 391.034 170.277 390.586C171.532 390.138 172.967 390.855 173.415 392.109V392.199L174.222 394.709V394.798C174.671 396.053 173.953 397.487 172.698 397.935C171.532 398.294 170.098 397.666 169.649 396.322Z" fill="#E992EC"/>
<path d="M166.959 387.628L166.242 384.939C165.883 383.595 166.69 382.251 168.035 381.982C169.38 381.623 170.725 382.43 170.994 383.774V383.864L171.622 386.373V386.463C171.981 387.807 171.174 389.152 169.829 389.421C168.663 389.69 167.318 388.883 166.959 387.628Z" fill="#E992EC"/>
<path d="M164.897 378.666L164.449 375.977C164.18 374.633 165.076 373.378 166.421 373.109C167.766 372.84 169.022 373.736 169.291 375.081V375.17L169.739 377.769V377.859C170.008 379.203 169.111 380.458 167.766 380.727C166.421 380.906 165.166 380.01 164.897 378.666Z" fill="#E992EC"/>
<path d="M163.552 369.613L163.283 366.835C163.104 365.491 164.09 364.326 165.435 364.146C166.78 363.967 167.946 364.953 168.125 366.297V366.387L168.394 368.986V369.076C168.573 370.42 167.587 371.585 166.242 371.764C164.897 371.944 163.731 370.958 163.552 369.613Z" fill="#E992EC"/>
<path d="M162.924 360.561L162.835 357.783C162.835 356.439 163.911 355.363 165.256 355.273C166.601 355.273 167.677 356.349 167.766 357.693V357.783L167.856 360.382V360.472C167.856 361.816 166.78 362.892 165.435 362.981C164 362.892 162.924 361.906 162.924 360.561Z" fill="#E992EC"/>
<path d="M163.014 351.33L163.193 348.552C163.283 347.207 164.449 346.221 165.794 346.311C167.139 346.401 168.125 347.566 168.035 348.91V349L167.856 351.599V351.688C167.766 353.033 166.601 354.019 165.256 353.929C163.911 353.839 162.924 352.674 163.014 351.33Z" fill="#E992EC"/>
<path d="M163.821 342.188L164.269 339.499C164.449 338.155 165.704 337.259 167.049 337.438C168.394 337.617 169.291 338.872 169.111 340.217V340.306L168.753 342.905V342.995C168.573 344.339 167.318 345.236 165.973 345.056C164.538 344.787 163.642 343.533 163.821 342.188Z" fill="#E992EC"/>
<path d="M165.525 333.226C165.704 332.329 165.973 331.433 166.152 330.537C166.511 329.282 167.766 328.476 169.111 328.744C170.367 329.103 171.174 330.358 170.905 331.702C170.725 332.509 170.456 333.405 170.277 334.301C170.008 335.646 168.663 336.452 167.408 336.094C165.973 335.825 165.166 334.48 165.525 333.226Z" fill="#E992EC"/>
<path d="M167.856 324.353L168.753 321.754C169.201 320.499 170.546 319.782 171.801 320.23C173.057 320.678 173.774 322.023 173.326 323.277V323.367L172.519 325.877V325.966C172.07 327.221 170.725 327.938 169.47 327.49C168.125 327.042 167.497 325.608 167.856 324.353Z" fill="#E992EC"/>
<path d="M170.994 315.749L172.07 313.239C172.608 311.985 174.043 311.447 175.209 311.985C176.464 312.522 177.002 313.956 176.464 315.121V315.211L175.478 317.631V317.721C174.94 318.975 173.505 319.513 172.339 318.975C171.084 318.438 170.546 317.004 170.994 315.749Z" fill="#E992EC"/>
<path d="M174.85 307.414L176.105 304.994C176.733 303.829 178.168 303.381 179.333 304.008C180.499 304.635 180.947 306.069 180.32 307.234V307.324L179.154 309.654V309.744C178.526 310.909 177.092 311.357 175.926 310.819C174.671 310.102 174.222 308.579 174.85 307.414Z" fill="#E992EC"/>
<path d="M179.244 299.437L180.678 297.107C181.396 295.942 182.83 295.583 183.996 296.3C185.162 297.017 185.52 298.451 184.803 299.616L183.458 301.857C182.741 303.022 181.306 303.381 180.14 302.664C178.885 302.036 178.526 300.602 179.244 299.437Z" fill="#E992EC"/>
<path d="M184.175 291.819L185.789 289.578C186.596 288.503 188.031 288.234 189.107 289.041C190.183 289.847 190.452 291.281 189.645 292.357L188.121 294.508C187.314 295.583 185.879 295.852 184.803 295.046C183.727 294.329 183.458 292.895 184.175 291.819Z" fill="#E992EC"/>
<path d="M189.645 284.47L191.349 282.319C192.156 281.333 193.68 281.154 194.666 281.96C195.653 282.767 195.832 284.29 195.025 285.276L193.321 287.338C192.514 288.324 190.99 288.503 189.914 287.696C189.017 286.979 188.838 285.545 189.645 284.47Z" fill="#E992EC"/>
<path d="M195.563 277.569L197.446 275.597C198.343 274.611 199.867 274.521 200.853 275.418C201.84 276.314 201.929 277.838 201.033 278.823L199.239 280.795C198.343 281.781 196.818 281.871 195.832 280.974C194.756 279.989 194.666 278.555 195.563 277.569Z" fill="#E992EC"/>
<path d="M201.84 270.936L203.812 269.054C204.709 268.158 206.233 268.158 207.22 269.054C208.116 269.951 208.116 271.474 207.22 272.46L205.337 274.342C204.44 275.238 202.916 275.238 201.929 274.342C200.853 273.356 200.853 271.922 201.84 270.936Z" fill="#E992EC"/>
<path d="M208.475 264.752L210.537 262.96C211.524 262.064 213.048 262.153 213.855 263.139C214.752 264.125 214.662 265.649 213.676 266.455L211.703 268.248C210.717 269.144 209.192 269.054 208.385 268.068C207.399 267.083 207.489 265.559 208.475 264.752Z" fill="#E992EC"/>
<path d="M215.379 258.837L217.531 257.134C218.518 256.327 220.042 256.507 220.849 257.493C221.656 258.478 221.477 260.002 220.49 260.809L218.428 262.422C217.442 263.229 215.917 263.049 215.11 262.063C214.214 261.167 214.393 259.644 215.379 258.837Z" fill="#E992EC"/>
<path d="M222.553 253.28L224.794 251.667C225.87 250.86 227.305 251.129 228.112 252.205C228.919 253.28 228.65 254.714 227.574 255.521L225.422 257.045C224.346 257.851 222.911 257.582 222.104 256.507C221.297 255.521 221.477 254.087 222.553 253.28Z" fill="#E992EC"/>
<path d="M229.995 248.082L232.237 246.558C233.313 245.841 234.747 246.11 235.465 247.275C236.182 248.351 235.913 249.785 234.747 250.502L232.506 251.936C231.43 252.653 229.995 252.384 229.278 251.308C228.65 250.323 228.919 248.799 229.995 248.082Z" fill="#E992EC"/>
<path d="M237.617 243.242L239.948 241.808C241.024 241.181 242.548 241.539 243.176 242.615C243.804 243.69 243.445 245.214 242.369 245.841L240.127 247.186C239.051 247.813 237.527 247.455 236.899 246.379C236.182 245.393 236.541 243.959 237.617 243.242Z" fill="#E992EC"/>
<path d="M245.507 238.761L247.928 237.417C249.094 236.789 250.529 237.237 251.156 238.313C251.784 239.478 251.336 240.912 250.26 241.539L247.928 242.794C246.763 243.421 245.328 242.973 244.7 241.898C243.983 240.733 244.342 239.299 245.507 238.761Z" fill="#E992EC"/>
<path d="M253.488 234.459L255.909 233.294C257.074 232.756 258.509 233.204 259.047 234.369C259.585 235.535 259.137 236.969 257.971 237.506L255.55 238.671C254.384 239.209 252.95 238.761 252.412 237.596C251.874 236.431 252.322 235.086 253.488 234.459Z" fill="#E992EC"/>
<path d="M261.647 230.605L264.158 229.53C265.324 228.992 266.758 229.53 267.207 230.695C267.745 231.86 267.207 233.294 266.041 233.742L263.62 234.818C262.454 235.355 261.02 234.818 260.482 233.652C259.944 232.487 260.482 231.143 261.647 230.605Z" fill="#E992EC"/>
<path d="M269.986 226.93L272.497 225.945C273.663 225.496 275.008 226.034 275.546 227.199C275.994 228.364 275.456 229.709 274.29 230.247L271.869 231.232C270.704 231.681 269.359 231.143 268.821 229.978C268.193 228.813 268.821 227.468 269.986 226.93Z" fill="#E992EC"/>
<path d="M278.415 223.704L280.926 222.808C282.091 222.36 283.436 222.987 283.885 224.152C284.333 225.317 283.705 226.662 282.54 227.11L280.029 228.006C278.863 228.454 277.518 227.827 277.07 226.662C276.532 225.407 277.16 224.063 278.415 223.704Z" fill="#E992EC"/>
<path d="M286.933 220.657L289.534 219.85C290.789 219.492 292.044 220.119 292.493 221.374C292.851 222.629 292.224 223.883 290.968 224.331L288.458 225.138C287.202 225.497 285.947 224.869 285.499 223.614C285.05 222.36 285.678 221.105 286.933 220.657Z" fill="#E992EC"/>
<path d="M295.541 217.968L298.142 217.251C299.397 216.892 300.652 217.609 301.011 218.864C301.37 220.119 300.652 221.374 299.397 221.732L296.797 222.449C295.541 222.808 294.286 222.091 293.927 220.836C293.658 219.671 294.376 218.326 295.541 217.968Z" fill="#E992EC"/>
<path d="M304.329 215.638L306.929 215.01C308.184 214.741 309.35 215.458 309.709 216.713C309.978 217.968 309.26 219.133 308.005 219.492L305.405 220.119C304.149 220.388 302.894 219.671 302.625 218.416C302.356 217.161 303.073 215.996 304.329 215.638Z" fill="#E992EC"/>
<path d="M313.116 213.576L315.806 213.039C317.061 212.77 318.227 213.576 318.496 214.831C318.765 216.086 317.958 217.251 316.703 217.52L314.102 218.058C312.847 218.327 311.681 217.52 311.412 216.265C311.143 215.1 311.861 213.845 313.116 213.576Z" fill="#E992EC"/>
<path d="M321.993 211.873L324.683 211.425C325.938 211.246 327.104 212.053 327.283 213.218C327.463 214.473 326.656 215.638 325.49 215.817L322.89 216.265C321.634 216.444 320.469 215.638 320.289 214.473C319.931 213.308 320.827 212.142 321.993 211.873Z" fill="#E992EC"/>
<path d="M330.96 210.529L333.65 210.171C334.905 209.991 335.981 210.888 336.16 212.053C336.34 213.308 335.443 214.383 334.277 214.562L331.677 214.921C330.422 215.1 329.346 214.204 329.166 213.039C328.987 211.873 329.704 210.619 330.96 210.529Z" fill="#E992EC"/>
<path d="M339.926 209.364L342.616 209.095C343.782 209.005 344.858 209.902 345.037 211.067C345.127 212.232 344.23 213.308 343.065 213.487L340.375 213.756C339.119 213.845 338.043 213.039 337.954 211.784C337.864 210.619 338.761 209.543 339.926 209.364Z" fill="#E992EC"/>
<path d="M348.983 208.647L351.673 208.468C352.838 208.378 353.914 209.274 354.004 210.529C354.094 211.694 353.197 212.77 351.942 212.859L349.252 213.039C348.086 213.128 347.01 212.232 346.92 210.977C346.831 209.723 347.727 208.737 348.983 208.647Z" fill="#E992EC"/>
<path d="M358.039 208.199L360.729 208.109C361.895 208.109 362.881 209.006 362.971 210.171C362.971 211.336 362.074 212.322 360.908 212.411L358.218 212.501C357.053 212.501 356.066 211.605 355.977 210.44C355.887 209.274 356.784 208.199 358.039 208.199Z" fill="#E992EC"/>
<path d="M367.006 208.109H369.696C370.861 208.109 371.848 209.095 371.848 210.26C371.848 211.425 370.861 212.411 369.696 212.411H367.006C365.84 212.411 364.854 211.425 364.854 210.26C364.854 209.006 365.84 208.109 367.006 208.109Z" fill="#E992EC"/>
<path d="M376.062 208.288L378.752 208.378C379.918 208.468 380.814 209.454 380.725 210.619C380.635 211.784 379.649 212.68 378.483 212.59L375.793 212.501C374.627 212.411 373.731 211.425 373.731 210.26C373.91 209.185 374.896 208.199 376.062 208.288Z" fill="#E992EC"/>
<path d="M385.118 208.826L387.808 209.006C388.974 209.095 389.781 210.081 389.691 211.246C389.602 212.411 388.615 213.218 387.45 213.128L384.76 212.949C383.594 212.859 382.697 211.873 382.787 210.708C382.966 209.633 383.953 208.737 385.118 208.826Z" fill="#E992EC"/>
<path d="M394.085 209.633L396.775 209.991C397.941 210.171 398.748 211.156 398.568 212.322C398.389 213.487 397.403 214.293 396.237 214.114L393.547 213.845C392.381 213.756 391.574 212.68 391.754 211.515C391.933 210.35 393.009 209.543 394.085 209.633Z" fill="#E992EC"/>
<path d="M403.052 210.888L405.742 211.336C406.818 211.515 407.625 212.59 407.445 213.666C407.266 214.741 406.19 215.548 405.114 215.369L402.514 215.01C401.348 214.831 400.631 213.756 400.81 212.68C400.9 211.425 401.976 210.708 403.052 210.888Z" fill="#E992EC"/>
<path d="M412.018 212.411L414.708 212.949C415.784 213.128 416.502 214.204 416.322 215.369C416.143 216.444 415.067 217.161 413.901 216.982L411.301 216.444C410.225 216.265 409.508 215.19 409.687 214.025C409.777 212.859 410.853 212.142 412.018 212.411Z" fill="#E992EC"/>
<path d="M420.806 214.204L423.406 214.831C424.482 215.1 425.199 216.175 424.93 217.251C424.661 218.326 423.585 219.044 422.509 218.775L419.909 218.147C418.833 217.878 418.116 216.803 418.385 215.727C418.654 214.652 419.73 213.935 420.806 214.204Z" fill="#E992EC"/>
<path d="M429.593 216.355L432.193 217.072C433.269 217.341 433.897 218.416 433.628 219.492C433.359 220.567 432.283 221.194 431.207 220.926L428.607 220.209C427.531 219.94 426.903 218.864 427.172 217.789C427.441 216.713 428.517 216.086 429.593 216.355Z" fill="#E992EC"/>
<path d="M438.291 218.864L440.891 219.671C441.967 220.029 442.505 221.105 442.146 222.18C441.788 223.256 440.712 223.794 439.636 223.435L437.125 222.628C436.049 222.27 435.511 221.195 435.78 220.119C436.139 219.133 437.215 218.595 438.291 218.864Z" fill="#E992EC"/>
<path d="M446.899 221.732L449.409 222.629C450.396 222.987 450.934 224.063 450.575 225.138C450.216 226.124 449.14 226.662 448.064 226.303L445.554 225.407C444.567 225.048 444.029 223.973 444.388 222.897C444.747 221.912 445.823 221.374 446.899 221.732Z" fill="#E992EC"/>
<path d="M455.327 224.779L457.838 225.765C458.824 226.124 459.362 227.289 458.914 228.275C458.555 229.261 457.39 229.799 456.403 229.35L453.893 228.365C452.906 228.006 452.368 226.841 452.817 225.855C453.265 224.959 454.341 224.421 455.327 224.779Z" fill="#E992EC"/>
<path d="M463.756 228.185L466.267 229.261C467.253 229.709 467.701 230.784 467.253 231.77C466.805 232.756 465.729 233.204 464.742 232.756L462.232 231.77C461.245 231.322 460.797 230.247 461.245 229.261C461.604 228.185 462.77 227.737 463.756 228.185Z" fill="#E992EC"/>
<path d="M472.005 231.77L474.426 232.935C475.413 233.383 475.771 234.459 475.323 235.445C474.875 236.431 473.799 236.789 472.812 236.341L470.391 235.266C469.405 234.818 469.046 233.742 469.405 232.756C469.943 231.77 471.019 231.322 472.005 231.77Z" fill="#E992EC"/>
<path d="M480.165 235.624L482.586 236.789C483.483 237.237 483.931 238.313 483.483 239.299C483.034 240.195 481.958 240.643 480.972 240.195L478.551 239.03C477.654 238.582 477.206 237.506 477.654 236.52C478.103 235.534 479.268 235.176 480.165 235.624Z" fill="#E992EC"/>
<path d="M488.235 239.568L490.656 240.822C491.553 241.271 491.911 242.436 491.463 243.332C491.015 244.228 489.849 244.587 488.952 244.139L486.531 242.884C485.635 242.436 485.276 241.271 485.724 240.374C486.173 239.478 487.338 239.119 488.235 239.568Z" fill="#E992EC"/>
<path d="M496.215 243.78L498.547 245.035C499.443 245.483 499.802 246.648 499.264 247.544C498.816 248.441 497.65 248.799 496.753 248.261L494.422 247.007C493.525 246.558 493.167 245.393 493.705 244.497C494.243 243.601 495.319 243.242 496.215 243.78Z" fill="#E992EC"/>
<path d="M504.106 248.082L506.437 249.426C507.334 249.874 507.603 251.04 507.155 251.846C506.706 252.742 505.541 253.011 504.734 252.563L502.402 251.219C501.506 250.771 501.237 249.606 501.685 248.799C502.133 247.903 503.209 247.634 504.106 248.082Z" fill="#E992EC"/>
<path d="M511.907 252.563L514.238 253.908C515.045 254.445 515.404 255.521 514.866 256.327C514.328 257.134 513.252 257.493 512.445 256.955L510.114 255.611C509.217 255.162 508.948 253.997 509.486 253.191C509.934 252.294 511.1 252.025 511.907 252.563Z" fill="#E992EC"/>
<path d="M519.708 257.134L522.039 258.478C522.846 259.016 523.115 260.092 522.667 260.898C522.129 261.705 521.053 261.974 520.246 261.526L517.915 260.181C517.108 259.644 516.839 258.568 517.287 257.761C517.735 256.865 518.811 256.596 519.708 257.134Z" fill="#E992EC"/>
<path d="M527.33 261.705L529.661 263.139C530.468 263.677 530.737 264.752 530.199 265.559C529.661 266.365 528.585 266.634 527.778 266.097L525.447 264.663C524.64 264.125 524.371 263.049 524.819 262.243C525.447 261.526 526.523 261.257 527.33 261.705Z" fill="#E992EC"/>
<path d="M535.041 266.455L537.283 267.889C538.09 268.427 538.359 269.413 537.821 270.219C537.283 271.026 536.296 271.295 535.489 270.757L533.248 269.323C532.441 268.785 532.172 267.8 532.71 266.993C533.158 266.186 534.144 266.007 535.041 266.455Z" fill="#E992EC"/>
<path d="M542.573 271.295L544.815 272.729C545.622 273.267 545.801 274.252 545.353 275.059C544.815 275.866 543.828 276.045 543.021 275.597L540.78 274.163C539.973 273.625 539.704 272.639 540.242 271.833C540.78 271.026 541.766 270.757 542.573 271.295Z" fill="#E992EC"/>
<path d="M550.195 276.045L552.436 277.479C553.243 278.017 553.423 279.003 552.974 279.809C552.436 280.616 551.45 280.795 550.643 280.347L548.401 278.913C547.594 278.375 547.415 277.389 547.863 276.583C548.312 275.776 549.388 275.597 550.195 276.045Z" fill="#E992EC"/>
<path d="M557.727 280.885L559.968 282.319C560.775 282.857 560.955 283.842 560.506 284.559C559.968 285.366 558.982 285.545 558.265 285.097L556.023 283.663C555.216 283.215 555.037 282.14 555.485 281.333C555.933 280.616 556.92 280.437 557.727 280.885Z" fill="#E992EC"/>
<path d="M565.259 285.814L567.5 287.248C568.218 287.696 568.487 288.772 567.949 289.489C567.5 290.206 566.424 290.475 565.707 290.027L563.465 288.593C562.658 288.144 562.479 287.069 562.927 286.352C563.465 285.545 564.452 285.276 565.259 285.814Z" fill="#E992EC"/>
<path d="M572.791 290.654L575.032 292.088C575.75 292.536 576.019 293.522 575.481 294.329C575.032 295.046 574.046 295.314 573.239 294.866L570.997 293.432C570.28 292.984 570.011 291.998 570.459 291.192C570.997 290.385 572.073 290.116 572.791 290.654Z" fill="#E992EC"/>
<path d="M580.323 295.404L582.564 296.838C583.282 297.286 583.551 298.272 583.102 298.989C582.654 299.706 581.668 299.975 580.95 299.527L578.709 298.093C577.991 297.645 577.722 296.659 578.171 295.852C578.619 295.225 579.605 294.956 580.323 295.404Z" fill="#E992EC"/>
<path d="M587.944 300.244L590.186 301.678C590.903 302.126 591.172 303.112 590.724 303.829C590.276 304.546 589.289 304.815 588.572 304.366L586.241 302.932C585.523 302.484 585.254 301.498 585.703 300.781C586.241 299.975 587.137 299.706 587.944 300.244Z" fill="#E992EC"/>
<path d="M595.566 304.904L597.897 306.338C598.615 306.786 598.884 307.772 598.435 308.489C597.987 309.206 597.001 309.475 596.283 309.027L593.952 307.593C593.235 307.145 592.966 306.159 593.414 305.442C593.862 304.725 594.759 304.456 595.566 304.904Z" fill="#E992EC"/>
<path d="M603.188 309.565L605.519 310.909C606.236 311.357 606.505 312.254 606.057 312.971C605.609 313.688 604.712 313.956 603.995 313.508L601.663 312.164C600.946 311.716 600.677 310.82 601.125 310.103C601.484 309.386 602.47 309.117 603.188 309.565Z" fill="#E992EC"/>
<path d="M610.899 314.136L613.23 315.48C613.948 315.928 614.217 316.824 613.768 317.541C613.32 318.258 612.423 318.527 611.706 318.079L609.375 316.735C608.657 316.287 608.388 315.39 608.837 314.673C609.195 313.956 610.182 313.687 610.899 314.136Z" fill="#E992EC"/>
<path d="M618.7 318.527L621.031 319.872C621.749 320.23 622.018 321.216 621.569 321.843C621.211 322.56 620.314 322.829 619.597 322.381L617.265 321.126C616.548 320.768 616.279 319.782 616.638 319.065C616.996 318.348 617.893 318.079 618.7 318.527Z" fill="#E992EC"/>
<path d="M626.501 322.829L628.832 324.084C629.55 324.443 629.819 325.339 629.46 326.056C629.101 326.773 628.205 327.042 627.487 326.683L625.066 325.428C624.349 325.07 624.08 324.174 624.439 323.457C624.887 322.74 625.784 322.381 626.501 322.829Z" fill="#E992EC"/>
<path d="M634.392 326.952L636.813 328.117C637.53 328.476 637.799 329.372 637.44 330.089C637.082 330.806 636.185 331.075 635.468 330.716L633.047 329.551C632.329 329.193 632.06 328.296 632.419 327.579C632.867 326.862 633.674 326.593 634.392 326.952Z" fill="#E992EC"/>
<path d="M642.462 330.896L644.883 332.061C645.6 332.419 645.869 333.226 645.6 333.943C645.241 334.66 644.434 334.929 643.717 334.66L641.296 333.495C640.579 333.136 640.31 332.33 640.579 331.613C640.848 330.896 641.744 330.537 642.462 330.896Z" fill="#E992EC"/>
<path d="M650.532 334.66L652.953 335.735C653.67 336.004 653.939 336.9 653.67 337.617C653.401 338.334 652.504 338.603 651.787 338.334L649.276 337.259C648.559 336.99 648.2 336.094 648.559 335.377C649.007 334.66 649.814 334.301 650.532 334.66Z" fill="#E992EC"/>
<path d="M658.691 338.155L661.202 339.141C661.919 339.41 662.278 340.216 661.919 340.933C661.65 341.65 660.843 342.009 660.126 341.65L657.615 340.665C656.898 340.396 656.539 339.589 656.808 338.872C657.167 338.245 657.974 337.886 658.691 338.155Z" fill="#E992EC"/>
<path d="M667.03 341.471L669.541 342.368C670.258 342.636 670.617 343.443 670.348 344.07C670.079 344.787 669.272 345.146 668.644 344.877L666.134 343.981C665.416 343.712 665.058 342.905 665.327 342.188C665.506 341.561 666.313 341.202 667.03 341.471Z" fill="#E992EC"/>
<path d="M675.459 344.518L677.97 345.325C678.687 345.594 679.046 346.311 678.777 347.028C678.508 347.745 677.79 348.104 677.073 347.835L674.473 347.028C673.755 346.759 673.397 346.042 673.576 345.325C673.935 344.608 674.742 344.25 675.459 344.518Z" fill="#E992EC"/>
<path d="M683.888 347.207L686.488 347.924C687.205 348.104 687.564 348.82 687.385 349.537C687.205 350.255 686.488 350.613 685.771 350.434L683.17 349.717C682.453 349.538 682.094 348.82 682.274 348.103C682.453 347.386 683.17 347.028 683.888 347.207Z" fill="#E992EC"/>
<path d="M692.496 349.627L695.096 350.254C695.813 350.434 696.172 351.151 695.993 351.868C695.813 352.585 695.096 352.943 694.468 352.764L691.868 352.137C691.151 351.957 690.792 351.24 690.882 350.523C691.061 349.896 691.778 349.448 692.496 349.627Z" fill="#E992EC"/>
<path d="M701.193 351.688L703.794 352.226C704.511 352.405 704.959 353.033 704.78 353.75C704.601 354.467 703.973 354.915 703.256 354.736L700.566 354.198C699.848 354.019 699.4 353.391 699.579 352.674C699.759 351.957 700.476 351.599 701.193 351.688Z" fill="#E992EC"/>
<path d="M709.891 353.391L712.491 353.839C713.209 353.929 713.657 354.556 713.478 355.273C713.388 355.99 712.76 356.439 712.043 356.259L709.353 355.811C708.636 355.722 708.187 355.094 708.277 354.377C708.546 353.75 709.174 353.302 709.891 353.391Z" fill="#E992EC"/>
<path d="M718.768 354.736L721.458 355.094C722.175 355.184 722.624 355.811 722.534 356.439C722.444 357.156 721.817 357.604 721.189 357.514L718.499 357.245C717.782 357.156 717.333 356.528 717.423 355.901C717.423 355.184 718.051 354.646 718.768 354.736Z" fill="#E992EC"/>
<path d="M727.555 355.632L730.245 355.811C730.873 355.901 731.411 356.439 731.321 357.066C731.232 357.693 730.694 358.231 730.066 358.141L727.376 357.962C726.748 357.873 726.21 357.335 726.21 356.707C726.3 356.08 726.928 355.632 727.555 355.632Z" fill="#E992EC"/>
<path d="M736.522 356.17L739.212 356.259C739.84 356.259 740.378 356.797 740.378 357.514C740.378 358.141 739.84 358.679 739.122 358.679L736.432 358.59C735.805 358.59 735.267 358.052 735.267 357.335C735.267 356.618 735.805 356.17 736.522 356.17Z" fill="#E992EC"/>
<path d="M745.399 356.259L748.089 356.17C748.717 356.17 749.255 356.708 749.255 357.335C749.255 357.962 748.806 358.5 748.089 358.5L745.399 358.59C744.771 358.59 744.233 358.052 744.233 357.424C744.233 356.797 744.682 356.259 745.399 356.259Z" fill="#E992EC"/>
<path d="M754.276 355.901L756.966 355.722C757.594 355.722 758.132 356.17 758.221 356.797C758.221 357.425 757.773 357.962 757.145 358.052L754.455 358.231C753.828 358.231 753.29 357.783 753.2 357.156C753.2 356.528 753.648 355.991 754.276 355.901Z" fill="#E992EC"/>
<path d="M763.153 355.184L765.843 354.915C766.471 354.825 767.009 355.273 767.098 355.901C767.188 356.528 766.74 357.066 766.112 357.156L763.422 357.424C762.794 357.514 762.256 357.066 762.167 356.439C762.077 355.811 762.525 355.273 763.153 355.184Z" fill="#E992EC"/>
<path d="M772.03 354.108L774.63 353.66C775.258 353.571 775.796 354.019 775.886 354.556C775.975 355.184 775.527 355.722 774.989 355.811L772.299 356.259C771.671 356.349 771.133 355.901 771.044 355.363C770.954 354.736 771.402 354.198 772.03 354.108Z" fill="#E992EC"/>
<path d="M780.817 352.585L783.418 352.047C784.045 351.957 784.583 352.316 784.673 352.854C784.763 353.481 784.404 354.019 783.866 354.108L781.176 354.646C780.548 354.736 780.01 354.377 779.921 353.84C779.831 353.302 780.19 352.674 780.817 352.585Z" fill="#E992EC"/>
<path d="M789.515 350.703L792.115 350.075C792.653 349.896 793.281 350.255 793.371 350.882C793.55 351.42 793.191 352.047 792.564 352.137L789.963 352.764C789.425 352.943 788.798 352.585 788.708 351.957C788.618 351.42 788.977 350.882 789.515 350.703Z" fill="#E992EC"/>
<path d="M798.213 348.462L800.813 347.745C801.351 347.566 801.979 347.924 802.068 348.462C802.248 349 801.889 349.627 801.351 349.717L798.751 350.523C798.213 350.703 797.585 350.344 797.495 349.806C797.316 349.269 797.585 348.641 798.213 348.462Z" fill="#E992EC"/>
<path d="M806.731 345.863L809.242 345.056C809.78 344.877 810.318 345.146 810.497 345.684C810.676 346.221 810.407 346.759 809.869 346.938L807.269 347.835C806.731 348.014 806.193 347.745 806.014 347.207C805.834 346.669 806.193 346.042 806.731 345.863Z" fill="#E992EC"/>
<path d="M815.16 342.905L817.67 341.919C818.208 341.74 818.746 342.009 818.926 342.457C819.105 342.995 818.836 343.533 818.388 343.712L815.877 344.698C815.339 344.877 814.801 344.608 814.622 344.16C814.353 343.712 814.622 343.085 815.16 342.905Z" fill="#E992EC"/>
<path d="M823.409 339.589L825.83 338.514C826.368 338.334 826.906 338.514 827.085 339.051C827.265 339.499 827.085 340.127 826.547 340.306L824.037 341.382C823.499 341.561 822.961 341.382 822.781 340.844C822.692 340.396 822.871 339.858 823.409 339.589Z" fill="#E992EC"/>
<path d="M831.569 335.914L833.99 334.749C834.438 334.48 834.976 334.749 835.245 335.197C835.424 335.646 835.245 336.183 834.797 336.452L832.376 337.617C831.927 337.886 831.3 337.617 831.12 337.169C830.851 336.721 831.12 336.183 831.569 335.914Z" fill="#E992EC"/>
<path d="M839.549 331.971L841.88 330.716C842.329 330.447 842.867 330.627 843.136 331.075C843.405 331.523 843.225 332.061 842.777 332.329L840.356 333.584C839.908 333.853 839.37 333.674 839.101 333.226C838.921 332.778 839.101 332.24 839.549 331.971Z" fill="#E992EC"/>
<path d="M847.35 327.669L849.681 326.325C850.13 326.056 850.668 326.235 850.847 326.594C851.116 327.042 850.937 327.579 850.578 327.759L848.247 329.103C847.798 329.372 847.26 329.193 846.991 328.834C846.812 328.476 846.991 327.938 847.35 327.669Z" fill="#E992EC"/>
<path d="M855.061 323.008L857.303 321.574C857.662 321.306 858.2 321.395 858.469 321.843C858.738 322.202 858.648 322.74 858.2 323.008L855.958 324.532C855.599 324.801 855.061 324.711 854.792 324.263C854.523 323.815 854.613 323.277 855.061 323.008Z" fill="#E992EC"/>
<path d="M862.414 318.079L864.566 316.556C864.925 316.287 865.463 316.376 865.732 316.735C866.001 317.093 865.911 317.631 865.552 317.9L863.4 319.513C863.042 319.782 862.504 319.692 862.235 319.334C861.966 318.886 862.055 318.348 862.414 318.079Z" fill="#E992EC"/>
<path d="M869.677 312.791L871.829 311.178C872.188 310.909 872.636 310.999 872.905 311.357C873.174 311.716 873.084 312.164 872.726 312.433L870.574 314.136C870.215 314.405 869.767 314.315 869.498 314.046C869.229 313.598 869.318 313.06 869.677 312.791Z" fill="#E992EC"/>
<path d="M876.671 307.234L878.733 305.532C879.092 305.263 879.54 305.263 879.809 305.621C880.078 305.98 880.078 306.428 879.72 306.697L877.657 308.489C877.299 308.758 876.85 308.758 876.581 308.4C876.223 307.951 876.312 307.503 876.671 307.234Z" fill="#E992EC"/>
<path d="M883.396 301.319L885.369 299.527C885.638 299.258 886.086 299.258 886.355 299.527C886.624 299.796 886.624 300.244 886.355 300.513L884.382 302.395C884.113 302.664 883.575 302.664 883.306 302.395C883.037 302.126 883.037 301.588 883.396 301.319Z" fill="#E992EC"/>
<path d="M889.852 295.135L891.735 293.253C892.004 292.984 892.452 292.984 892.721 293.253C892.99 293.522 892.99 293.97 892.721 294.239L890.838 296.211C890.569 296.48 890.121 296.48 889.852 296.211C889.493 295.942 889.493 295.494 889.852 295.135Z" fill="#E992EC"/>
<path d="M895.949 288.682L897.743 286.71C898.012 286.441 898.37 286.441 898.639 286.621C898.908 286.89 898.908 287.248 898.729 287.517L896.936 289.489C896.667 289.758 896.218 289.758 895.949 289.578C895.77 289.399 895.68 289.041 895.949 288.682Z" fill="#E992EC"/>
<path d="M901.867 281.96L903.571 279.899C903.75 279.63 904.199 279.63 904.468 279.809C904.737 279.989 904.737 280.437 904.557 280.706L902.854 282.767C902.674 283.036 902.226 283.125 901.957 282.857C901.688 282.677 901.598 282.229 901.867 281.96Z" fill="#E992EC"/>
<path d="M907.427 274.97L909.041 272.819C909.22 272.55 909.579 272.46 909.848 272.729C910.117 272.908 910.206 273.267 909.937 273.536L908.323 275.687C908.144 275.955 907.696 276.045 907.427 275.776C907.247 275.687 907.158 275.238 907.427 274.97Z" fill="#E992EC"/>
<path d="M912.627 267.71L914.152 265.469C914.331 265.2 914.69 265.111 914.959 265.29C915.228 265.469 915.317 265.828 915.138 266.097L913.614 268.337C913.434 268.606 913.076 268.696 912.807 268.517C912.538 268.337 912.448 267.979 912.627 267.71Z" fill="#E992EC"/>
<path d="M917.469 260.181L918.814 257.851C918.994 257.582 919.263 257.493 919.532 257.672C919.801 257.851 919.89 258.12 919.711 258.389L918.366 260.719C918.187 260.988 917.918 261.078 917.649 260.898C917.38 260.809 917.29 260.54 917.469 260.181Z" fill="#E992EC"/>
<path d="M921.594 252.384L922.67 249.964C922.76 249.695 923.118 249.606 923.387 249.695C923.656 249.785 923.746 250.143 923.656 250.412L922.58 252.922C922.491 253.191 922.132 253.28 921.863 253.191C921.594 252.922 921.504 252.653 921.594 252.384Z" fill="#E992EC"/>
<path d="M924.732 244.049L925.36 241.45C925.45 241.181 925.719 241.002 925.988 241.091C926.257 241.181 926.436 241.45 926.346 241.719L925.719 244.318C925.629 244.587 925.36 244.766 925.091 244.676C924.822 244.587 924.732 244.318 924.732 244.049Z" fill="#E992EC"/>
<path d="M926.346 235.355L926.436 232.667C926.436 232.398 926.615 232.218 926.884 232.218C927.153 232.218 927.333 232.398 927.333 232.667L927.243 235.355C927.243 235.624 927.064 235.803 926.795 235.803C926.615 235.893 926.346 235.624 926.346 235.355Z" fill="#E992EC"/>
<path d="M925.898 226.572L925.27 223.973C925.181 223.704 925.36 223.525 925.539 223.435C925.808 223.346 925.988 223.525 926.077 223.704L926.705 226.303C926.795 226.572 926.615 226.751 926.436 226.841C926.257 226.931 925.988 226.841 925.898 226.572Z" fill="#E992EC"/>
<path d="M923.029 218.237L921.684 215.907C921.594 215.727 921.594 215.459 921.863 215.369C922.042 215.279 922.311 215.279 922.401 215.548L923.746 217.878C923.836 218.058 923.836 218.326 923.567 218.416C923.387 218.506 923.118 218.506 923.029 218.237Z" fill="#E992EC"/>
<path d="M917.738 211.157L915.766 209.454C915.586 209.364 915.586 209.095 915.766 208.916C915.855 208.737 916.124 208.737 916.304 208.916L918.366 210.708C918.545 210.798 918.545 211.067 918.366 211.246C918.187 211.336 917.918 211.336 917.738 211.157Z" fill="#E992EC"/>
<path d="M910.386 206.317L907.875 205.51C907.696 205.42 907.606 205.241 907.696 205.062C907.785 204.883 907.965 204.793 908.144 204.883L910.744 205.689C910.924 205.779 911.013 205.958 910.924 206.137C910.834 206.317 910.655 206.406 910.386 206.317Z" fill="#E992EC"/>
<path d="M308.991 623.7H316.792V539.094H308.991V623.7Z" fill="url(#paint22_linear_29_66)"/>
<path d="M278.594 625.314H347.189V622.894C347.189 621.37 345.934 620.205 344.499 620.205H281.553C279.939 620.205 278.594 621.549 278.594 623.163V625.314Z" fill="url(#paint23_linear_29_66)"/>
<path d="M265.682 535.957C265.682 540.887 269.717 544.92 274.649 544.92H348.355C353.287 544.92 357.322 540.887 357.322 535.957V527.891C357.322 522.962 353.287 518.929 348.355 518.929H274.649C269.717 518.929 265.682 522.962 265.682 527.891V535.957Z" fill="url(#paint24_linear_29_66)"/>
<path d="M356.515 608.733C356.515 608.733 378.842 624.865 374.986 635.62C374.986 635.62 350.507 625.045 347.548 616.799C344.589 608.464 348.086 604.789 348.086 604.789L356.515 608.733Z" fill="url(#paint25_linear_29_66)"/>
<path d="M353.197 595.2L349.521 605.775C348.983 607.389 349.521 609.181 350.955 610.077C351.673 610.525 352.659 610.974 354.004 611.242C355.887 611.691 357.86 610.794 358.756 609.091L363.15 600.846L353.197 595.2Z" fill="url(#paint26_linear_29_66)"/>
<path d="M317.599 500.107C317.599 500.107 363.509 508.084 383.235 526.278C402.962 544.472 365.123 602.459 365.123 602.459C365.123 602.459 358.936 602.459 351.404 596.006C351.404 596.006 373.82 552.359 354.542 539.632C332.843 525.292 307.826 522.066 307.826 522.066L317.151 501.452L317.599 500.107Z" fill="url(#paint27_linear_29_66)"/>
<path d="M371.13 629.705C366.199 627.465 352.3 617.696 349.969 617.247C347.638 616.799 343.513 619.578 343.513 619.578C343.513 619.578 342.527 621.37 343.603 624.417C346.831 628.361 354.094 635.889 363.867 638.668C371.041 640.729 376.062 638.847 379.2 636.517C377.497 634.007 374.358 631.139 371.13 629.705Z" fill="url(#paint28_linear_29_66)"/>
<path d="M363.867 638.757C354.094 635.979 346.831 628.451 343.603 624.507C344.32 626.568 345.934 629.347 349.521 632.484C358.308 640.371 374.986 643.149 378.483 642.611C381.352 642.163 381.083 639.564 379.2 636.696C376.062 638.847 371.041 640.819 363.867 638.757Z" fill="url(#paint29_linear_29_66)"/>
<path d="M339.299 612.677C339.388 614.021 342.168 618.681 343.782 621.281C344.589 622.535 345.934 623.252 347.369 623.252C348.265 623.252 349.341 623.163 350.328 622.894C351.762 622.446 352.569 620.922 352.211 619.488L349.072 608.733L339.299 612.677Z" fill="url(#paint30_linear_29_66)"/>
<path d="M273.394 486.395C273.394 486.395 263.172 513.641 273.394 521.976C283.616 530.222 307.915 539.632 313.385 556.123C318.855 572.614 328.001 604.7 340.375 616.082C340.375 616.082 349.072 615.276 352.3 611.78C352.3 611.78 345.306 563.921 340.644 551.552C336.609 540.887 330.691 525.561 319.393 516.957C316.165 514.537 316.703 510.594 318.227 506.829L321.007 499.928L273.394 486.395Z" fill="url(#paint31_linear_29_66)"/>
<path d="M379.738 464.974C362.612 465.96 367.992 438.714 368.261 437.639L342.347 455.922C342.347 455.922 343.692 470.531 365.302 478.149C370.772 480.121 375.793 480.211 380.187 479.225C378.304 473.847 378.662 468.918 379.738 464.974Z" fill="url(#paint32_linear_29_66)"/>
<path d="M412.825 456.729C406.459 452.337 399.196 456.729 399.196 456.729C390.678 462.286 384.401 464.706 379.738 464.975C378.662 468.828 378.214 473.758 380.097 479.315C389.602 477.253 396.506 470.352 399.465 466.857C400.541 465.602 402.424 465.333 403.769 466.409C405.114 467.484 406.369 468.918 406.19 470.442C405.742 473.399 409.149 474.385 409.418 473.31C409.687 472.234 408.252 465.871 408.252 465.871C408.252 465.871 415.157 472.862 417.847 475.461C420.537 478.149 423.944 475.461 423.944 475.461C423.944 475.461 419.192 461.21 412.825 456.729Z" fill="url(#paint33_linear_29_66)"/>
<path d="M300.025 395.426C300.025 395.426 324.862 385.477 371.22 423.657C371.22 423.657 375.076 431.634 370.861 438.804C366.647 445.884 326.476 480.659 320.917 499.839C320.917 499.839 296.976 507.636 272.228 489.173C272.138 489.263 274.38 435.667 300.025 395.426Z" fill="url(#paint34_linear_29_66)"/>
<path d="M349.162 386.553L336.878 401.43C335.622 402.864 335.353 404.926 336.25 406.629C337.954 410.124 341.989 415.143 350.955 414.426C353.645 414.247 355.977 412.634 357.142 410.214L365.75 392.558L349.162 386.553Z" fill="url(#paint35_linear_29_66)"/>
<path d="M280.746 458.97C277.877 447.229 307.108 420.969 307.108 420.969L300.025 395.336C300.025 395.336 236.899 437.37 252.95 471.159C255.281 475.998 258.33 479.404 261.916 481.645C266.938 468.111 275.097 461.838 280.746 458.97Z" fill="url(#paint36_linear_29_66)"/>
<path d="M280.746 457.267C280.477 457.267 280.119 457.088 280.119 456.729C277.16 444.719 305.494 419.176 306.66 418.101C306.929 417.832 307.377 417.832 307.646 418.19C307.915 418.459 307.915 418.907 307.557 419.176C307.288 419.445 278.684 445.257 281.374 456.46C281.464 456.819 281.195 457.177 280.836 457.267H280.746Z" fill="url(#paint37_linear_29_66)"/>
<path d="M325.042 457.984C325.042 457.984 290.341 471.427 281.912 461.3C281.374 460.583 280.926 459.866 280.746 458.97C275.097 461.838 266.938 468.111 261.827 481.734C280.029 493.386 311.233 475.281 319.662 469.904C321.007 469.008 322.71 468.739 324.324 469.008C327.552 469.725 333.201 470.71 336.25 470.173C340.644 469.456 347.01 485.14 354.273 480.3C354.273 480.48 348.086 453.234 325.042 457.984Z" fill="url(#paint38_linear_29_66)"/>
<path d="M375.883 364.774C375.972 365.222 373.013 397.666 373.013 397.666L354.542 395.605L352.838 364.415C352.749 364.415 373.82 356.797 375.883 364.774Z" fill="url(#paint39_linear_29_66)"/>
<path d="M357.591 370.868L357.232 387.359C357.232 387.539 357.232 387.807 357.322 387.987C357.68 389.241 359.025 393.454 363.329 391.751C367.185 390.227 370.682 388.793 373.282 389.331C374.448 389.51 375.255 390.586 375.165 391.841C374.896 394.798 374.179 401.43 372.655 407.077C372.386 408.242 371.22 408.959 370.054 408.69C366.557 408.063 359.115 406.539 353.466 403.94C352.659 403.581 352.211 402.864 352.121 401.968C351.852 397.845 350.955 385.298 350.148 381.892C349.431 378.666 345.127 377.142 343.334 376.604C342.706 376.425 342.258 376.067 341.899 375.529C340.823 373.557 339.209 368.986 344.948 366.477C346.113 365.939 346.651 364.505 346.113 363.34C344.948 361.01 344.23 357.335 348.534 354.736C352.928 352.137 356.694 354.198 358.846 356.08C359.653 356.797 360.908 356.797 361.805 356.08C362.343 355.722 362.971 355.453 363.867 355.901C365.033 356.439 366.468 355.811 366.916 354.557C367.813 352.137 369.785 349.448 374.448 349.717C382.697 350.255 384.58 359.038 383.056 364.594C381.532 370.062 372.565 368.986 367.992 366.835C364.495 365.222 360.37 367.731 358.667 369.076C357.86 369.524 357.591 370.151 357.591 370.868Z" fill="url(#paint40_linear_29_66)"/>
<path d="M349.969 387.897C349.969 387.897 352.3 378.217 348.624 376.335C344.948 374.453 340.016 376.156 341.899 382.788C344.141 391.034 349.969 387.897 349.969 387.897Z" fill="url(#paint41_linear_29_66)"/>
<path d="M342.796 484.513C342.885 484.513 342.885 484.513 342.975 484.513L415.784 484.423C417.578 484.423 419.012 482.989 419.012 481.197C419.012 479.404 417.578 477.88 415.784 477.97L342.975 478.06C341.182 478.06 339.747 479.494 339.747 481.286C339.747 483.079 341.092 484.423 342.796 484.513Z" fill="url(#paint42_linear_29_66)"/>
<path d="M481.151 418.459H420.537C416.053 418.459 412.018 421.058 410.046 425.091L382.07 484.513H457.39C460.259 484.513 462.859 482.72 463.935 480.031L485.635 425.091C486.98 421.954 484.648 418.459 481.151 418.459Z" fill="url(#paint43_linear_29_66)"/>
<path d="M438.47 448.932C437.125 453.054 438.111 456.998 440.622 457.804C443.133 458.611 446.271 455.922 447.526 451.889C448.871 447.767 447.885 443.823 445.374 443.016C442.864 442.21 439.815 444.898 438.47 448.932Z" fill="url(#paint44_linear_29_66)"/>
<path d="M471.378 640.55C471.736 640.55 472.185 640.46 472.543 640.281C474.068 639.654 474.785 637.861 474.157 636.427L410.046 492.131C409.418 490.607 407.625 489.98 406.011 490.607C404.486 491.235 403.769 493.027 404.397 494.461L468.508 638.757C469.046 639.923 470.212 640.55 471.378 640.55Z" fill="url(#paint45_linear_29_66)"/>
<path d="M399.106 640.55C400.272 640.55 401.438 639.923 401.886 638.757L465.998 494.461C466.625 492.938 465.908 491.235 464.384 490.607C462.859 489.98 461.066 490.697 460.349 492.131L396.237 636.427C395.609 637.951 396.327 639.654 397.851 640.281C398.299 640.46 398.748 640.55 399.106 640.55Z" fill="url(#paint46_linear_29_66)"/>
<path d="M272.856 640.55C273.214 640.55 273.663 640.46 274.021 640.281C275.546 639.654 276.263 637.861 275.635 636.427L211.524 492.131C210.896 490.607 209.103 489.98 207.489 490.607C205.964 491.235 205.247 493.027 205.875 494.461L269.986 638.757C270.524 639.923 271.69 640.55 272.856 640.55Z" fill="url(#paint47_linear_29_66)"/>
<path d="M200.584 640.55C201.75 640.55 202.916 639.923 203.364 638.758L267.476 494.461C268.103 492.938 267.386 491.235 265.862 490.608C264.337 489.98 262.544 490.697 261.827 492.131L197.715 636.427C197.087 637.951 197.805 639.654 199.329 640.281C199.777 640.461 200.226 640.55 200.584 640.55Z" fill="url(#paint48_linear_29_66)"/>
<path d="M193.052 487.739C192.873 486.753 193.142 485.857 193.68 485.05C194.218 484.333 195.025 483.885 195.922 483.885H487.697C488.863 483.885 489.849 484.513 490.477 485.588C491.104 486.664 491.194 488.008 490.656 489.173L487.518 496.791C486.8 498.584 485.186 499.659 483.483 499.659H197.894C196.28 499.659 194.935 498.405 194.577 496.612L193.052 487.739Z" fill="url(#paint49_linear_29_66)"/>
<path d="M440.061 248.078C466.605 248.078 488.123 226.57 488.123 200.039C488.123 173.508 466.605 152 440.061 152C413.518 152 392 173.508 392 200.039C392 226.57 413.518 248.078 440.061 248.078Z" fill="url(#paint50_linear_29_66)"/>
<path d="M395.766 198.605C395.228 198.605 394.869 198.157 394.869 197.619C394.959 195.737 395.228 193.765 395.497 191.973C395.587 191.525 396.035 191.166 396.573 191.256C397.021 191.345 397.38 191.794 397.29 192.331C396.932 194.124 396.752 195.916 396.663 197.798C396.663 198.246 396.214 198.605 395.766 198.605Z" fill="white"/>
<path d="M400.429 180.949C400.249 180.949 400.16 180.949 400.07 180.859C399.622 180.68 399.442 180.053 399.711 179.694C407.423 164.368 422.935 154.778 440.151 154.778C442.931 154.778 445.621 155.047 448.311 155.495C448.759 155.585 449.118 156.033 449.028 156.571C448.938 157.019 448.49 157.377 447.952 157.288C445.352 156.84 442.751 156.571 440.151 156.571C423.652 156.571 408.768 165.713 401.325 180.501C401.056 180.77 400.787 180.949 400.429 180.949Z" fill="white"/>
<path opacity="0.78" d="M441.137 241.804C463.62 241.804 481.846 223.587 481.846 201.115C481.846 178.642 463.62 160.425 441.137 160.425C418.655 160.425 400.429 178.642 400.429 201.115C400.429 223.587 418.655 241.804 441.137 241.804Z" fill="white"/>
<path d="M453.601 185.699C453.601 192.6 448.042 200.039 441.137 200.039C434.233 200.039 428.674 192.6 428.674 185.699C428.674 178.798 434.233 173.958 441.137 173.958C447.952 173.958 453.601 178.798 453.601 185.699Z" fill="url(#paint51_linear_29_66)"/>
<path d="M425.625 226.568H456.022C459.25 226.568 462.03 224.507 463.016 221.459L464.63 216.351C465.796 212.587 463.913 208.553 460.147 207.209C447.773 202.638 434.95 203.265 421.859 207.657C418.183 208.912 416.12 212.766 417.196 216.53L418.452 221.191C419.348 224.327 422.307 226.568 425.625 226.568Z" fill="url(#paint52_linear_29_66)"/>
<path d="M310.113 329.215C336.657 329.215 358.175 307.708 358.175 281.176C358.175 254.645 336.657 233.137 310.113 233.137C283.57 233.137 262.052 254.645 262.052 281.176C262.052 307.708 283.57 329.215 310.113 329.215Z" fill="url(#paint53_linear_29_66)"/>
<path d="M265.818 279.653C265.28 279.653 264.921 279.205 264.921 278.667C265.011 276.785 265.28 274.813 265.549 273.02C265.639 272.572 266.087 272.214 266.625 272.303C267.073 272.393 267.432 272.841 267.342 273.379C266.984 275.171 266.804 276.964 266.715 278.846C266.715 279.294 266.356 279.653 265.818 279.653Z" fill="white"/>
<path d="M270.481 262.086C270.301 262.086 270.212 262.086 270.122 261.997C269.674 261.817 269.494 261.19 269.763 260.831C277.475 245.506 292.987 235.916 310.203 235.916C312.983 235.916 315.673 236.185 318.363 236.633C318.811 236.722 319.17 237.17 319.08 237.708C318.99 238.156 318.542 238.515 318.004 238.425C315.404 237.977 312.803 237.708 310.203 237.708C293.704 237.708 278.82 246.85 271.377 261.638C271.198 261.907 270.839 262.086 270.481 262.086Z" fill="white"/>
<path opacity="0.78" d="M326.769 319.758C347.541 311.158 357.405 287.355 348.801 266.593C340.197 245.831 316.383 235.972 295.611 244.572C274.839 253.172 264.975 276.975 273.579 297.737C282.183 318.499 305.997 328.359 326.769 319.758Z" fill="white"/>
<path d="M323.653 266.836C323.653 273.737 318.094 281.176 311.189 281.176C304.285 281.176 298.726 273.737 298.726 266.836C298.726 259.935 304.285 255.095 311.189 255.095C318.094 255.095 323.653 259.935 323.653 266.836Z" fill="url(#paint54_linear_29_66)"/>
<path d="M295.677 307.616H326.164C329.392 307.616 332.171 305.554 333.158 302.507L334.772 297.398C335.937 293.634 334.054 289.601 330.288 288.257C317.914 283.686 305.092 284.313 292.001 288.705C288.324 289.96 286.262 293.813 287.338 297.578L288.594 302.238C289.49 305.375 292.359 307.616 295.677 307.616Z" fill="url(#paint55_linear_29_66)"/>
<path d="M540.595 364.56C567.138 364.56 588.656 343.052 588.656 316.521C588.656 289.99 567.138 268.482 540.595 268.482C514.051 268.482 492.533 289.99 492.533 316.521C492.533 343.052 514.051 364.56 540.595 364.56Z" fill="url(#paint56_linear_29_66)"/>
<path d="M496.299 314.997C496.21 314.997 496.299 314.997 496.299 314.997C495.761 314.997 495.403 314.549 495.403 314.011C495.492 312.129 495.761 310.158 496.03 308.365C496.12 307.917 496.568 307.558 497.106 307.648C497.555 307.738 497.913 308.186 497.824 308.724C497.465 310.516 497.286 312.309 497.196 314.191C497.106 314.639 496.748 314.997 496.299 314.997Z" fill="white"/>
<path d="M500.962 297.431C500.783 297.431 500.693 297.431 500.603 297.341C500.155 297.162 499.976 296.535 500.245 296.176C507.956 280.85 523.468 271.26 540.684 271.26C543.464 271.26 546.154 271.529 548.844 271.977C549.292 272.067 549.651 272.515 549.561 273.053C549.472 273.501 549.023 273.859 548.485 273.77C545.885 273.322 543.285 273.053 540.684 273.053C524.186 273.053 509.301 282.195 501.859 296.983C501.59 297.252 501.321 297.431 500.962 297.431Z" fill="white"/>
<path opacity="0.78" d="M570.355 346.315C586.253 330.425 586.253 304.662 570.355 288.772C554.458 272.882 528.683 272.882 512.785 288.772C496.888 304.662 496.888 330.425 512.785 346.315C528.683 362.205 554.458 362.205 570.355 346.315Z" fill="white"/>
<path d="M554.045 302.181C554.045 309.082 548.485 316.521 541.581 316.521C534.677 316.521 529.117 309.082 529.117 302.181C529.117 295.28 534.677 290.44 541.581 290.44C548.485 290.44 554.045 295.28 554.045 302.181Z" fill="url(#paint57_linear_29_66)"/>
<path d="M526.158 342.96H556.555C559.783 342.96 562.563 340.899 563.549 337.852L565.163 332.743C566.329 328.979 564.446 324.946 560.68 323.601C548.306 319.03 535.484 319.658 522.392 324.049C518.716 325.304 516.654 329.158 517.73 332.922L518.985 337.583C519.882 340.72 522.841 342.96 526.158 342.96Z" fill="url(#paint58_linear_29_66)"/>
<path d="M672.509 269.508C699.053 269.508 720.57 248 720.57 221.469C720.57 194.938 699.053 173.43 672.509 173.43C645.965 173.43 624.448 194.938 624.448 221.469C624.448 248 645.965 269.508 672.509 269.508Z" fill="url(#paint59_linear_29_66)"/>
<path d="M628.214 220.035C627.676 220.035 627.317 219.587 627.317 219.049C627.407 217.167 627.676 215.195 627.945 213.403C628.034 212.954 628.483 212.596 629.021 212.686C629.469 212.775 629.828 213.223 629.738 213.761C629.379 215.554 629.2 217.346 629.11 219.228C629.11 219.676 628.752 220.035 628.214 220.035Z" fill="white"/>
<path d="M632.876 202.468C632.697 202.468 632.607 202.468 632.518 202.379C632.069 202.199 631.89 201.572 632.159 201.214C639.87 185.888 655.383 176.298 672.599 176.298C675.378 176.298 678.068 176.567 680.758 177.015C681.207 177.104 681.565 177.553 681.476 178.09C681.386 178.538 680.938 178.897 680.4 178.807C677.799 178.359 675.199 178.09 672.599 178.09C656.1 178.09 641.215 187.232 633.773 202.02C633.594 202.289 633.235 202.468 632.876 202.468Z" fill="white"/>
<path opacity="0.78" d="M702.355 251.315C718.253 235.425 718.253 209.662 702.355 193.772C686.458 177.882 660.683 177.882 644.785 193.772C628.888 209.662 628.888 235.425 644.785 251.315C660.683 267.205 686.458 267.205 702.355 251.315Z" fill="white"/>
<path d="M686.049 207.218C686.049 214.12 680.489 221.558 673.585 221.558C666.681 221.558 661.121 214.12 661.121 207.218C661.121 200.317 666.681 195.478 673.585 195.478C680.489 195.388 686.049 200.317 686.049 207.218Z" fill="url(#paint60_linear_29_66)"/>
<path d="M658.073 247.998H688.47C691.698 247.998 694.477 245.936 695.464 242.889L697.078 237.781C698.243 234.016 696.36 229.983 692.594 228.639C680.22 224.068 667.398 224.695 654.307 229.087C650.63 230.342 648.568 234.196 649.644 237.96L650.899 242.62C651.886 245.757 654.755 247.998 658.073 247.998Z" fill="url(#paint61_linear_29_66)"/>
<path d="M679.575 467.487C706.119 467.487 727.636 445.979 727.636 419.448C727.636 392.916 706.119 371.409 679.575 371.409C653.032 371.409 631.514 392.916 631.514 419.448C631.514 445.979 653.032 467.487 679.575 467.487Z" fill="url(#paint62_linear_29_66)"/>
<path d="M635.28 418.014C635.19 418.014 635.28 418.014 635.28 418.014C634.742 418.014 634.383 417.566 634.383 417.028C634.473 415.146 634.742 413.174 635.011 411.381C635.1 410.933 635.549 410.575 636.087 410.664C636.535 410.754 636.894 411.202 636.804 411.74C636.445 413.532 636.266 415.325 636.176 417.207C636.087 417.655 635.728 418.014 635.28 418.014Z" fill="white"/>
<path d="M639.942 400.447C639.763 400.447 639.673 400.447 639.584 400.357C639.135 400.178 638.956 399.551 639.225 399.192C646.936 383.867 662.449 374.277 679.665 374.277C682.444 374.277 685.135 374.546 687.825 374.994C688.273 375.083 688.631 375.531 688.542 376.069C688.452 376.517 688.004 376.876 687.466 376.786C684.865 376.338 682.265 376.069 679.665 376.069C663.166 376.069 648.281 385.211 640.839 399.999C640.57 400.268 640.211 400.447 639.942 400.447Z" fill="white"/>
<path opacity="0.78" d="M709.355 449.315C725.253 433.425 725.253 407.662 709.355 391.772C693.458 375.882 667.683 375.882 651.785 391.772C635.887 407.662 635.888 433.425 651.785 449.315C667.683 465.205 693.458 465.205 709.355 449.315Z" fill="white"/>
<path d="M693.025 405.197C693.025 412.098 687.466 419.537 680.561 419.537C673.657 419.537 668.098 412.098 668.098 405.197C668.098 398.296 673.657 393.456 680.561 393.456C687.466 393.367 693.025 398.296 693.025 405.197Z" fill="url(#paint63_linear_29_66)"/>
<path d="M665.139 445.977H695.536C698.764 445.977 701.543 443.915 702.53 440.868L704.144 435.759C705.309 431.995 703.426 427.962 699.66 426.618C687.286 422.047 674.464 422.674 661.373 427.066C657.696 428.321 655.634 432.174 656.71 435.939L657.965 440.599C658.862 443.736 661.731 445.977 665.139 445.977Z" fill="url(#paint64_linear_29_66)"/>
<path d="M795.254 607.747C796.061 608.823 794.985 610.167 793.819 609.719C785.121 606.672 765.036 594.841 766.022 550.746C767.278 494.551 747.013 499.839 743.157 471.696C739.302 443.554 767.098 459.149 760.194 435.129C753.2 411.11 760.463 323.994 790.501 294.149C820.54 264.304 824.664 310.461 816.594 326.952C808.524 343.443 792.833 356.708 820.181 363.429C847.529 370.151 834.707 389.69 810.318 400.982C785.928 412.275 791.846 426.974 814.801 428.318C837.756 429.662 839.19 475.909 814.801 489.442C791.039 502.707 770.864 574.765 795.254 607.747Z" fill="url(#paint65_linear_29_66)"/>
<path opacity="0.65" d="M791.308 334.481C788.26 345.056 785.659 355.901 783.328 366.656C780.997 377.5 778.934 388.345 777.231 399.279C773.823 421.148 771.313 443.106 770.506 465.243C770.237 470.8 770.147 476.267 770.057 481.824C770.057 487.381 769.968 492.848 770.237 498.405C770.326 503.961 770.685 509.428 770.954 514.985C771.133 517.764 771.402 520.452 771.582 523.231L771.94 527.354L772.389 531.476C774.541 553.434 778.845 575.213 785.121 596.454C785.211 596.634 785.032 596.813 784.942 596.813C784.763 596.902 784.583 596.813 784.583 596.634L782.073 588.747C781.624 587.402 781.176 586.147 780.817 584.803L779.741 580.77C779.024 578.081 778.217 575.392 777.589 572.704L775.706 564.548C773.465 553.703 771.492 542.679 770.237 531.655L769.699 527.533L769.34 523.41C769.071 520.632 768.802 517.853 768.623 515.075C768.264 509.518 767.905 503.961 767.816 498.405C767.547 492.848 767.636 487.291 767.547 481.734C767.636 476.178 767.636 470.621 767.905 465.064C768.354 453.951 769.25 442.927 770.416 431.813C771.582 420.789 773.106 409.765 774.989 398.831C778.755 376.963 783.597 355.273 790.412 334.122C790.501 333.853 790.77 333.763 791.039 333.763C791.219 333.943 791.398 334.212 791.308 334.481Z" fill="white"/>
<path d="M794.267 611.511C793.46 611.511 792.743 611.153 792.205 610.525C788.977 606.134 777.858 587.85 796.509 564.01C818.029 536.495 823.678 534.792 817.67 516.509C811.663 498.225 812.918 491.055 830.044 495.985C847.171 500.914 848.516 487.65 846.812 477.791C845.019 468.022 827.444 440.328 857.482 432.351C887.521 424.374 904.199 457.356 893.349 477.791C882.499 498.315 859.186 517.226 869.408 528.967C879.72 540.708 885.279 544.024 872.636 551.821C859.993 559.529 841.342 544.293 831.748 555.765C827.175 561.232 828.251 564.817 830.672 567.237C832.196 568.671 831.479 571.27 829.417 571.539C817.222 573.6 795.702 581.129 796.778 608.912C796.868 610.257 795.702 611.511 794.267 611.511Z" fill="url(#paint66_linear_29_66)"/>
<path opacity="0.65" d="M864.476 459.149C865.821 462.644 866.628 466.229 867.077 469.904C867.525 473.578 867.615 477.343 867.256 481.017C866.628 488.456 864.656 495.716 861.517 502.438C859.903 505.843 858.11 509.07 856.048 512.117C853.896 515.165 851.654 518.122 849.143 520.9C847.888 522.245 846.633 523.589 845.377 524.934L841.432 528.787C838.832 531.387 836.142 533.896 833.452 536.406C828.161 541.425 822.781 546.444 817.491 551.552C812.29 556.661 807.179 561.859 802.965 567.685C800.813 570.553 798.93 573.6 797.316 576.826C795.702 580.053 794.536 583.459 793.819 586.954C793.102 590.449 792.833 594.034 793.012 597.619C793.191 601.204 793.819 604.789 794.716 608.285C794.805 608.643 794.626 609.002 794.267 609.091C793.909 609.181 793.64 609.002 793.46 608.643C791.308 601.563 790.412 593.945 791.846 586.596C793.191 579.157 796.778 572.345 801.082 566.34C803.234 563.293 805.655 560.425 808.076 557.736C810.497 554.958 813.097 552.359 815.698 549.76C820.898 544.561 826.278 539.632 831.658 534.613C834.348 532.104 836.949 529.594 839.549 526.995C842.149 524.396 844.75 521.886 847.171 519.198C849.592 516.509 851.833 513.641 853.896 510.773C855.958 507.815 857.751 504.678 859.365 501.452C862.593 494.999 864.745 488.008 865.552 480.838C866.359 473.668 866.001 466.229 863.938 459.328C863.849 459.149 863.938 458.97 864.118 458.97C864.297 458.97 864.387 459.059 864.476 459.149Z" fill="white"/>
<defs>
<linearGradient id="paint0_linear_29_66" x1="134.599" y1="335.808" x2="943.018" y2="335.808" gradientUnits="userSpaceOnUse">
<stop stop-color="#B37CFF"/>
<stop offset="1" stop-color="#F895E7"/>
</linearGradient>
<linearGradient id="paint1_linear_29_66" x1="172.413" y1="338.694" x2="905.204" y2="338.694" gradientUnits="userSpaceOnUse">
<stop stop-color="#B37CFF"/>
<stop offset="1" stop-color="#F895E7"/>
</linearGradient>
<linearGradient id="paint2_linear_29_66" x1="135.943" y1="117.851" x2="248.296" y2="668.776" gradientUnits="userSpaceOnUse">
<stop stop-color="#6AA0FF"/>
<stop offset="1" stop-color="#57B0FD"/>
</linearGradient>
<linearGradient id="paint3_linear_29_66" x1="248.857" y1="92.9399" x2="361.66" y2="646.073" gradientUnits="userSpaceOnUse">
<stop stop-color="#6AA0FF"/>
<stop offset="1" stop-color="#53AAFB"/>
</linearGradient>
<linearGradient id="paint4_linear_29_66" x1="352.399" y1="574.612" x2="223.188" y2="168.728" gradientUnits="userSpaceOnUse">
<stop stop-color="#6AA0FF"/>
<stop offset="1" stop-color="#54ABFB"/>
</linearGradient>
<linearGradient id="paint5_linear_29_66" x1="944.767" y1="363.43" x2="782.128" y2="482.337" gradientUnits="userSpaceOnUse">
<stop stop-color="#53D8FF"/>
<stop offset="1" stop-color="#3840F7"/>
</linearGradient>
<linearGradient id="paint6_linear_29_66" x1="826.611" y1="473.195" x2="1081.86" y2="359.594" gradientUnits="userSpaceOnUse">
<stop stop-color="#53D8FF"/>
<stop offset="1" stop-color="#3840F7"/>
</linearGradient>
<linearGradient id="paint7_linear_29_66" x1="270.155" y1="458.136" x2="369.016" y2="481.924" gradientUnits="userSpaceOnUse">
<stop stop-color="#53D8FF"/>
<stop offset="1" stop-color="#3840F7"/>
</linearGradient>
<linearGradient id="paint8_linear_29_66" x1="320.861" y1="457.855" x2="84.3486" y2="491.658" gradientUnits="userSpaceOnUse">
<stop stop-color="#53D8FF"/>
<stop offset="1" stop-color="#3840F7"/>
</linearGradient>
<linearGradient id="paint9_linear_29_66" x1="584.383" y1="177.592" x2="506.763" y2="872.054" gradientUnits="userSpaceOnUse">
<stop stop-color="#2C759E"/>
<stop offset="1" stop-color="#051042"/>
</linearGradient>
<linearGradient id="paint10_linear_29_66" x1="337.216" y1="251.471" x2="778.892" y2="251.471" gradientUnits="userSpaceOnUse">
<stop stop-color="#5AB6FF"/>
<stop offset="1" stop-color="#2F68E3"/>
</linearGradient>
<linearGradient id="paint11_linear_29_66" x1="337.216" y1="214.166" x2="778.892" y2="214.166" gradientUnits="userSpaceOnUse">
<stop stop-color="#53EAC9"/>
<stop offset="0.9964" stop-color="#45AED8"/>
</linearGradient>
<linearGradient id="paint12_linear_29_66" x1="337.216" y1="288.777" x2="778.892" y2="288.777" gradientUnits="userSpaceOnUse">
<stop stop-color="#53EAC9"/>
<stop offset="0.9964" stop-color="#45AED8"/>
</linearGradient>
<linearGradient id="paint13_linear_29_66" x1="336.006" y1="355.554" x2="778.892" y2="355.554" gradientUnits="userSpaceOnUse">
<stop stop-color="#5AB6FF"/>
<stop offset="1" stop-color="#2F68E3"/>
</linearGradient>
<linearGradient id="paint14_linear_29_66" x1="336.792" y1="317.167" x2="778.893" y2="317.167" gradientUnits="userSpaceOnUse">
<stop stop-color="#53EAC9"/>
<stop offset="0.9964" stop-color="#45AED8"/>
</linearGradient>
<linearGradient id="paint15_linear_29_66" x1="336.006" y1="392.643" x2="778.892" y2="392.643" gradientUnits="userSpaceOnUse">
<stop stop-color="#53EAC9"/>
<stop offset="0.9964" stop-color="#45AED8"/>
</linearGradient>
<linearGradient id="paint16_linear_29_66" x1="337.216" y1="460.794" x2="778.893" y2="460.794" gradientUnits="userSpaceOnUse">
<stop stop-color="#5AB6FF"/>
<stop offset="1" stop-color="#2F68E3"/>
</linearGradient>
<linearGradient id="paint17_linear_29_66" x1="337.217" y1="422.369" x2="778.893" y2="422.369" gradientUnits="userSpaceOnUse">
<stop stop-color="#53EAC9"/>
<stop offset="0.9964" stop-color="#45AED8"/>
</linearGradient>
<linearGradient id="paint18_linear_29_66" x1="337.216" y1="499.219" x2="778.892" y2="499.219" gradientUnits="userSpaceOnUse">
<stop stop-color="#53EAC9"/>
<stop offset="0.9964" stop-color="#45AED8"/>
</linearGradient>
<linearGradient id="paint19_linear_29_66" x1="337.216" y1="565.566" x2="779.131" y2="565.566" gradientUnits="userSpaceOnUse">
<stop stop-color="#5AB6FF"/>
<stop offset="1" stop-color="#2F68E3"/>
</linearGradient>
<linearGradient id="paint20_linear_29_66" x1="337.217" y1="527.838" x2="779.132" y2="527.838" gradientUnits="userSpaceOnUse">
<stop stop-color="#53EAC9"/>
<stop offset="0.9964" stop-color="#45AED8"/>
</linearGradient>
<linearGradient id="paint21_linear_29_66" x1="337.216" y1="603.971" x2="778.945" y2="603.971" gradientUnits="userSpaceOnUse">
<stop stop-color="#53EAC9"/>
<stop offset="0.9964" stop-color="#45AED8"/>
</linearGradient>
<linearGradient id="paint22_linear_29_66" x1="319.028" y1="619.827" x2="302.119" y2="513.421" gradientUnits="userSpaceOnUse">
<stop stop-color="#CB236D"/>
<stop offset="1" stop-color="#4C246D"/>
</linearGradient>
<linearGradient id="paint23_linear_29_66" x1="312.379" y1="620.675" x2="295.118" y2="512.048" gradientUnits="userSpaceOnUse">
<stop stop-color="#CB236D"/>
<stop offset="1" stop-color="#4C246D"/>
</linearGradient>
<linearGradient id="paint24_linear_29_66" x1="326.095" y1="623.833" x2="308.126" y2="510.749" gradientUnits="userSpaceOnUse">
<stop stop-color="#FDF53F"/>
<stop offset="1" stop-color="#D93C65"/>
</linearGradient>
<linearGradient id="paint25_linear_29_66" x1="375.584" y1="592.485" x2="361.772" y2="619.661" gradientUnits="userSpaceOnUse">
<stop stop-color="#2B3582"/>
<stop offset="1" stop-color="#150E42"/>
</linearGradient>
<linearGradient id="paint26_linear_29_66" x1="349.3" y1="603.298" x2="363.07" y2="603.298" gradientUnits="userSpaceOnUse">
<stop stop-color="#F9B776"/>
<stop offset="1" stop-color="#F47960"/>
</linearGradient>
<linearGradient id="paint27_linear_29_66" x1="330.246" y1="566.882" x2="388.724" y2="484.883" gradientUnits="userSpaceOnUse">
<stop stop-color="#2B3582"/>
<stop offset="0.2305" stop-color="#252A70"/>
<stop offset="0.7285" stop-color="#19164F"/>
<stop offset="1" stop-color="#150E42"/>
</linearGradient>
<linearGradient id="paint28_linear_29_66" x1="367.563" y1="619.956" x2="319.674" y2="682.609" gradientUnits="userSpaceOnUse">
<stop stop-color="#2B3582"/>
<stop offset="1" stop-color="#150E42"/>
</linearGradient>
<linearGradient id="paint29_linear_29_66" x1="343.583" y1="633.521" x2="380.608" y2="633.521" gradientUnits="userSpaceOnUse">
<stop stop-color="#53D8FF"/>
<stop offset="1" stop-color="#3840F7"/>
</linearGradient>
<linearGradient id="paint30_linear_29_66" x1="339.343" y1="615.999" x2="352.266" y2="615.999" gradientUnits="userSpaceOnUse">
<stop stop-color="#F9B776"/>
<stop offset="1" stop-color="#F47960"/>
</linearGradient>
<linearGradient id="paint31_linear_29_66" x1="309.155" y1="607.73" x2="312.378" y2="498.125" gradientUnits="userSpaceOnUse">
<stop stop-color="#2B3582"/>
<stop offset="1" stop-color="#150E42"/>
</linearGradient>
<linearGradient id="paint32_linear_29_66" x1="389.099" y1="501.135" x2="357.329" y2="451.386" gradientUnits="userSpaceOnUse">
<stop stop-color="#FDF53F"/>
<stop offset="1" stop-color="#D93C65"/>
</linearGradient>
<linearGradient id="paint33_linear_29_66" x1="378.83" y1="467.046" x2="423.91" y2="467.046" gradientUnits="userSpaceOnUse">
<stop stop-color="#F9B776"/>
<stop offset="1" stop-color="#F47960"/>
</linearGradient>
<linearGradient id="paint34_linear_29_66" x1="358.039" y1="413.085" x2="256.709" y2="486.814" gradientUnits="userSpaceOnUse">
<stop stop-color="#FDF53F"/>
<stop offset="1" stop-color="#D93C65"/>
</linearGradient>
<linearGradient id="paint35_linear_29_66" x1="335.818" y1="400.549" x2="365.728" y2="400.549" gradientUnits="userSpaceOnUse">
<stop stop-color="#F9B776"/>
<stop offset="1" stop-color="#F47960"/>
</linearGradient>
<linearGradient id="paint36_linear_29_66" x1="343.503" y1="393.107" x2="242.173" y2="466.836" gradientUnits="userSpaceOnUse">
<stop stop-color="#FDF53F"/>
<stop offset="1" stop-color="#D93C65"/>
</linearGradient>
<linearGradient id="paint37_linear_29_66" x1="270.803" y1="438.951" x2="359.265" y2="433.88" gradientUnits="userSpaceOnUse">
<stop stop-color="#FDF53F"/>
<stop offset="1" stop-color="#D93C65"/>
</linearGradient>
<linearGradient id="paint38_linear_29_66" x1="315.422" y1="467.589" x2="200.992" y2="666.527" gradientUnits="userSpaceOnUse">
<stop stop-color="#F9B776"/>
<stop offset="1" stop-color="#F47960"/>
</linearGradient>
<linearGradient id="paint39_linear_29_66" x1="368.794" y1="366.814" x2="344.969" y2="424.036" gradientUnits="userSpaceOnUse">
<stop stop-color="#F9B776"/>
<stop offset="1" stop-color="#F47960"/>
</linearGradient>
<linearGradient id="paint40_linear_29_66" x1="344.125" y1="385.496" x2="387.37" y2="374.33" gradientUnits="userSpaceOnUse">
<stop stop-color="#2B3582"/>
<stop offset="1" stop-color="#150E42"/>
</linearGradient>
<linearGradient id="paint41_linear_29_66" x1="325.557" y1="418.406" x2="346.892" y2="381.127" gradientUnits="userSpaceOnUse">
<stop stop-color="#F9B776"/>
<stop offset="1" stop-color="#F47960"/>
</linearGradient>
<linearGradient id="paint42_linear_29_66" x1="330.484" y1="465.217" x2="388.247" y2="484.171" gradientUnits="userSpaceOnUse">
<stop stop-color="#2B3582"/>
<stop offset="1" stop-color="#150E42"/>
</linearGradient>
<linearGradient id="paint43_linear_29_66" x1="409.841" y1="427.357" x2="451.423" y2="471.328" gradientUnits="userSpaceOnUse">
<stop stop-color="#2B3582"/>
<stop offset="1" stop-color="#150E42"/>
</linearGradient>
<linearGradient id="paint44_linear_29_66" x1="434.991" y1="438.301" x2="453.856" y2="466.722" gradientUnits="userSpaceOnUse">
<stop stop-color="#53D8FF"/>
<stop offset="1" stop-color="#3840F7"/>
</linearGradient>
<linearGradient id="paint45_linear_29_66" x1="474.421" y1="565.457" x2="404.167" y2="565.457" gradientUnits="userSpaceOnUse">
<stop stop-color="#1A1C53"/>
<stop offset="1" stop-color="#566296"/>
</linearGradient>
<linearGradient id="paint46_linear_29_66" x1="466.308" y1="565.457" x2="396.054" y2="565.457" gradientUnits="userSpaceOnUse">
<stop stop-color="#305080"/>
<stop offset="1" stop-color="#19154D"/>
</linearGradient>
<linearGradient id="paint47_linear_29_66" x1="275.893" y1="565.457" x2="205.64" y2="565.457" gradientUnits="userSpaceOnUse">
<stop stop-color="#194471"/>
<stop offset="1" stop-color="#E9A9F3"/>
</linearGradient>
<linearGradient id="paint48_linear_29_66" x1="267.781" y1="565.457" x2="197.528" y2="565.457" gradientUnits="userSpaceOnUse">
<stop stop-color="#E1A5E9"/>
<stop offset="1" stop-color="#1A4572"/>
</linearGradient>
<linearGradient id="paint49_linear_29_66" x1="490.987" y1="491.757" x2="193.009" y2="491.757" gradientUnits="userSpaceOnUse">
<stop stop-color="#1A4572"/>
<stop offset="1" stop-color="#EEABF1"/>
</linearGradient>
<linearGradient id="paint50_linear_29_66" x1="476.383" y1="145.182" x2="279.374" y2="442.945" gradientUnits="userSpaceOnUse">
<stop stop-color="#FDF53F"/>
<stop offset="1" stop-color="#D93C65"/>
</linearGradient>
<linearGradient id="paint51_linear_29_66" x1="449.128" y1="174.971" x2="353.083" y2="309.074" gradientUnits="userSpaceOnUse">
<stop stop-color="#FDF53F"/>
<stop offset="1" stop-color="#D93C65"/>
</linearGradient>
<linearGradient id="paint52_linear_29_66" x1="463.059" y1="184.948" x2="367.014" y2="319.051" gradientUnits="userSpaceOnUse">
<stop stop-color="#FDF53F"/>
<stop offset="1" stop-color="#D93C65"/>
</linearGradient>
<linearGradient id="paint53_linear_29_66" x1="346.47" y1="226.291" x2="149.461" y2="524.054" gradientUnits="userSpaceOnUse">
<stop stop-color="#FDF53F"/>
<stop offset="1" stop-color="#D93C65"/>
</linearGradient>
<linearGradient id="paint54_linear_29_66" x1="319.214" y1="256.08" x2="223.169" y2="390.183" gradientUnits="userSpaceOnUse">
<stop stop-color="#FDF53F"/>
<stop offset="1" stop-color="#D93C65"/>
</linearGradient>
<linearGradient id="paint55_linear_29_66" x1="333.145" y1="266.057" x2="237.1" y2="400.16" gradientUnits="userSpaceOnUse">
<stop stop-color="#FDF53F"/>
<stop offset="1" stop-color="#D93C65"/>
</linearGradient>
<linearGradient id="paint56_linear_29_66" x1="576.898" y1="261.635" x2="379.889" y2="559.398" gradientUnits="userSpaceOnUse">
<stop stop-color="#FDF53F"/>
<stop offset="1" stop-color="#D93C65"/>
</linearGradient>
<linearGradient id="paint57_linear_29_66" x1="549.643" y1="291.424" x2="453.598" y2="425.528" gradientUnits="userSpaceOnUse">
<stop stop-color="#FDF53F"/>
<stop offset="1" stop-color="#D93C65"/>
</linearGradient>
<linearGradient id="paint58_linear_29_66" x1="563.574" y1="301.402" x2="467.529" y2="435.505" gradientUnits="userSpaceOnUse">
<stop stop-color="#FDF53F"/>
<stop offset="1" stop-color="#D93C65"/>
</linearGradient>
<linearGradient id="paint59_linear_29_66" x1="708.854" y1="166.658" x2="511.845" y2="464.421" gradientUnits="userSpaceOnUse">
<stop stop-color="#FDF53F"/>
<stop offset="1" stop-color="#D93C65"/>
</linearGradient>
<linearGradient id="paint60_linear_29_66" x1="681.599" y1="196.447" x2="585.554" y2="330.551" gradientUnits="userSpaceOnUse">
<stop stop-color="#FDF53F"/>
<stop offset="1" stop-color="#D93C65"/>
</linearGradient>
<linearGradient id="paint61_linear_29_66" x1="695.529" y1="206.425" x2="599.485" y2="340.528" gradientUnits="userSpaceOnUse">
<stop stop-color="#FDF53F"/>
<stop offset="1" stop-color="#D93C65"/>
</linearGradient>
<linearGradient id="paint62_linear_29_66" x1="715.869" y1="364.618" x2="518.859" y2="662.381" gradientUnits="userSpaceOnUse">
<stop stop-color="#FDF53F"/>
<stop offset="1" stop-color="#D93C65"/>
</linearGradient>
<linearGradient id="paint63_linear_29_66" x1="688.613" y1="394.407" x2="592.568" y2="528.511" gradientUnits="userSpaceOnUse">
<stop stop-color="#FDF53F"/>
<stop offset="1" stop-color="#D93C65"/>
</linearGradient>
<linearGradient id="paint64_linear_29_66" x1="702.544" y1="404.385" x2="606.499" y2="538.488" gradientUnits="userSpaceOnUse">
<stop stop-color="#FDF53F"/>
<stop offset="1" stop-color="#D93C65"/>
</linearGradient>
<linearGradient id="paint65_linear_29_66" x1="893.906" y1="176.737" x2="714.777" y2="649.487" gradientUnits="userSpaceOnUse">
<stop stop-color="#6AA0FF"/>
<stop offset="1" stop-color="#57B1FD"/>
</linearGradient>
<linearGradient id="paint66_linear_29_66" x1="935.525" y1="373.096" x2="630.781" y2="867.938" gradientUnits="userSpaceOnUse">
<stop stop-color="#6AA0FF"/>
<stop offset="1" stop-color="#54ABFB"/>
</linearGradient>
</defs>
</svg>
