<svg width="873" height="975" viewBox="0 0 873 975" fill="none" xmlns="http://www.w3.org/2000/svg">
<path opacity="0.5" d="M692.665 230.685C738.978 265.135 771.751 238.55 799.772 275.015C887.148 388.83 776.449 431.99 827.847 449.41C883.722 468.39 848.959 552.045 817.512 576.225C786.066 600.405 762.743 614.965 807.343 639.665C851.999 664.365 859.791 691.73 841.056 736.19C822.32 780.65 786.839 794.69 639.443 797.29C492.047 799.955 206.595 794.365 128.724 769.015C50.8531 743.73 107.612 678.6 74.894 629.98C42.1761 581.36 35.7099 552.76 85.8368 505.57C135.964 458.38 107.391 409.565 92.3583 375.115C77.3257 340.665 58.0935 248.495 118.5 230.685C178.906 212.875 228 275.015 278 269.5C308.397 233.36 323.125 158.975 389.5 171C455.931 183.155 459.636 274.635 517.5 269.5C575.419 264.365 541.5 184 692.665 230.685Z" fill="url(#paint0_linear_1828_2)"/>
<path opacity="0.5" d="M670.169 256.367C711.026 287.706 739.547 246.708 764.2 279.953C841.21 383.607 743.641 422.887 788.941 438.769C838.161 456.027 807.496 532.152 779.881 554.175C752.178 576.197 731.619 589.432 770.908 611.878C810.284 634.429 817.079 659.31 800.614 699.755C784.15 740.2 752.875 753.012 622.987 755.447C493.099 757.882 241.599 752.8 173.039 729.719C104.393 706.638 154.484 647.346 125.562 603.09C96.7266 558.833 91.0642 532.788 135.231 489.801C179.399 446.815 154.222 402.347 140.981 371.008C127.74 339.668 102.945 283.854 156.172 267.655C209.399 251.456 245.265 309.854 286.824 294.158C313.568 261.231 323.573 183.13 382.027 194.035C440.481 205.047 457.665 319.43 508.627 314.772C559.677 310.113 574.966 216.851 670.169 256.367Z" fill="url(#paint1_linear_1828_2)"/>
<path opacity="0.82" d="M609.643 543.283C608.119 544.627 609.554 547.047 611.347 546.33C624.349 541.49 649.904 526.792 660.574 484.13C675.1 425.784 697.875 413.506 712.491 402.751C727.107 391.996 742.709 364.839 712.491 350.858C682.273 336.876 675.548 377.745 677.969 396.746C680.48 415.746 661.65 412.699 648.021 411.892C634.391 411.086 623.631 428.832 637.44 455.54C650.621 481.352 656.18 502.234 609.643 543.283Z" fill="url(#paint2_linear_1828_2)"/>
<path d="M638.299 785.38C637.492 785.38 636.775 785.022 636.237 784.394C633.009 780.003 621.89 761.719 640.541 737.879C662.061 710.364 667.71 708.661 661.702 690.378C655.694 672.094 656.95 664.924 674.076 669.854C691.202 674.783 692.547 661.518 690.844 651.66C689.05 641.891 671.476 614.197 701.514 606.22C731.552 598.243 748.23 631.225 737.381 651.66C726.531 672.184 703.218 691.095 713.44 702.836C723.751 714.577 729.311 717.893 716.668 725.69C704.025 733.398 685.374 718.161 675.78 729.633C671.207 735.101 672.283 738.686 674.704 741.106C676.228 742.54 675.511 745.139 673.448 745.408C661.254 747.469 639.734 754.997 640.81 782.781C640.899 784.126 639.734 785.38 638.299 785.38Z" fill="url(#paint3_linear_1828_2)"/>
<path opacity="0.65" d="M708.508 633.018C709.853 636.513 710.66 640.098 711.108 643.773C711.556 647.447 711.646 651.212 711.287 654.886C710.66 662.325 708.687 669.585 705.549 676.307C703.935 679.712 702.141 682.939 700.079 685.986C697.927 689.033 695.685 691.991 693.175 694.769C691.919 696.114 690.664 697.458 689.409 698.803L685.464 702.656C682.863 705.255 680.173 707.765 677.483 710.274C672.193 715.293 666.813 720.313 661.523 725.421C656.322 730.53 651.211 735.728 646.996 741.554C644.844 744.422 642.962 747.469 641.348 750.695C639.734 753.922 638.568 757.328 637.85 760.823C637.133 764.318 636.864 767.903 637.044 771.488C637.223 775.073 637.85 778.658 638.747 782.154C638.837 782.512 638.657 782.871 638.299 782.96C637.94 783.05 637.671 782.871 637.492 782.512C635.34 775.432 634.443 767.814 635.878 760.464C637.223 753.026 640.81 746.214 645.114 740.209C647.266 737.162 649.687 734.294 652.108 731.605C654.529 728.827 657.129 726.228 659.729 723.629C664.93 718.43 670.31 713.501 675.69 708.482C678.38 705.972 680.98 703.463 683.58 700.864C686.181 698.265 688.781 695.755 691.202 693.066C693.623 690.378 695.865 687.51 697.927 684.642C699.989 681.684 701.783 678.547 703.397 675.321C706.625 668.868 708.777 661.877 709.584 654.707C710.391 647.537 710.032 640.098 707.97 633.197C707.88 633.018 707.97 632.839 708.149 632.839C708.328 632.839 708.418 632.928 708.508 633.018Z" fill="white"/>
<path opacity="0.65" d="M709.801 374.16C708.904 377.476 707.559 380.703 706.214 383.84C704.78 386.977 703.255 390.114 701.462 393.071C697.965 399.076 693.84 404.633 689.178 409.741L685.591 413.506L681.825 417.001C679.135 419.421 676.624 422.289 674.652 425.336C670.617 431.431 668.106 438.332 666.133 445.143C664.161 451.955 662.636 458.856 661.112 465.757C659.588 472.569 657.884 479.38 655.822 486.102C654.746 489.418 653.67 492.734 652.414 495.961C651.787 497.574 651.069 499.187 650.442 500.8C649.724 502.414 649.007 504.027 648.29 505.551C645.241 511.824 641.565 517.829 637.44 523.476V523.565H637.53C646.676 512.81 653.401 500.083 658.063 486.729C660.395 480.007 662.278 473.196 664.071 466.384C665.864 459.573 667.478 452.761 669.541 446.129C670.617 442.813 671.693 439.587 673.038 436.36C674.383 433.223 675.997 430.176 677.88 427.398C679.763 424.619 682.004 422.11 684.515 419.869L688.46 416.194L692.137 412.251C693.302 410.907 694.468 409.473 695.634 408.128C696.71 406.694 697.786 405.26 698.862 403.826C700.834 400.869 702.807 397.821 704.421 394.595C706.035 391.458 707.559 388.142 708.725 384.736C709.353 383.033 709.891 381.33 710.339 379.627C710.787 377.925 711.146 376.132 711.415 374.34C711.505 373.981 711.236 373.623 710.787 373.533C710.249 373.533 709.891 373.802 709.801 374.16Z" fill="white"/>
<path opacity="0.82" d="M557.324 571.354C557.324 571.354 530.92 546.94 545.501 507.039C560.083 467.138 569.396 459.672 554.776 431.945C540.186 404.139 541.901 394.186 571.574 382.454C601.218 370.802 587.069 353.732 582.609 338.372C578.149 323.012 570.856 268.387 620.009 263.278C669.163 258.169 675.594 317.905 649.051 355.631C622.479 393.438 633.509 403.41 633.53 414.807C633.58 426.124 627.508 437.116 603.833 448.767C580.158 460.417 520.912 518.719 563.186 573.392L557.353 571.274L557.324 571.354Z" fill="url(#paint4_linear_1828_2)"/>
<path opacity="0.65" d="M619.76 298.08C619.804 298.457 619.95 299.052 620.095 299.648L620.481 301.324C620.721 302.406 621.041 303.517 621.173 304.649C621.624 306.892 621.887 309.157 622.07 311.393C622.486 315.973 622.554 320.518 622.354 325.055C622.153 329.592 621.603 334.093 620.945 338.645C620.207 343.167 619.309 347.632 618.251 352.039C616.056 360.823 613.243 369.564 609.98 378.052C606.717 386.539 602.975 394.852 598.941 402.969L586.951 427.269C582.918 435.386 579.074 443.481 575.121 451.627C571.247 459.803 567.403 467.898 563.69 476.131C561.833 480.247 559.976 484.364 558.199 488.51C556.423 492.655 554.726 496.83 552.869 500.946C552.869 500.946 552.84 501.026 552.76 500.997C552.76 500.997 552.68 500.968 552.709 500.888C555.703 492.394 558.807 483.849 562.041 475.442C565.355 467.064 568.937 458.692 572.651 450.459C576.285 442.197 580.158 434.022 583.951 425.818C587.824 417.643 591.778 409.497 595.702 401.431C603.63 385.327 610.498 368.658 615.23 351.394C617.556 342.747 619.323 333.897 620.095 325.048C620.535 320.598 620.707 316.141 620.53 311.647C620.427 309.44 620.245 307.204 619.982 304.94C619.851 303.807 619.69 302.755 619.479 301.593L619.173 299.945C619.107 299.379 618.933 298.864 618.925 298.138C618.903 297.949 619.041 297.818 619.23 297.797C619.419 297.775 619.55 297.913 619.571 298.101L619.76 298.08Z" fill="white"/>
<path d="M641.664 768.371C641.664 774.335 637.248 779.305 631.808 779.305H99.968C94.528 779.305 90.112 774.406 90.112 768.371L85.76 429.275C85.76 423.311 92.096 411.596 103.808 412.448L623.552 397.538C630.336 397.325 636.928 400.236 641.728 405.561C646.528 410.886 649.152 418.128 649.024 425.654L641.664 768.371Z" fill="url(#paint5_linear_1828_2)"/>
<path d="M631.936 757.863C631.936 763.543 627.776 768.158 622.656 768.158H112.832C107.712 768.158 103.552 763.543 103.552 757.863L99.392 450.078C99.904 431.547 114.496 424.873 123.392 425.299L621.568 410.46C626.368 410.318 630.976 412.377 634.304 416.069C637.696 419.832 639.552 424.944 639.424 430.198L631.936 757.863Z" fill="url(#paint6_linear_1828_2)"/>
<path d="M109.056 611.106C108.608 611.106 108.224 610.68 108.224 610.183L107.904 585.191C107.904 584.694 108.288 584.268 108.736 584.268C109.184 584.268 109.568 584.694 109.568 585.191L109.888 610.183C109.888 610.68 109.504 611.035 109.056 611.106Z" fill="white"/>
<path d="M108.224 549.904C107.776 549.904 107.392 549.478 107.392 548.981L106.112 453.344C106.112 446.954 107.904 441.842 111.424 438.079C117.76 431.334 127.68 431.689 128.064 431.689L287.168 426.932C287.616 426.932 288 427.358 288 427.855C288 428.352 287.68 428.778 287.168 428.778L128.064 433.535C127.616 433.535 118.4 433.18 112.512 439.428C109.376 442.765 107.776 447.451 107.712 453.344L108.992 548.91C109.056 549.478 108.672 549.904 108.224 549.904Z" fill="white"/>
<path opacity="0.4" d="M126.016 740.823C126.528 715.405 126.336 490.122 125.056 470.668C123.712 451.214 151.04 447.593 192.96 445.392C234.88 443.191 588.736 434.529 597.824 433.748C618.304 431.902 622.528 465.84 620.48 539.609C618.944 594.989 616.384 686.224 615.232 728.185C614.912 740.681 605.696 750.621 594.432 750.621C509.312 750.905 182.976 751.899 161.216 752.609C136.192 753.319 125.76 750.905 126.016 740.823Z" fill="white"/>
<path d="M671.36 807.421H71.232C63.872 807.421 57.792 800.747 57.792 792.511C57.792 784.346 63.808 777.601 71.232 777.601H671.36C678.72 777.601 684.8 784.275 684.8 792.511C684.8 800.676 678.784 807.421 671.36 807.421Z" fill="url(#paint7_linear_1828_2)"/>
<path d="M283.775 334.206C283.775 333.922 283.775 333.709 283.775 333.496C283.775 332.928 283.583 332.36 283.199 332.005C280.895 329.733 272.383 321.923 260.287 319.509C259.647 319.367 259.071 319.722 258.751 320.219C259.775 320.361 261.119 320.645 262.911 321.142C268.927 322.917 277.567 327.532 283.775 334.206Z" fill="url(#paint8_linear_1828_2)"/>
<path d="M262.912 321.142C261.12 320.645 259.776 320.361 258.752 320.219C258.432 320.716 258.368 321.426 258.688 322.065C258.88 322.42 259.136 322.775 259.392 323.201C261.312 325.828 276.544 343.223 276.544 343.223C276.544 343.223 281.408 343.862 282.88 342.939C283.392 342.655 283.584 337.046 283.712 334.206C277.568 327.532 268.928 322.917 262.912 321.142Z" fill="url(#paint9_linear_1828_2)"/>
<path d="M283.2 352.24V341.874C283.2 341.022 282.688 340.241 281.92 339.957C280.768 339.531 278.976 339.176 277.376 339.815C276.416 340.241 275.776 341.235 275.712 342.3L275.008 351.956L283.2 352.24Z" fill="url(#paint10_linear_1828_2)"/>
<path d="M246.144 343.081C246.016 342.655 245.824 342.3 245.568 342.087C243.584 342.513 239.552 343.72 231.168 346.986C221.504 350.749 218.624 354.086 217.856 355.861C222.016 357.21 231.424 359.269 244.992 356.358L247.68 354.938C247.616 354.938 247.424 347.767 246.144 343.081Z" fill="url(#paint11_linear_1828_2)"/>
<path d="M231.168 346.986C239.552 343.72 243.584 342.513 245.568 342.087C245.12 341.661 244.544 341.519 243.968 341.661C239.168 342.797 224.64 346.56 217.024 353.376C216.256 354.086 216.512 355.435 217.408 355.719C217.536 355.79 217.664 355.79 217.792 355.861C218.624 354.086 221.504 350.82 231.168 346.986Z" fill="url(#paint12_linear_1828_2)"/>
<path d="M252.608 361.257L246.912 353.66C246.336 352.95 245.44 352.666 244.608 352.95C243.712 353.305 242.496 353.944 241.344 355.364C240.768 356.003 240.704 356.997 241.088 357.778L245.248 366.653L252.608 361.257Z" fill="url(#paint13_linear_1828_2)"/>
<path d="M273.728 348.69C273.728 348.69 280.704 347.199 284.544 348.69C284.544 348.69 289.6 382.557 288.768 393.42L273.728 396.828C273.728 396.757 273.344 358.63 273.728 348.69Z" fill="url(#paint14_linear_1828_2)"/>
<path d="M335.36 407.975C335.36 407.975 286.272 411.028 266.304 409.537C264.32 409.395 262.592 408.117 261.76 406.129C257.472 396.615 244.672 368.144 243.584 365.446C243.584 365.446 248.768 360.618 252.608 359.979C252.608 359.979 270.784 382.415 271.552 393.846C271.552 393.846 313.664 380.427 317.824 380.569C321.984 380.711 334.72 387.03 334.72 387.03L335.36 407.975Z" fill="url(#paint15_linear_1828_2)"/>
<path d="M400.832 365.517C400.832 365.517 399.04 361.328 400.576 359.198C402.112 356.997 407.744 350.252 407.744 350.252L408.384 345.566L410.688 353.234L405.696 364.736C405.76 364.665 402.88 368.144 400.832 365.517Z" fill="url(#paint16_linear_1828_2)"/>
<path d="M413.44 384.829C411.648 377.729 409.088 370.984 405.76 364.665L400.832 365.517L403.264 384.616C405.12 385.184 410.24 386.604 413.44 384.829Z" fill="url(#paint17_linear_1828_2)"/>
<path d="M416.64 403.431C416 397.041 414.976 390.793 413.44 384.829C410.24 386.604 405.12 385.184 403.264 384.545L403.968 390.012L402.112 382.628C399.808 373.682 394.944 365.73 388.288 360.121L383.616 356.216C379.008 352.382 371.712 353.731 367.04 357.423C356.672 365.659 341.248 379.433 336 384.19C334.848 385.184 333.312 385.468 331.968 384.758L331.072 384.332C330.24 383.906 329.344 384.687 329.408 385.681L331.648 408.33L367.36 407.904C371.648 407.904 384.064 407.407 385.984 403.218L389.312 394.201C397.056 401.514 406.976 406.484 412.288 407.975C414.656 408.685 416.96 406.342 416.64 403.431Z" fill="url(#paint18_linear_1828_2)"/>
<path d="M391.616 344.075L380.672 355.861C379.968 356.642 379.904 357.92 380.544 358.772C383.936 363.245 386.816 365.588 389.248 365.801C390.272 365.872 391.232 365.304 391.808 364.31L397.632 354.086L391.616 344.075Z" fill="url(#paint19_linear_1828_2)"/>
<path d="M413.76 402.366L423.168 398.248L434.176 407.975L414.528 408.046L413.76 402.366Z" fill="url(#paint20_linear_1828_2)"/>
<path d="M409.984 341.377C409.984 341.377 408.512 353.021 404.416 356.642C400.384 360.263 392.512 357.494 389.824 348.761L395.136 333.709L409.984 341.377Z" fill="url(#paint21_linear_1828_2)"/>
<path d="M394.56 343.436C394.88 343.578 395.2 343.294 395.264 342.939C395.392 341.874 395.776 339.744 396.48 338.253C396.48 338.253 396.096 336.691 400 339.034C403.904 341.377 409.728 344.714 413.12 342.726C416.448 340.738 419.84 330.798 411.008 332.644C410.688 332.715 410.368 332.431 410.368 332.005C410.496 330.372 410.304 326.609 406.912 325.402C403.712 324.266 401.92 325.899 401.216 326.822C401.024 327.106 400.576 327.106 400.384 326.822C399.424 325.402 396.8 322.491 392.96 324.337C389.824 325.899 389.312 328.029 389.376 329.378C389.376 329.804 388.992 330.088 388.608 329.946C387.648 329.449 386.048 329.165 384.576 331.295C382.528 334.135 385.472 336.62 386.368 337.33C386.496 337.472 386.624 337.614 386.624 337.827C386.624 339.318 386.816 345.85 389.76 349.471C390.016 349.755 390.464 349.684 390.656 349.329L392.896 343.365C393.024 343.081 393.28 342.939 393.536 343.01L394.56 343.436Z" fill="url(#paint22_linear_1828_2)"/>
<path d="M394.624 344.643C394.624 344.643 393.216 338.395 391.168 340.454C389.056 342.513 391.744 346.915 394.112 347.767L394.624 344.643Z" fill="url(#paint23_linear_1828_2)"/>
<path d="M378.816 370.984C378.816 370.984 379.264 356.5 373.888 356.216C367.232 355.861 356.544 361.186 362.944 382.415C366.464 394.13 371.776 402.792 386.304 406.484C387.008 400.52 389.44 396.402 391.232 394.059C385.28 389.444 380.224 382.202 378.816 370.984Z" fill="url(#paint24_linear_1828_2)"/>
<path d="M390.528 394.13C390.4 394.13 390.336 394.13 390.208 394.059C383.36 388.734 379.584 381.421 378.304 371.126V371.055C378.432 367.221 377.856 357.139 373.888 356.926C371.968 356.855 369.984 357.21 368.192 358.062C367.936 358.204 367.616 358.062 367.488 357.778C367.36 357.494 367.488 357.139 367.744 356.997C369.6 356.074 371.776 355.648 373.888 355.79C379.584 356.074 379.328 369.99 379.328 371.055C380.608 380.995 384.256 388.024 390.784 393.207C391.04 393.42 391.104 393.775 390.912 393.988C390.848 394.059 390.72 394.13 390.528 394.13Z" fill="url(#paint25_linear_1828_2)"/>
<path d="M381.632 405.632C381.568 405.632 381.504 405.632 381.44 405.632C369.408 401.017 365.184 391.858 362.368 382.628C361.728 380.569 361.28 378.51 360.96 376.664C360.896 376.38 361.088 376.025 361.344 375.954C361.6 375.883 361.92 376.096 361.984 376.38C362.304 378.226 362.752 380.143 363.392 382.202C366.08 391.148 370.176 400.023 381.76 404.425C382.016 404.496 382.208 404.851 382.08 405.135C382.08 405.419 381.888 405.632 381.632 405.632Z" fill="url(#paint26_linear_1828_2)"/>
<path d="M416.384 407.975V402.366C416.384 402.366 402.24 402.721 391.168 394.059C389.376 396.402 386.944 400.52 386.24 406.484C393.6 408.33 403.328 408.898 416.384 407.975Z" fill="url(#paint27_linear_1828_2)"/>
<path d="M398.272 409.892C398.336 409.892 398.336 409.892 398.4 409.892L443.456 409.821C444.544 409.821 445.44 408.827 445.44 407.549C445.44 406.342 444.544 405.277 443.392 405.348L398.336 405.419C397.248 405.419 396.352 406.413 396.352 407.691C396.352 408.898 397.184 409.892 398.272 409.892Z" fill="url(#paint28_linear_1828_2)"/>
<path d="M483.904 364.523H446.4C443.648 364.523 441.088 366.298 439.936 369.067L422.592 409.892H469.248C471.04 409.892 472.64 408.685 473.28 406.839L486.72 369.067C487.488 366.866 486.016 364.523 483.904 364.523Z" fill="url(#paint29_linear_1828_2)"/>
<path d="M457.472 385.468C456.64 388.237 457.28 391.006 458.816 391.574C460.352 392.142 462.272 390.296 463.104 387.527C463.936 384.758 463.296 381.989 461.76 381.421C460.224 380.853 458.304 382.628 457.472 385.468Z" fill="url(#paint30_linear_1828_2)"/>
<path d="M187.52 823.609C187.52 823.609 185.92 826.449 185.472 834.401C185.408 835.111 185.984 835.75 186.624 835.75H199.296C199.808 835.75 200.192 835.182 200 834.685C199.232 832.271 196.992 826.307 192 822.899L187.52 823.609Z" fill="url(#paint31_linear_1828_2)"/>
<path d="M187.008 818.213L187.712 824.887C187.776 825.455 188.16 825.952 188.672 826.023C189.376 826.094 190.4 826.165 191.36 826.023C192.256 825.881 192.896 824.958 192.896 823.964V817.503L187.008 818.213Z" fill="url(#paint32_linear_1828_2)"/>
<path d="M218.944 822.828C218.944 822.828 216.512 827.017 216.576 832.768C216.576 834.117 217.6 835.182 218.816 835.182H238.528C239.424 835.182 239.808 833.833 239.04 833.265C235.328 830.354 227.968 824.958 222.656 822.828H218.944Z" fill="url(#paint33_linear_1828_2)"/>
<path d="M216.896 815.657L218.432 823.893C218.624 824.816 219.392 825.455 220.224 825.242C220.736 825.1 221.312 824.887 221.952 824.461C222.528 824.035 222.848 823.254 222.72 822.473L221.12 812.462L216.896 815.657Z" fill="url(#paint34_linear_1828_2)"/>
<path d="M189.824 700.992C189.824 700.992 184.512 706.175 183.488 712.494C182.464 718.742 186.304 820.556 186.304 820.556C186.304 820.556 191.616 821.55 194.368 819.704C194.368 819.704 197.632 753.603 200.128 738.338C200.128 738.338 213.12 806.782 216.704 819.136C216.704 819.136 221.824 819.846 223.488 818.781C223.488 818.781 220.096 730.031 215.808 714.269L189.824 700.992Z" fill="url(#paint35_linear_1828_2)"/>
<path d="M199.936 736.208C199.68 736.208 199.424 735.995 199.36 735.711L197.184 726.339L192.512 723.002C192.256 722.789 192.128 722.363 192.32 722.079C192.512 721.795 192.896 721.653 193.152 721.866L198.016 725.345C198.144 725.416 198.272 725.558 198.272 725.771L200.512 735.427C200.576 735.782 200.384 736.137 200.064 736.279C200.064 736.208 200 736.208 199.936 736.208Z" fill="#666694"/>
<path d="M242.304 642.133C219.904 640.074 214.016 645.186 214.016 645.186L224.768 664.072C224.768 664.072 246.784 663.575 262.592 650.085C259.648 646.535 257.6 642.63 256.256 639.648C252.224 641.565 247.552 642.63 242.304 642.133Z" fill="url(#paint36_linear_1828_2)"/>
<path d="M277.44 605.71C277.44 604.929 276.416 604.716 276.16 605.426L273.28 612.171C272.704 613.449 272.576 614.94 272.768 616.36L273.792 620.265C274.112 622.182 273.664 624.17 272.512 625.661C269.888 629.282 264.32 635.956 256.32 639.648C257.664 642.701 259.712 646.606 262.656 650.085C268.416 645.115 273.408 638.441 276.096 629.353C277.376 628.927 278.272 627.578 278.208 626.016L277.44 605.71Z" fill="url(#paint37_linear_1828_2)"/>
<path d="M249.728 653.067C241.856 643.624 226.816 639.364 218.112 637.66C214.272 636.879 210.56 639.222 209.216 643.269C205.312 654.913 194.624 685.301 192.576 690.555C190.912 694.815 189.12 699.004 187.968 701.631C187.328 703.193 187.904 705.039 189.312 705.82C196.608 709.725 209.792 714.127 215.168 715.902C216.32 716.257 217.536 715.334 217.536 713.914C217.536 712.778 217.792 711.642 218.368 710.648L238.592 673.231C251.2 688.709 262.208 690.129 270.72 686.792C269.312 681.893 268.352 676.994 267.904 672.095C255.296 669.752 249.728 653.067 249.728 653.067Z" fill="url(#paint38_linear_1828_2)"/>
<path d="M292.032 667.125L288.704 661.942C281.28 669.113 272.768 673.018 267.776 672.095C268.224 676.994 269.184 681.893 270.592 686.792C281.792 682.319 292.032 667.125 292.032 667.125Z" fill="url(#paint39_linear_1828_2)"/>
<path d="M288.704 662.013L296.064 673.515L308.416 679.408C308.224 677.207 300.736 670.32 300.736 670.32C300.736 670.32 295.872 660.522 294.208 658.179C292.864 656.191 290.496 658.676 289.728 659.528C289.6 659.741 289.472 659.812 289.472 659.812L288.704 662.013Z" fill="url(#paint40_linear_1828_2)"/>
<path d="M230.08 620.336L223.36 638.512C223.36 638.512 231.104 644.476 237.312 643.908L240.64 627.578L230.08 620.336Z" fill="url(#paint41_linear_1828_2)"/>
<path d="M237.248 605.639C237.248 605.639 246.528 614.798 247.04 621.472C247.552 628.146 240.128 634.891 230.656 632.122L220.864 616.644L237.248 605.639Z" fill="url(#paint42_linear_1828_2)"/>
<path d="M229.056 623.602C229.376 623.318 229.376 622.821 229.12 622.537C228.288 621.685 226.624 619.91 225.856 618.206C225.856 618.206 224.256 617.638 228.8 614.94C233.344 612.242 240.064 608.195 240.512 603.154C240.96 598.255 234.432 588.173 230.336 598.894C230.208 599.32 229.696 599.462 229.376 599.178C228.032 597.971 224.64 595.699 221.376 598.681C218.304 601.379 218.56 604.361 218.944 605.781C219.072 606.207 218.816 606.633 218.432 606.633C216.576 606.775 212.288 607.698 211.456 613.023C210.752 617.425 212.352 619.342 213.568 620.194C213.952 620.478 213.952 621.046 213.568 621.33C212.48 622.04 211.264 623.602 212.096 626.513C213.248 630.631 217.344 628.998 218.496 628.501C218.688 628.43 218.88 628.43 219.072 628.572C220.416 629.495 226.24 633.542 231.36 632.69C231.808 632.619 232 632.051 231.808 631.625L228.032 625.306C227.84 625.022 227.904 624.596 228.16 624.383L229.056 623.602Z" fill="url(#paint43_linear_1828_2)"/>
<path d="M230.144 624.312C230.144 624.312 223.744 621.756 224.192 625.306C224.64 628.856 230.272 628.927 232.576 626.868L230.144 624.312Z" fill="url(#paint44_linear_1828_2)"/>
<path d="M477.568 493.388C476.032 491.755 473.92 490.974 471.744 491.187C448.96 493.459 413.184 467.544 378.688 449.723C376.192 448.445 373.248 448.8 371.008 450.575C340.096 476.206 288.896 481.531 271.104 482.596C267.456 482.809 264.448 486.004 264.064 490.051C247.872 663.291 349.568 726.055 370.688 737.131C372.992 738.338 375.68 738.196 377.856 736.705C482.944 664.072 478.464 569.642 479.936 499.636C480 497.293 479.104 495.021 477.568 493.388Z" fill="url(#paint45_linear_1828_2)"/>
<path d="M371.136 726.552C370.944 726.552 370.816 726.481 370.688 726.41C370.432 726.197 341.632 704.4 316.16 666.841C301.184 644.76 290.176 621.543 283.584 597.971C275.264 568.435 273.792 538.189 279.104 508.014C279.168 507.588 279.552 507.233 280 507.304C280.192 507.304 298.048 508.653 319.168 504.677C338.624 500.985 364.928 491.897 379.904 469.532C380.032 469.319 380.288 469.177 380.544 469.177C380.8 469.177 381.056 469.319 381.184 469.532C381.44 469.887 407.936 504.748 428.992 513.126C449.984 521.504 465.344 517.883 465.536 517.883C465.792 517.812 466.048 517.883 466.24 518.025C466.432 518.167 466.56 518.451 466.56 518.735C466.56 519.09 467.136 552.034 455.744 593.924C449.088 618.49 439.616 641.352 427.712 661.729C412.8 687.218 393.984 709.015 371.712 726.552C371.456 726.552 371.328 726.552 371.136 726.552ZM280.512 509.15C268.928 576.458 294.144 631.412 317.376 665.705C340.928 700.495 367.296 721.582 371.072 724.564C420.8 685.301 443.648 631.554 454.016 593.285C464.128 555.939 464.704 525.764 464.768 519.729C460.992 520.439 446.976 522.143 428.352 514.688C408.512 506.736 384.896 477.058 380.544 471.378C365.184 493.601 338.88 502.689 319.36 506.381C300.416 510.002 284.096 509.363 280.512 509.15Z" fill="white"/>
<path d="M403.2 650.937H338.624C334.208 650.937 330.752 647.387 330.496 642.701L327.04 574.47C326.912 572.056 327.68 569.855 329.152 568.009C330.624 566.234 332.736 565.169 334.912 565.098L403.072 562.613C405.312 562.542 407.552 563.465 409.088 565.169C410.816 567.015 411.776 569.358 411.776 571.701V642.63C411.776 647.245 408 650.937 403.2 650.937ZM403.328 563.82C403.264 563.82 403.2 563.82 403.072 563.82L334.912 566.305C333.056 566.376 331.2 567.299 329.92 568.861C328.64 570.423 328 572.34 328.064 574.399L331.52 642.701C331.712 646.748 334.72 649.73 338.56 649.73H403.2C406.848 649.73 410.624 647.032 410.624 642.559V571.63C410.624 569.642 409.792 567.654 408.32 566.021C407.04 564.601 405.184 563.82 403.328 563.82Z" fill="white"/>
<path d="M343.232 566.305C342.848 566.305 342.464 565.95 342.4 565.524C340.224 549.336 342.272 536.627 348.416 527.681C355.328 517.741 364.736 516.392 365.184 516.321C373.952 515.185 381.696 517.457 387.712 522.853C393.472 528.036 397.504 536.13 399.296 546.07C399.296 546.141 399.296 546.141 399.296 546.212L400.448 563.252C400.512 563.749 400.128 564.175 399.68 564.246C399.232 564.317 398.848 563.891 398.784 563.394L397.632 546.425C394.048 526.616 381.952 516.037 365.312 518.167C365.248 518.167 356.096 519.516 349.632 528.817C343.808 537.266 341.888 549.549 343.936 565.24C344 565.737 343.68 566.234 343.232 566.305C343.296 566.305 343.232 566.305 343.232 566.305Z" fill="white"/>
<path d="M354.368 566.305C353.984 566.305 353.6 565.95 353.536 565.524C353.408 564.814 351.232 548.129 358.4 538.899C361.408 534.994 365.632 533.006 371.008 533.006C376.512 533.006 380.8 534.994 383.68 538.899C390.272 547.774 387.584 563.323 387.52 563.962C387.456 564.459 387.008 564.814 386.56 564.672C386.112 564.601 385.792 564.104 385.92 563.607C385.92 563.465 388.544 548.271 382.464 540.035C379.904 536.556 376.064 534.781 371.072 534.781C366.208 534.781 362.432 536.556 359.744 540.035C353.088 548.626 355.264 565.027 355.264 565.24C355.328 565.737 355.008 566.234 354.56 566.305C354.496 566.305 354.432 566.305 354.368 566.305Z" fill="white"/>
<path d="M369.984 637.802H369.408C366.464 637.802 362.112 633.897 362.112 630.418V601.095V601.024C358.656 598.894 356.736 595.202 356.736 590.658C356.736 583.842 362.816 578.304 370.304 578.304C377.792 578.304 383.808 583.842 383.808 590.658C383.808 596.125 379.328 600.385 375.04 602.089V630.418C375.104 633.897 372.992 637.802 369.984 637.802ZM363.2 601.663V630.418C363.2 632.974 366.784 636.524 369.344 636.524H369.92C372.224 636.524 373.888 633.258 373.888 630.418V601.663C373.888 601.379 374.016 601.166 374.272 601.095C378.432 599.533 382.656 595.486 382.656 590.729C382.656 584.623 377.088 579.653 370.24 579.653C363.392 579.653 357.76 584.623 357.76 590.729C357.76 595.273 359.872 598.823 363.648 600.598C363.84 600.669 363.968 600.953 363.968 601.166C364.032 601.592 363.648 601.663 363.2 601.663Z" fill="white"/>
<path opacity="0.2" d="M156.16 615.437H17.344C14.4 615.437 11.968 612.739 11.968 609.473C11.968 606.207 14.4 603.509 17.344 603.509H156.16C159.104 603.509 161.536 606.207 161.536 609.473C161.536 612.739 159.104 615.437 156.16 615.437Z" fill="url(#paint46_linear_1828_2)"/>
<path opacity="0.53" d="M172.8 638.725H34.048C31.104 638.725 28.672 636.027 28.672 632.761C28.672 629.495 31.104 626.797 34.048 626.797H172.8C175.744 626.797 178.176 629.495 178.176 632.761C178.176 636.098 175.808 638.725 172.8 638.725Z" fill="url(#paint47_linear_1828_2)"/>
<path opacity="0.53" d="M133.376 685.443H34.048C31.104 685.443 28.672 682.745 28.672 679.479C28.672 676.213 31.104 673.515 34.048 673.515H133.376C136.32 673.515 138.752 676.213 138.752 679.479C138.752 682.745 136.32 685.443 133.376 685.443Z" fill="url(#paint48_linear_1828_2)"/>
<path opacity="0.2" d="M188.416 662.084H49.6C46.656 662.084 44.224 659.386 44.224 656.12C44.224 652.854 46.656 650.156 49.6 650.156H188.416C191.36 650.156 193.792 652.854 193.792 656.12C193.728 659.457 191.36 662.084 188.416 662.084Z" fill="url(#paint49_linear_1828_2)"/>
<path opacity="0.2" d="M678.72 478.478H539.904C536.96 478.478 534.528 475.78 534.528 472.514C534.528 469.248 536.96 466.55 539.904 466.55H678.72C681.664 466.55 684.096 469.248 684.096 472.514C684.096 475.851 681.664 478.478 678.72 478.478Z" fill="white"/>
<path opacity="0.53" d="M695.36 501.837H556.544C553.6 501.837 551.168 499.139 551.168 495.873C551.168 492.607 553.6 489.909 556.544 489.909H695.36C698.304 489.909 700.736 492.607 700.736 495.873C700.736 499.21 698.368 501.837 695.36 501.837Z" fill="white"/>
<path opacity="0.53" d="M655.872 548.555H556.544C553.6 548.555 551.168 545.857 551.168 542.591C551.168 539.325 553.6 536.627 556.544 536.627H655.872C658.816 536.627 661.248 539.325 661.248 542.591C661.248 545.857 658.88 548.555 655.872 548.555Z" fill="white"/>
<path opacity="0.2" d="M710.912 525.196H572.16C569.216 525.196 566.784 522.498 566.784 519.232C566.784 515.966 569.216 513.268 572.16 513.268H710.976C713.92 513.268 716.352 515.966 716.352 519.232C716.288 522.498 713.92 525.196 710.912 525.196Z" fill="white"/>
<defs>
<linearGradient id="paint0_linear_1828_2" x1="857.41" y1="500.855" x2="49.3" y2="500.855" gradientUnits="userSpaceOnUse">
<stop stop-color="#E9A9F3"/>
<stop offset="1" stop-color="#C99EFE"/>
</linearGradient>
<linearGradient id="paint1_linear_1828_2" x1="815.004" y1="485.568" x2="103.067" y2="485.568" gradientUnits="userSpaceOnUse">
<stop stop-color="#B37CFF"/>
<stop offset="1" stop-color="#F895E7"/>
</linearGradient>
<linearGradient id="paint2_linear_1828_2" x1="726.829" y1="175.366" x2="614.476" y2="726.291" gradientUnits="userSpaceOnUse">
<stop stop-color="#6AA0FF"/>
<stop offset="1" stop-color="#57B0FD"/>
</linearGradient>
<linearGradient id="paint3_linear_1828_2" x1="779.557" y1="546.965" x2="474.813" y2="1041.81" gradientUnits="userSpaceOnUse">
<stop stop-color="#6AA0FF"/>
<stop offset="1" stop-color="#54ABFB"/>
</linearGradient>
<linearGradient id="paint4_linear_1828_2" x1="592.049" y1="685.684" x2="608.259" y2="282.205" gradientUnits="userSpaceOnUse">
<stop stop-color="#6AA0FF"/>
<stop offset="1" stop-color="#54ABFB"/>
</linearGradient>
<linearGradient id="paint5_linear_1828_2" x1="317.345" y1="753.19" x2="468.441" y2="344.591" gradientUnits="userSpaceOnUse">
<stop stop-color="#2B3582"/>
<stop offset="1" stop-color="#150E42"/>
</linearGradient>
<linearGradient id="paint6_linear_1828_2" x1="118.546" y1="752.827" x2="1037.72" y2="290.661" gradientUnits="userSpaceOnUse">
<stop stop-color="#53D8FF"/>
<stop offset="1" stop-color="#3840F7"/>
</linearGradient>
<linearGradient id="paint7_linear_1828_2" x1="347.867" y1="934.713" x2="405.687" y2="649.736" gradientUnits="userSpaceOnUse">
<stop stop-color="#2B3582"/>
<stop offset="1" stop-color="#150E42"/>
</linearGradient>
<linearGradient id="paint8_linear_1828_2" x1="258.765" y1="326.845" x2="283.781" y2="326.845" gradientUnits="userSpaceOnUse">
<stop stop-color="#53D8FF"/>
<stop offset="1" stop-color="#3840F7"/>
</linearGradient>
<linearGradient id="paint9_linear_1828_2" x1="258.495" y1="331.826" x2="283.759" y2="331.826" gradientUnits="userSpaceOnUse">
<stop stop-color="#2B3582"/>
<stop offset="1" stop-color="#150E42"/>
</linearGradient>
<linearGradient id="paint10_linear_1828_2" x1="277.179" y1="332.401" x2="285.259" y2="382.237" gradientUnits="userSpaceOnUse">
<stop stop-color="#F9B776"/>
<stop offset="1" stop-color="#F47960"/>
</linearGradient>
<linearGradient id="paint11_linear_1828_2" x1="217.824" y1="349.978" x2="247.621" y2="349.978" gradientUnits="userSpaceOnUse">
<stop stop-color="#2B3582"/>
<stop offset="1" stop-color="#150E42"/>
</linearGradient>
<linearGradient id="paint12_linear_1828_2" x1="216.556" y1="348.748" x2="245.563" y2="348.748" gradientUnits="userSpaceOnUse">
<stop stop-color="#53D8FF"/>
<stop offset="1" stop-color="#3840F7"/>
</linearGradient>
<linearGradient id="paint13_linear_1828_2" x1="243.939" y1="337.79" x2="252.02" y2="387.627" gradientUnits="userSpaceOnUse">
<stop stop-color="#F9B776"/>
<stop offset="1" stop-color="#F47960"/>
</linearGradient>
<linearGradient id="paint14_linear_1828_2" x1="291.286" y1="308.499" x2="268.796" y2="422.484" gradientUnits="userSpaceOnUse">
<stop stop-color="#53D8FF"/>
<stop offset="1" stop-color="#3840F7"/>
</linearGradient>
<linearGradient id="paint15_linear_1828_2" x1="284.903" y1="367.567" x2="328.946" y2="445.13" gradientUnits="userSpaceOnUse">
<stop stop-color="#53D8FF"/>
<stop offset="1" stop-color="#3840F7"/>
</linearGradient>
<linearGradient id="paint16_linear_1828_2" x1="399.956" y1="355.985" x2="410.759" y2="355.985" gradientUnits="userSpaceOnUse">
<stop stop-color="#F9B776"/>
<stop offset="1" stop-color="#F47960"/>
</linearGradient>
<linearGradient id="paint17_linear_1828_2" x1="400.833" y1="375.178" x2="413.449" y2="375.178" gradientUnits="userSpaceOnUse">
<stop stop-color="#F9B776"/>
<stop offset="1" stop-color="#F47960"/>
</linearGradient>
<linearGradient id="paint18_linear_1828_2" x1="421.487" y1="351.431" x2="307.363" y2="435.727" gradientUnits="userSpaceOnUse">
<stop stop-color="#FDF53F"/>
<stop offset="1" stop-color="#D93C65"/>
</linearGradient>
<linearGradient id="paint19_linear_1828_2" x1="380.035" y1="354.986" x2="397.561" y2="354.986" gradientUnits="userSpaceOnUse">
<stop stop-color="#F9B776"/>
<stop offset="1" stop-color="#F47960"/>
</linearGradient>
<linearGradient id="paint20_linear_1828_2" x1="436.251" y1="393.808" x2="385.347" y2="431.94" gradientUnits="userSpaceOnUse">
<stop stop-color="#F9B776"/>
<stop offset="1" stop-color="#F47960"/>
</linearGradient>
<linearGradient id="paint21_linear_1828_2" x1="402.317" y1="353.774" x2="394.767" y2="331.327" gradientUnits="userSpaceOnUse">
<stop stop-color="#F9B776"/>
<stop offset="1" stop-color="#F47960"/>
</linearGradient>
<linearGradient id="paint22_linear_1828_2" x1="396.673" y1="311.757" x2="403.78" y2="348.297" gradientUnits="userSpaceOnUse">
<stop stop-color="#2B3582"/>
<stop offset="1" stop-color="#150E42"/>
</linearGradient>
<linearGradient id="paint23_linear_1828_2" x1="395.839" y1="355.953" x2="388.289" y2="333.506" gradientUnits="userSpaceOnUse">
<stop stop-color="#F9B776"/>
<stop offset="1" stop-color="#F47960"/>
</linearGradient>
<linearGradient id="paint24_linear_1828_2" x1="414.507" y1="347.65" x2="304.296" y2="429.055" gradientUnits="userSpaceOnUse">
<stop stop-color="#FDF53F"/>
<stop offset="1" stop-color="#D93C65"/>
</linearGradient>
<linearGradient id="paint25_linear_1828_2" x1="350.07" y1="390.914" x2="407.623" y2="366.191" gradientUnits="userSpaceOnUse">
<stop stop-color="#FDF53F"/>
<stop offset="1" stop-color="#D93C65"/>
</linearGradient>
<linearGradient id="paint26_linear_1828_2" x1="362.093" y1="400.896" x2="392.911" y2="374.149" gradientUnits="userSpaceOnUse">
<stop stop-color="#FDF53F"/>
<stop offset="1" stop-color="#D93C65"/>
</linearGradient>
<linearGradient id="paint27_linear_1828_2" x1="426.192" y1="380.379" x2="375.288" y2="418.511" gradientUnits="userSpaceOnUse">
<stop stop-color="#F9B776"/>
<stop offset="1" stop-color="#F47960"/>
</linearGradient>
<linearGradient id="paint28_linear_1828_2" x1="390.606" y1="396.636" x2="427.036" y2="407.406" gradientUnits="userSpaceOnUse">
<stop stop-color="#2B3582"/>
<stop offset="1" stop-color="#150E42"/>
</linearGradient>
<linearGradient id="paint29_linear_1828_2" x1="439.739" y1="370.619" x2="468.325" y2="397.854" gradientUnits="userSpaceOnUse">
<stop stop-color="#2B3582"/>
<stop offset="1" stop-color="#150E42"/>
</linearGradient>
<linearGradient id="paint30_linear_1828_2" x1="455.312" y1="378.139" x2="468.746" y2="396.377" gradientUnits="userSpaceOnUse">
<stop stop-color="#53D8FF"/>
<stop offset="1" stop-color="#3840F7"/>
</linearGradient>
<linearGradient id="paint31_linear_1828_2" x1="185.513" y1="829.286" x2="200.115" y2="829.286" gradientUnits="userSpaceOnUse">
<stop stop-color="#2B3582"/>
<stop offset="1" stop-color="#150E42"/>
</linearGradient>
<linearGradient id="paint32_linear_1828_2" x1="186.994" y1="821.759" x2="192.916" y2="821.759" gradientUnits="userSpaceOnUse">
<stop stop-color="#F9B776"/>
<stop offset="1" stop-color="#F47960"/>
</linearGradient>
<linearGradient id="paint33_linear_1828_2" x1="216.565" y1="829.028" x2="239.475" y2="829.028" gradientUnits="userSpaceOnUse">
<stop stop-color="#2B3582"/>
<stop offset="1" stop-color="#150E42"/>
</linearGradient>
<linearGradient id="paint34_linear_1828_2" x1="216.913" y1="818.842" x2="222.802" y2="818.842" gradientUnits="userSpaceOnUse">
<stop stop-color="#F9B776"/>
<stop offset="1" stop-color="#F47960"/>
</linearGradient>
<linearGradient id="paint35_linear_1828_2" x1="211.204" y1="647.916" x2="195.605" y2="840.549" gradientUnits="userSpaceOnUse">
<stop stop-color="#53D8FF"/>
<stop offset="1" stop-color="#3840F7"/>
</linearGradient>
<linearGradient id="paint36_linear_1828_2" x1="233.369" y1="650.932" x2="255.649" y2="641.874" gradientUnits="userSpaceOnUse">
<stop stop-color="#FDF53F"/>
<stop offset="1" stop-color="#D93C65"/>
</linearGradient>
<linearGradient id="paint37_linear_1828_2" x1="256.316" y1="627.538" x2="278.203" y2="627.538" gradientUnits="userSpaceOnUse">
<stop stop-color="#F9B776"/>
<stop offset="1" stop-color="#F47960"/>
</linearGradient>
<linearGradient id="paint38_linear_1828_2" x1="236.179" y1="621.013" x2="221.471" y2="746.571" gradientUnits="userSpaceOnUse">
<stop stop-color="#FDF53F"/>
<stop offset="1" stop-color="#D93C65"/>
</linearGradient>
<linearGradient id="paint39_linear_1828_2" x1="313.245" y1="623.643" x2="250.026" y2="694.539" gradientUnits="userSpaceOnUse">
<stop stop-color="#F9B776"/>
<stop offset="1" stop-color="#F47960"/>
</linearGradient>
<linearGradient id="paint40_linear_1828_2" x1="326.289" y1="668.983" x2="250.815" y2="667.579" gradientUnits="userSpaceOnUse">
<stop stop-color="#F9B776"/>
<stop offset="1" stop-color="#F47960"/>
</linearGradient>
<linearGradient id="paint41_linear_1828_2" x1="252.671" y1="593.385" x2="199.125" y2="682.072" gradientUnits="userSpaceOnUse">
<stop stop-color="#F9B776"/>
<stop offset="1" stop-color="#F47960"/>
</linearGradient>
<linearGradient id="paint42_linear_1828_2" x1="243.151" y1="621.928" x2="218.649" y2="615.275" gradientUnits="userSpaceOnUse">
<stop stop-color="#F9B776"/>
<stop offset="1" stop-color="#F47960"/>
</linearGradient>
<linearGradient id="paint43_linear_1828_2" x1="202.642" y1="600.824" x2="239.802" y2="615.518" gradientUnits="userSpaceOnUse">
<stop stop-color="#2B3582"/>
<stop offset="1" stop-color="#150E42"/>
</linearGradient>
<linearGradient id="paint44_linear_1828_2" x1="240.869" y1="630.331" x2="216.367" y2="623.678" gradientUnits="userSpaceOnUse">
<stop stop-color="#F9B776"/>
<stop offset="1" stop-color="#F47960"/>
</linearGradient>
<linearGradient id="paint45_linear_1828_2" x1="262.354" y1="593.455" x2="479.932" y2="593.455" gradientUnits="userSpaceOnUse">
<stop stop-color="#DBBEFE"/>
<stop offset="1" stop-color="#E8A0F5"/>
</linearGradient>
<linearGradient id="paint46_linear_1828_2" x1="11.9727" y1="609.454" x2="161.514" y2="609.454" gradientUnits="userSpaceOnUse">
<stop stop-color="#53D8FF"/>
<stop offset="1" stop-color="#3840F7"/>
</linearGradient>
<linearGradient id="paint47_linear_1828_2" x1="81.6209" y1="598.102" x2="258.79" y2="827.182" gradientUnits="userSpaceOnUse">
<stop stop-color="#53D8FF"/>
<stop offset="1" stop-color="#3840F7"/>
</linearGradient>
<linearGradient id="paint48_linear_1828_2" x1="37.3571" y1="712.683" x2="153.77" y2="644.877" gradientUnits="userSpaceOnUse">
<stop stop-color="#53D8FF"/>
<stop offset="1" stop-color="#3840F7"/>
</linearGradient>
<linearGradient id="paint49_linear_1828_2" x1="44.2159" y1="656.133" x2="193.758" y2="656.133" gradientUnits="userSpaceOnUse">
<stop stop-color="#53D8FF"/>
<stop offset="1" stop-color="#3840F7"/>
</linearGradient>
</defs>
</svg>
