<svg width="164" height="165" viewBox="0 0 164 165" fill="none" xmlns="http://www.w3.org/2000/svg">
<g filter="url(#filter0_dd_38_719)">
<circle cx="82" cy="63" r="42" fill="white"/>
</g>
<path d="M89.5833 61.9167H74.4167C73.22 61.9167 72.25 62.8868 72.25 64.0834V71.6667C72.25 72.8634 73.22 73.8334 74.4167 73.8334H89.5833C90.78 73.8334 91.75 72.8634 91.75 71.6667V64.0834C91.75 62.8868 90.78 61.9167 89.5833 61.9167Z" stroke="#6AA0FF" stroke-width="2" stroke-linecap="round" stroke-linejoin="round"/>
<path d="M76.5833 61.9167V57.5834C76.5833 56.1468 77.154 54.7691 78.1698 53.7533C79.1856 52.7374 80.5634 52.1667 82 52.1667C83.4366 52.1667 84.8143 52.7374 85.8301 53.7533C86.846 54.7691 87.4166 56.1468 87.4166 57.5834V61.9167" stroke="#6AA0FF" stroke-width="2" stroke-linecap="round" stroke-linejoin="round"/>
<defs>
<filter id="filter0_dd_38_719" x="0" y="0" width="164" height="165" filterUnits="userSpaceOnUse" color-interpolation-filters="sRGB">
<feFlood flood-opacity="0" result="BackgroundImageFix"/>
<feColorMatrix in="SourceAlpha" type="matrix" values="0 0 0 0 0 0 0 0 0 0 0 0 0 0 0 0 0 0 127 0" result="hardAlpha"/>
<feOffset dy="3"/>
<feGaussianBlur stdDeviation="12"/>
<feColorMatrix type="matrix" values="0 0 0 0 0 0 0 0 0 0 0 0 0 0 0 0 0 0 0.07 0"/>
<feBlend mode="normal" in2="BackgroundImageFix" result="effect1_dropShadow_38_719"/>
<feColorMatrix in="SourceAlpha" type="matrix" values="0 0 0 0 0 0 0 0 0 0 0 0 0 0 0 0 0 0 127 0" result="hardAlpha"/>
<feOffset dy="20"/>
<feGaussianBlur stdDeviation="20"/>
<feColorMatrix type="matrix" values="0 0 0 0 0 0 0 0 0 0 0 0 0 0 0 0 0 0 0.06 0"/>
<feBlend mode="normal" in2="effect1_dropShadow_38_719" result="effect2_dropShadow_38_719"/>
<feBlend mode="normal" in="SourceGraphic" in2="effect2_dropShadow_38_719" result="shape"/>
</filter>
</defs>
</svg>
