<svg width="290" height="290" viewBox="0 0 290 290" fill="none" xmlns="http://www.w3.org/2000/svg">
<path d="M229.583 132.916H60.4167C47.0698 132.916 36.25 143.736 36.25 157.083V241.666C36.25 255.013 47.0698 265.833 60.4167 265.833H229.583C242.93 265.833 253.75 255.013 253.75 241.666V157.083C253.75 143.736 242.93 132.916 229.583 132.916Z" stroke="#6AA0FF" stroke-opacity="0.15" stroke-width="6" stroke-linecap="round" stroke-linejoin="round"/>
<path d="M84.5837 132.916V84.5829C84.5837 68.5594 90.949 53.1922 102.279 41.8619C113.61 30.5316 128.977 24.1663 145 24.1663C161.024 24.1663 176.391 30.5316 187.721 41.8619C199.052 53.1922 205.417 68.5594 205.417 84.5829V132.916" stroke="#6AA0FF" stroke-opacity="0.15" stroke-width="6" stroke-linecap="round" stroke-linejoin="round"/>
</svg>
