<svg width="149" height="40" viewBox="0 0 149 40" fill="none" xmlns="http://www.w3.org/2000/svg">
<path d="M60.1394 30.9218L58.6741 27.8001H51.2204L49.7233 30.9218H45.3275L54.9154 11.4911L64.5352 30.9218H60.1394ZM57.3044 24.5511L54.9154 19.3908L52.5264 24.5511H57.3044Z" fill="#020203"/>
<path d="M72.0207 16.0462H75.2698V19.5501H72.0207V30.9536H68.1983V19.5501H66.096V16.0462H68.1983V14.9313C68.1983 12.0326 70.3006 9.93031 73.2311 9.93031C74.6964 9.93031 75.9705 10.3126 76.8943 10.9815L75.1424 13.9757C74.5371 13.4979 74.123 13.4023 73.5497 13.4023C72.5622 13.4023 71.9889 14.1031 71.9889 14.995V16.0462H72.0207Z" fill="#020203"/>
<path d="M88.712 30.0617C87.7882 30.7944 86.5141 31.1766 84.9532 31.1766C81.8316 31.1766 79.9523 29.2973 79.9523 26.2075L79.9841 19.5182H77.8499V16.0144H79.9841V13.5935L83.8065 12.8927V16.0144H87.7564V19.5182H83.8065V25.9526C83.8065 27.0357 84.3799 27.6727 85.3992 27.6727C86.1318 27.6727 86.5459 27.4816 87.0237 27.0994L88.712 30.0617Z" fill="#020203"/>
<path d="M100.976 16.0143V19.8686C100.498 19.8049 100.02 19.7412 99.574 19.7412C97.1531 19.7412 95.9427 21.2065 95.9427 23.4044V30.9536H92.1521V16.0781H95.3375L95.656 17.9893C96.7709 16.747 98.268 15.9506 100.084 15.9506C100.37 15.9188 100.657 15.9506 100.976 16.0143Z" fill="#020203"/>
<path d="M104.352 26.2075V10.1852H108.174L108.143 26.0482C108.143 27.2268 108.461 27.7683 109.385 27.7683C109.863 27.7683 110.213 27.609 110.723 27.3223L112.061 30.2529C111.201 30.9218 109.958 31.1766 108.716 31.1766C105.881 31.1766 104.352 29.4247 104.352 26.2075Z" fill="#020203"/>
<path d="M114.927 11.8097C114.927 10.5992 115.915 9.57993 117.157 9.57993C118.399 9.57993 119.387 10.5674 119.387 11.8097C119.387 13.0201 118.399 14.0076 117.157 14.0076C115.915 13.9757 114.927 12.9882 114.927 11.8097ZM115.278 30.9217V16.0462H119.068V30.9217H115.278Z" fill="#020203"/>
<path d="M128.401 16.0462H131.65V19.5501H128.401V30.9536H124.579V19.5501H122.477V16.0462H124.579V14.9313C124.579 12.0326 126.681 9.93031 129.612 9.93031C131.077 9.93031 132.351 10.3126 133.275 10.9815L131.523 13.9757C130.918 13.4979 130.504 13.4023 129.93 13.4023C128.943 13.4023 128.37 14.1031 128.37 14.995V16.0462H128.401Z" fill="#020203"/>
<path d="M148.724 24.7103H137.703C138.18 26.6215 139.805 27.832 142.098 27.832C143.564 27.832 144.838 27.386 145.762 26.4941L147.991 28.9787C146.271 30.5395 144.487 31.2085 142.067 31.2085C137.288 31.2085 133.944 28.0868 133.944 23.6273C133.944 19.1678 137.288 15.8232 141.716 15.8232C145.857 15.8232 148.851 18.8175 148.851 22.9903C148.819 23.914 148.788 24.4237 148.724 24.7103ZM145.188 21.8435C145.124 20.2509 143.691 19.136 141.684 19.136C139.709 19.136 138.308 20.1553 137.798 21.8435H145.188Z" fill="#020203"/>
<path d="M34.1788 5.85308C26.3747 -1.95103 13.6651 -1.95103 5.86104 5.85308C2.07047 9.64364 0 14.6765 0 19.996C0 25.3474 2.07047 30.3803 5.86104 34.139C9.77902 38.0569 14.8756 40 20.004 40C25.1324 40 30.2608 38.0569 34.1469 34.139C42.0147 26.3667 42.0147 13.6572 34.1788 5.85308ZM35.7078 24.9015C35.7715 24.774 35.8352 24.6785 35.9307 24.5829C35.8989 24.7103 35.867 24.8059 35.8352 24.9333L35.7078 24.9015ZM31.7261 8.33765C36.09 12.7016 37.4916 18.913 35.9307 24.4555C35.1025 24.5192 33.0002 24.0414 31.1209 23.3406C30.1971 22.7673 25.8332 20.1553 21.8515 19.996C20.4818 19.9323 19.3669 20.0597 18.4113 20.3464C18.3795 19.7412 18.2839 19.136 18.0928 18.4671C17.7424 17.1292 17.169 15.9506 16.5957 14.8358C15.7993 13.2749 15.1304 11.9052 15.1304 10.1852C15.1304 7.98726 15.7675 5.34342 16.1816 3.97372C17.4557 3.65519 18.7617 3.52778 20.0358 3.52778C24.2724 3.49592 28.5089 5.12045 31.7261 8.33765ZM8.34562 8.33765C9.49234 7.19093 10.7983 6.23532 12.168 5.47084C11.8495 6.90425 11.5947 8.59248 11.5947 10.1852C11.5947 12.7334 12.5821 14.6765 13.4422 16.3966C13.9518 17.384 14.3978 18.3396 14.6845 19.3271C15.226 21.3657 14.6845 22.831 14.5252 23.1814C14.4933 23.2451 14.4296 23.3088 14.3978 23.3406C14.3022 23.1495 14.2067 22.9902 14.0792 22.7991C12.1362 19.6138 11.3398 18.2759 7.99523 16.0143C6.30699 14.8358 5.79734 12.7653 5.63807 11.8415C6.40255 10.5993 7.29445 9.38882 8.34562 8.33765ZM3.53574 20.0279C3.53574 18.913 3.66315 17.7981 3.85427 16.7151C4.39578 17.5115 5.09656 18.3078 6.05216 18.9449C8.75971 20.7924 9.26936 21.6206 11.1169 24.6785C11.7858 25.7934 12.0088 26.6215 12.0406 27.1631C10.7983 29.5839 10.7346 32.0048 11.0532 33.916C10.0976 33.3108 9.20566 32.5782 8.34562 31.75C5.22397 28.5646 3.53574 24.4237 3.53574 20.0279ZM15.2578 35.8272C14.8756 34.9353 13.92 32.3233 14.78 29.6795C16.7868 30.8581 19.5262 31.9729 21.947 32.6419C23.7627 33.1515 25.3554 34.2664 26.5021 35.222C22.9027 36.7191 18.921 36.9421 15.2578 35.8272ZM31.7261 31.6863C31.089 32.3233 30.4201 32.8967 29.7193 33.4063C28.4133 32.1322 25.9287 30.1254 22.9027 29.2654C20.1314 28.5009 17.8061 27.4179 16.4683 26.5897C18.252 23.8184 19.2077 23.4043 21.7559 23.4999C25.1643 23.6273 29.3689 26.3667 29.4326 26.3986L29.5919 26.4941L29.7512 26.5578C31.312 27.1631 33.0321 27.7046 34.5929 27.8957C33.7965 29.2654 32.8728 30.5395 31.7261 31.6863Z" fill="#6AA0FF"/>
<path d="M26.9799 17.0973L27.1392 17.384C28.1266 18.467 30.3245 19.7093 33.6691 15.2498L33.8603 15.0269L33.6054 14.8994C28.4133 12.829 27.2029 15.0587 26.9162 16.4603L26.948 16.8107C26.9162 16.9381 26.948 17.0336 26.9799 17.0973Z" fill="#6AA0FF"/>
<path d="M20.5774 16.2055L21.0552 16.4603C21.1826 16.524 21.31 16.5558 21.4692 16.5877L21.9789 16.6196C24.2086 16.1736 27.6807 14.2305 24.4316 6.1079L24.3042 5.6938L23.922 5.94864C16.9142 11.2045 18.8891 14.6765 20.5774 16.2055Z" fill="#6AA0FF"/>
</svg>
