<svg width="70" height="70" viewBox="0 0 70 70" fill="none" xmlns="http://www.w3.org/2000/svg">
<circle cx="35" cy="35" r="35" fill="#EAEBFF"/>
<path d="M40 44V42C40 40.9391 39.5786 39.9217 38.8284 39.1716C38.0783 38.4214 37.0609 38 36 38H28C26.9391 38 25.9217 38.4214 25.1716 39.1716C24.4214 39.9217 24 40.9391 24 42V44" stroke="#3840F7" stroke-width="2" stroke-linecap="round" stroke-linejoin="round"/>
<path d="M32 34C34.2091 34 36 32.2091 36 30C36 27.7909 34.2091 26 32 26C29.7909 26 28 27.7909 28 30C28 32.2091 29.7909 34 32 34Z" stroke="#3840F7" stroke-width="2" stroke-linecap="round" stroke-linejoin="round"/>
<path d="M46 43.9999V41.9999C45.9993 41.1136 45.7044 40.2527 45.1614 39.5522C44.6184 38.8517 43.8581 38.3515 43 38.1299" stroke="#3840F7" stroke-width="2" stroke-linecap="round" stroke-linejoin="round"/>
<path d="M39 26.1299C39.8604 26.3502 40.623 26.8506 41.1676 27.5522C41.7122 28.2538 42.0078 29.1167 42.0078 30.0049C42.0078 30.8931 41.7122 31.756 41.1676 32.4576C40.623 33.1592 39.8604 33.6596 39 33.8799" stroke="#3840F7" stroke-width="2" stroke-linecap="round" stroke-linejoin="round"/>
</svg>
